<mxfile host="app.diagrams.net" agent="Mozilla/5.0 (Windows NT 10.0; Win64; x64) AppleWebKit/537.36 (KHTML, like Gecko) Chrome/131.0.0.0 Safari/537.36" version="25.0.3" pages="2">
  <diagram name="overall" id="Page-0">
    <mxGraphModel dx="2913.64" dy="806" grid="1" gridSize="10" guides="1" tooltips="1" connect="1" arrows="1" fold="1" page="1" pageScale="1" pageWidth="1027.64" pageHeight="993.78" math="0" shadow="0">
      <root>
        <mxCell id="0" />
        <mxCell id="1" parent="0" />
        <mxCell id="y1aLX6PIxp-s59hQmKE9-4" value="" style="rounded=0;whiteSpace=wrap;html=1;strokeWidth=2;dashed=1;fontSize=20;" vertex="1" parent="1">
          <mxGeometry x="-640" y="720" width="800" height="300" as="geometry" />
        </mxCell>
        <mxCell id="y1aLX6PIxp-s59hQmKE9-3" value="" style="rounded=0;whiteSpace=wrap;html=1;strokeColor=#8A8A8A;fontSize=20;" vertex="1" parent="1">
          <mxGeometry x="-83" y="800" width="220" height="160" as="geometry" />
        </mxCell>
        <mxCell id="y1aLX6PIxp-s59hQmKE9-2" value="" style="rounded=0;whiteSpace=wrap;html=1;strokeColor=#8A8A8A;fontSize=20;" vertex="1" parent="1">
          <mxGeometry x="-619" y="775" width="250" height="235" as="geometry" />
        </mxCell>
        <mxCell id="AJe3tAZffHjV7U_9R2RR-12" value="" style="rounded=0;whiteSpace=wrap;html=1;strokeWidth=2;dashed=1;fontSize=20;" parent="1" vertex="1">
          <mxGeometry x="-640" y="540" width="800" height="130" as="geometry" />
        </mxCell>
        <mxCell id="tuTvfj4q_xN_hQTkwLgH-2" value="" style="rounded=0;whiteSpace=wrap;html=1;strokeWidth=2;" parent="1" vertex="1">
          <mxGeometry x="-800" y="360" width="120" height="80" as="geometry" />
        </mxCell>
        <mxCell id="tuTvfj4q_xN_hQTkwLgH-3" value="&lt;b&gt;&lt;font&gt;研究思路&lt;/font&gt;&lt;/b&gt;" style="text;html=1;align=center;verticalAlign=middle;whiteSpace=wrap;rounded=0;fontSize=22;fontColor=#368514;" parent="1" vertex="1">
          <mxGeometry x="-800" y="385" width="120" height="30" as="geometry" />
        </mxCell>
        <mxCell id="tuTvfj4q_xN_hQTkwLgH-4" value="" style="rounded=0;whiteSpace=wrap;html=1;strokeWidth=2;" parent="1" vertex="1">
          <mxGeometry x="-490" y="360" width="490" height="80" as="geometry" />
        </mxCell>
        <mxCell id="tuTvfj4q_xN_hQTkwLgH-5" value="&lt;b&gt;&lt;font&gt;研究内容&lt;/font&gt;&lt;/b&gt;" style="text;html=1;align=center;verticalAlign=middle;whiteSpace=wrap;rounded=0;fontSize=22;fontColor=#368514;" parent="1" vertex="1">
          <mxGeometry x="-300" y="385" width="120" height="30" as="geometry" />
        </mxCell>
        <mxCell id="tuTvfj4q_xN_hQTkwLgH-6" value="" style="rounded=0;whiteSpace=wrap;html=1;strokeWidth=2;" parent="1" vertex="1">
          <mxGeometry x="200" y="360" width="170" height="80" as="geometry" />
        </mxCell>
        <mxCell id="tuTvfj4q_xN_hQTkwLgH-7" value="&lt;b&gt;&lt;font&gt;研究方法&lt;/font&gt;&lt;/b&gt;" style="text;html=1;align=center;verticalAlign=middle;whiteSpace=wrap;rounded=0;fontSize=22;fontColor=#368514;" parent="1" vertex="1">
          <mxGeometry x="230" y="385" width="120" height="30" as="geometry" />
        </mxCell>
        <mxCell id="tuTvfj4q_xN_hQTkwLgH-8" value="" style="rounded=0;whiteSpace=wrap;html=1;strokeWidth=2;" parent="1" vertex="1">
          <mxGeometry x="-800" y="540" width="120" height="130" as="geometry" />
        </mxCell>
        <mxCell id="tuTvfj4q_xN_hQTkwLgH-9" value="&lt;b&gt;&lt;font&gt;提出问题&lt;/font&gt;&lt;/b&gt;" style="text;html=1;align=center;verticalAlign=middle;whiteSpace=wrap;rounded=0;fontSize=22;fontColor=#2d16df;" parent="1" vertex="1">
          <mxGeometry x="-800" y="590" width="120" height="30" as="geometry" />
        </mxCell>
        <mxCell id="tuTvfj4q_xN_hQTkwLgH-10" value="" style="rounded=0;whiteSpace=wrap;html=1;strokeWidth=2;" parent="1" vertex="1">
          <mxGeometry x="-800" y="740" width="120" height="260" as="geometry" />
        </mxCell>
        <mxCell id="tuTvfj4q_xN_hQTkwLgH-11" value="&lt;b&gt;&lt;font&gt;案例研究&lt;/font&gt;&lt;/b&gt;" style="text;html=1;align=center;verticalAlign=middle;whiteSpace=wrap;rounded=0;fontSize=22;fontColor=#2d16df;" parent="1" vertex="1">
          <mxGeometry x="-800" y="850" width="120" height="30" as="geometry" />
        </mxCell>
        <mxCell id="tuTvfj4q_xN_hQTkwLgH-14" value="" style="rounded=0;whiteSpace=wrap;html=1;strokeWidth=2;" parent="1" vertex="1">
          <mxGeometry x="-800" y="1080" width="120" height="270" as="geometry" />
        </mxCell>
        <mxCell id="tuTvfj4q_xN_hQTkwLgH-15" value="&lt;b&gt;&lt;font&gt;解决问题&lt;/font&gt;&lt;/b&gt;" style="text;html=1;align=center;verticalAlign=middle;whiteSpace=wrap;rounded=0;fontSize=22;fontColor=#2d16df;" parent="1" vertex="1">
          <mxGeometry x="-800" y="1190" width="120" height="30" as="geometry" />
        </mxCell>
        <mxCell id="AJe3tAZffHjV7U_9R2RR-2" value="" style="rounded=0;whiteSpace=wrap;html=1;strokeWidth=2;" parent="1" vertex="1">
          <mxGeometry x="200" y="530" width="170" height="140" as="geometry" />
        </mxCell>
        <mxCell id="AJe3tAZffHjV7U_9R2RR-3" value="&lt;b&gt;文献研究法&lt;/b&gt;" style="text;html=1;align=center;verticalAlign=middle;whiteSpace=wrap;rounded=0;fontSize=22;fontColor=#000000;" parent="1" vertex="1">
          <mxGeometry x="230" y="590" width="120" height="30" as="geometry" />
        </mxCell>
        <mxCell id="AJe3tAZffHjV7U_9R2RR-4" value="" style="rounded=0;whiteSpace=wrap;html=1;strokeWidth=2;" parent="1" vertex="1">
          <mxGeometry x="200" y="730" width="170" height="270" as="geometry" />
        </mxCell>
        <mxCell id="AJe3tAZffHjV7U_9R2RR-5" value="&lt;b&gt;&lt;font&gt;综合应用：&lt;/font&gt;&lt;/b&gt;&lt;div&gt;&lt;b&gt;&lt;font&gt;专家访谈法，&lt;/font&gt;&lt;/b&gt;&lt;/div&gt;&lt;div&gt;&lt;b&gt;&lt;font&gt;调查问卷法，&lt;/font&gt;&lt;/b&gt;&lt;/div&gt;&lt;div&gt;&lt;b&gt;&lt;font&gt;文本分析法，&lt;/font&gt;&lt;/b&gt;&lt;/div&gt;&lt;div&gt;&lt;b&gt;&lt;font&gt;数据分析法，&lt;/font&gt;&lt;/b&gt;&lt;/div&gt;&lt;div&gt;&lt;b&gt;&lt;font&gt;等收集资料和数据&lt;/font&gt;&lt;/b&gt;&lt;/div&gt;&lt;div&gt;&lt;b&gt;&lt;font&gt;&lt;br&gt;&lt;/font&gt;&lt;/b&gt;&lt;/div&gt;&lt;div&gt;&lt;b&gt;&lt;font&gt;&lt;br&gt;&lt;/font&gt;&lt;/b&gt;&lt;/div&gt;" style="text;html=1;align=center;verticalAlign=middle;whiteSpace=wrap;rounded=0;fontSize=22;fontColor=#000000;" parent="1" vertex="1">
          <mxGeometry x="205" y="779" width="170" height="215" as="geometry" />
        </mxCell>
        <mxCell id="AJe3tAZffHjV7U_9R2RR-6" value="" style="rounded=0;whiteSpace=wrap;html=1;strokeWidth=2;" parent="1" vertex="1">
          <mxGeometry x="200" y="1070" width="170" height="260" as="geometry" />
        </mxCell>
        <mxCell id="AJe3tAZffHjV7U_9R2RR-7" value="&lt;b&gt;&lt;font&gt;实施&lt;/font&gt;&lt;/b&gt;&lt;div&gt;&lt;b&gt;案例研究&lt;/b&gt;&lt;/div&gt;" style="text;html=1;align=center;verticalAlign=middle;whiteSpace=wrap;rounded=0;fontSize=22;fontColor=#000000;" parent="1" vertex="1">
          <mxGeometry x="225" y="1140" width="120" height="100" as="geometry" />
        </mxCell>
        <mxCell id="AJe3tAZffHjV7U_9R2RR-8" value="" style="rounded=0;whiteSpace=wrap;html=1;strokeWidth=2;fontSize=20;" parent="1" vertex="1">
          <mxGeometry x="-598.64" y="570" width="318.64" height="60" as="geometry" />
        </mxCell>
        <mxCell id="AJe3tAZffHjV7U_9R2RR-9" value="&lt;b&gt;研究背景和意义&lt;/b&gt;" style="text;html=1;align=center;verticalAlign=middle;whiteSpace=wrap;rounded=0;fontSize=20;fontColor=#000000;" parent="1" vertex="1">
          <mxGeometry x="-571.14" y="585" width="263.64" height="30" as="geometry" />
        </mxCell>
        <mxCell id="AJe3tAZffHjV7U_9R2RR-10" value="" style="rounded=0;whiteSpace=wrap;html=1;strokeWidth=2;fontSize=20;" parent="1" vertex="1">
          <mxGeometry x="-200" y="570" width="318.64" height="60" as="geometry" />
        </mxCell>
        <mxCell id="AJe3tAZffHjV7U_9R2RR-11" value="&lt;b&gt;国内外研究现状&lt;/b&gt;" style="text;html=1;align=center;verticalAlign=middle;whiteSpace=wrap;rounded=0;fontSize=20;fontColor=#000000;" parent="1" vertex="1">
          <mxGeometry x="-172.5" y="585" width="263.64" height="30" as="geometry" />
        </mxCell>
        <mxCell id="AJe3tAZffHjV7U_9R2RR-13" value="" style="endArrow=classic;html=1;rounded=0;exitX=1;exitY=0.5;exitDx=0;exitDy=0;entryX=0;entryY=0.5;entryDx=0;entryDy=0;strokeWidth=2;" parent="1" source="tuTvfj4q_xN_hQTkwLgH-3" target="tuTvfj4q_xN_hQTkwLgH-4" edge="1">
          <mxGeometry width="50" height="50" relative="1" as="geometry">
            <mxPoint x="-650" y="400" as="sourcePoint" />
            <mxPoint x="-250" y="530" as="targetPoint" />
          </mxGeometry>
        </mxCell>
        <mxCell id="AJe3tAZffHjV7U_9R2RR-14" value="" style="endArrow=classic;html=1;rounded=0;exitX=1;exitY=0.5;exitDx=0;exitDy=0;entryX=0;entryY=0.5;entryDx=0;entryDy=0;strokeWidth=2;" parent="1" target="tuTvfj4q_xN_hQTkwLgH-6" edge="1">
          <mxGeometry width="50" height="50" relative="1" as="geometry">
            <mxPoint x="0.36000000000001364" y="399.5" as="sourcePoint" />
            <mxPoint x="190.36" y="399.5" as="targetPoint" />
          </mxGeometry>
        </mxCell>
        <mxCell id="AJe3tAZffHjV7U_9R2RR-15" value="" style="endArrow=classic;html=1;rounded=0;exitX=0.5;exitY=1;exitDx=0;exitDy=0;entryX=0.5;entryY=0;entryDx=0;entryDy=0;strokeWidth=2;" parent="1" source="tuTvfj4q_xN_hQTkwLgH-8" target="tuTvfj4q_xN_hQTkwLgH-10" edge="1">
          <mxGeometry width="50" height="50" relative="1" as="geometry">
            <mxPoint x="-750" y="670" as="sourcePoint" />
            <mxPoint x="-550.36" y="670.5" as="targetPoint" />
          </mxGeometry>
        </mxCell>
        <mxCell id="AJe3tAZffHjV7U_9R2RR-16" value="" style="endArrow=classic;html=1;rounded=0;exitX=0.5;exitY=1;exitDx=0;exitDy=0;entryX=0.5;entryY=0;entryDx=0;entryDy=0;strokeWidth=2;" parent="1" target="tuTvfj4q_xN_hQTkwLgH-8" edge="1">
          <mxGeometry width="50" height="50" relative="1" as="geometry">
            <mxPoint x="-740.5" y="440" as="sourcePoint" />
            <mxPoint x="-740.5" y="510" as="targetPoint" />
          </mxGeometry>
        </mxCell>
        <mxCell id="AJe3tAZffHjV7U_9R2RR-17" value="" style="endArrow=classic;html=1;rounded=0;exitX=0.5;exitY=1;exitDx=0;exitDy=0;entryX=0.5;entryY=0;entryDx=0;entryDy=0;strokeWidth=2;" parent="1" target="tuTvfj4q_xN_hQTkwLgH-14" edge="1">
          <mxGeometry width="50" height="50" relative="1" as="geometry">
            <mxPoint x="-740.5" y="1000" as="sourcePoint" />
            <mxPoint x="-740.5" y="1070" as="targetPoint" />
          </mxGeometry>
        </mxCell>
        <mxCell id="AJe3tAZffHjV7U_9R2RR-18" value="" style="endArrow=classic;html=1;rounded=0;exitX=0.5;exitY=1;exitDx=0;exitDy=0;entryX=0.5;entryY=0;entryDx=0;entryDy=0;strokeWidth=8;" parent="1" edge="1">
          <mxGeometry width="50" height="50" relative="1" as="geometry">
            <mxPoint x="-240.5" y="440" as="sourcePoint" />
            <mxPoint x="-240" y="540" as="targetPoint" />
          </mxGeometry>
        </mxCell>
        <mxCell id="AJe3tAZffHjV7U_9R2RR-24" value="" style="rounded=0;whiteSpace=wrap;html=1;strokeWidth=2;fontSize=20;" parent="1" vertex="1">
          <mxGeometry x="-420" y="734" width="380" height="33" as="geometry" />
        </mxCell>
        <mxCell id="AJe3tAZffHjV7U_9R2RR-25" value="&lt;b&gt;A公司营销管理现状及优化策略研究&lt;/b&gt;" style="text;html=1;align=center;verticalAlign=middle;whiteSpace=wrap;rounded=0;fontSize=20;fontColor=#000000;" parent="1" vertex="1">
          <mxGeometry x="-440" y="735" width="422.5" height="30" as="geometry" />
        </mxCell>
        <mxCell id="AJe3tAZffHjV7U_9R2RR-28" value="" style="rounded=0;whiteSpace=wrap;html=1;strokeWidth=2;fontSize=20;" parent="1" vertex="1">
          <mxGeometry x="-609" y="783" width="230" height="60" as="geometry" />
        </mxCell>
        <mxCell id="AJe3tAZffHjV7U_9R2RR-29" value="&lt;b&gt;公司概况及营销管理现状&lt;/b&gt;" style="text;html=1;align=center;verticalAlign=middle;whiteSpace=wrap;rounded=0;fontSize=20;fontColor=#000000;" parent="1" vertex="1">
          <mxGeometry x="-609" y="802" width="215.28" height="30" as="geometry" />
        </mxCell>
        <mxCell id="AJe3tAZffHjV7U_9R2RR-30" value="" style="rounded=0;whiteSpace=wrap;html=1;strokeWidth=2;fontSize=20;" parent="1" vertex="1">
          <mxGeometry x="-609" y="871" width="230" height="50" as="geometry" />
        </mxCell>
        <mxCell id="AJe3tAZffHjV7U_9R2RR-31" value="&lt;b&gt;市场环境及竞争分析&lt;/b&gt;" style="text;html=1;align=center;verticalAlign=middle;whiteSpace=wrap;rounded=0;fontSize=20;fontColor=#000000;" parent="1" vertex="1">
          <mxGeometry x="-629" y="881" width="263.64" height="30" as="geometry" />
        </mxCell>
        <mxCell id="AJe3tAZffHjV7U_9R2RR-32" value="" style="rounded=0;whiteSpace=wrap;html=1;strokeWidth=2;fontSize=20;" parent="1" vertex="1">
          <mxGeometry x="-609" y="946" width="230" height="50" as="geometry" />
        </mxCell>
        <mxCell id="AJe3tAZffHjV7U_9R2RR-33" value="&lt;b&gt;客户需求及行为分析&lt;/b&gt;" style="text;html=1;align=center;verticalAlign=middle;whiteSpace=wrap;rounded=0;fontSize=20;fontColor=#000000;" parent="1" vertex="1">
          <mxGeometry x="-614.28" y="956" width="230" height="30" as="geometry" />
        </mxCell>
        <mxCell id="AJe3tAZffHjV7U_9R2RR-34" value="" style="rounded=0;whiteSpace=wrap;html=1;strokeWidth=2;fontSize=20;" parent="1" vertex="1">
          <mxGeometry x="-297" y="811" width="150" height="150" as="geometry" />
        </mxCell>
        <mxCell id="AJe3tAZffHjV7U_9R2RR-35" value="&lt;b&gt;营销管理&lt;/b&gt;&lt;div&gt;&lt;b&gt;存在的问题&lt;/b&gt;&lt;/div&gt;" style="text;html=1;align=center;verticalAlign=middle;whiteSpace=wrap;rounded=0;fontSize=20;fontColor=#000000;" parent="1" vertex="1">
          <mxGeometry x="-278.25" y="831" width="112.5" height="114" as="geometry" />
        </mxCell>
        <mxCell id="AJe3tAZffHjV7U_9R2RR-36" value="" style="rounded=0;whiteSpace=wrap;html=1;strokeWidth=2;fontSize=20;" parent="1" vertex="1">
          <mxGeometry x="-73" y="811" width="200" height="60" as="geometry" />
        </mxCell>
        <mxCell id="AJe3tAZffHjV7U_9R2RR-37" value="&lt;b&gt;优化策略&lt;/b&gt;" style="text;html=1;align=center;verticalAlign=middle;whiteSpace=wrap;rounded=0;fontSize=20;fontColor=#000000;" parent="1" vertex="1">
          <mxGeometry x="-25.5" y="826" width="112.5" height="30" as="geometry" />
        </mxCell>
        <mxCell id="AJe3tAZffHjV7U_9R2RR-38" value="" style="rounded=0;whiteSpace=wrap;html=1;strokeWidth=2;fontSize=20;" parent="1" vertex="1">
          <mxGeometry x="-73" y="892" width="200" height="60" as="geometry" />
        </mxCell>
        <mxCell id="AJe3tAZffHjV7U_9R2RR-39" value="&lt;b&gt;实施保障&lt;/b&gt;" style="text;html=1;align=center;verticalAlign=middle;whiteSpace=wrap;rounded=0;fontSize=20;fontColor=#000000;" parent="1" vertex="1">
          <mxGeometry x="-35.5" y="907" width="132.5" height="30" as="geometry" />
        </mxCell>
        <mxCell id="y1aLX6PIxp-s59hQmKE9-5" value="" style="endArrow=classic;html=1;rounded=0;exitX=1;exitY=0.5;exitDx=0;exitDy=0;strokeWidth=2;entryX=0.001;entryY=0.54;entryDx=0;entryDy=0;entryPerimeter=0;fontSize=20;" edge="1" parent="1" target="AJe3tAZffHjV7U_9R2RR-34">
          <mxGeometry width="50" height="50" relative="1" as="geometry">
            <mxPoint x="-369" y="892" as="sourcePoint" />
            <mxPoint x="-313" y="892" as="targetPoint" />
          </mxGeometry>
        </mxCell>
        <mxCell id="y1aLX6PIxp-s59hQmKE9-6" value="" style="endArrow=classic;html=1;rounded=0;strokeWidth=2;entryX=0.003;entryY=0.539;entryDx=0;entryDy=0;entryPerimeter=0;exitX=1;exitY=0.5;exitDx=0;exitDy=0;fontSize=20;" edge="1" parent="1" source="AJe3tAZffHjV7U_9R2RR-34" target="y1aLX6PIxp-s59hQmKE9-3">
          <mxGeometry width="50" height="50" relative="1" as="geometry">
            <mxPoint x="-150" y="886" as="sourcePoint" />
            <mxPoint x="-107" y="887.58" as="targetPoint" />
          </mxGeometry>
        </mxCell>
        <mxCell id="y1aLX6PIxp-s59hQmKE9-8" value="" style="endArrow=classic;html=1;rounded=0;strokeWidth=2;entryX=1;entryY=0.471;entryDx=0;entryDy=0;entryPerimeter=0;exitX=0;exitY=0.5;exitDx=0;exitDy=0;" edge="1" parent="1" source="AJe3tAZffHjV7U_9R2RR-2" target="AJe3tAZffHjV7U_9R2RR-12">
          <mxGeometry width="50" height="50" relative="1" as="geometry">
            <mxPoint x="180" y="640" as="sourcePoint" />
            <mxPoint x="245" y="640" as="targetPoint" />
          </mxGeometry>
        </mxCell>
        <mxCell id="y1aLX6PIxp-s59hQmKE9-9" value="" style="endArrow=classic;html=1;rounded=0;strokeWidth=2;entryX=1;entryY=0.471;entryDx=0;entryDy=0;entryPerimeter=0;exitX=0;exitY=0.5;exitDx=0;exitDy=0;" edge="1" parent="1">
          <mxGeometry width="50" height="50" relative="1" as="geometry">
            <mxPoint x="200" y="856" as="sourcePoint" />
            <mxPoint x="160" y="857" as="targetPoint" />
          </mxGeometry>
        </mxCell>
        <mxCell id="y1aLX6PIxp-s59hQmKE9-10" value="" style="endArrow=classic;html=1;rounded=0;exitX=1;exitY=0.5;exitDx=0;exitDy=0;entryX=0;entryY=0.5;entryDx=0;entryDy=0;strokeWidth=2;" edge="1" parent="1" target="AJe3tAZffHjV7U_9R2RR-12">
          <mxGeometry width="50" height="50" relative="1" as="geometry">
            <mxPoint x="-680" y="604.5" as="sourcePoint" />
            <mxPoint x="-490" y="604.5" as="targetPoint" />
          </mxGeometry>
        </mxCell>
        <mxCell id="y1aLX6PIxp-s59hQmKE9-11" value="" style="endArrow=classic;html=1;rounded=0;exitX=1;exitY=0.5;exitDx=0;exitDy=0;entryX=0;entryY=0.5;entryDx=0;entryDy=0;strokeWidth=2;" edge="1" parent="1">
          <mxGeometry width="50" height="50" relative="1" as="geometry">
            <mxPoint x="-680" y="864.5" as="sourcePoint" />
            <mxPoint x="-640" y="865" as="targetPoint" />
          </mxGeometry>
        </mxCell>
        <mxCell id="y1aLX6PIxp-s59hQmKE9-12" value="" style="rounded=0;whiteSpace=wrap;html=1;strokeWidth=2;dashed=1;fontSize=20;" vertex="1" parent="1">
          <mxGeometry x="-640" y="1064" width="800" height="300" as="geometry" />
        </mxCell>
        <mxCell id="y1aLX6PIxp-s59hQmKE9-13" value="" style="rounded=0;whiteSpace=wrap;html=1;strokeColor=#8A8A8A;fontSize=20;" vertex="1" parent="1">
          <mxGeometry x="-174" y="1144" width="277" height="160" as="geometry" />
        </mxCell>
        <mxCell id="y1aLX6PIxp-s59hQmKE9-14" value="" style="rounded=0;whiteSpace=wrap;html=1;strokeColor=#8A8A8A;fontSize=20;" vertex="1" parent="1">
          <mxGeometry x="-585" y="1119" width="250" height="235" as="geometry" />
        </mxCell>
        <mxCell id="y1aLX6PIxp-s59hQmKE9-15" value="" style="rounded=0;whiteSpace=wrap;html=1;strokeWidth=2;fontSize=20;" vertex="1" parent="1">
          <mxGeometry x="-420" y="1078" width="380" height="33" as="geometry" />
        </mxCell>
        <mxCell id="y1aLX6PIxp-s59hQmKE9-16" value="&lt;b&gt;案例分析与实证研究&lt;/b&gt;" style="text;html=1;align=center;verticalAlign=middle;whiteSpace=wrap;rounded=0;fontSize=20;fontColor=#000000;" vertex="1" parent="1">
          <mxGeometry x="-440" y="1079" width="422.5" height="30" as="geometry" />
        </mxCell>
        <mxCell id="y1aLX6PIxp-s59hQmKE9-17" value="" style="rounded=0;whiteSpace=wrap;html=1;strokeWidth=2;fontSize=20;" vertex="1" parent="1">
          <mxGeometry x="-575" y="1134" width="230" height="56" as="geometry" />
        </mxCell>
        <mxCell id="y1aLX6PIxp-s59hQmKE9-18" value="&lt;b&gt;研究问题确定&lt;/b&gt;" style="text;html=1;align=center;verticalAlign=middle;whiteSpace=wrap;rounded=0;fontSize=20;fontColor=#000000;" vertex="1" parent="1">
          <mxGeometry x="-567.6800000000001" y="1146.5" width="209" height="30" as="geometry" />
        </mxCell>
        <mxCell id="y1aLX6PIxp-s59hQmKE9-19" value="" style="rounded=0;whiteSpace=wrap;html=1;strokeWidth=2;fontSize=20;" vertex="1" parent="1">
          <mxGeometry x="-575" y="1215" width="230" height="50" as="geometry" />
        </mxCell>
        <mxCell id="y1aLX6PIxp-s59hQmKE9-20" value="&lt;b&gt;数据收集方法&lt;/b&gt;" style="text;html=1;align=center;verticalAlign=middle;whiteSpace=wrap;rounded=0;fontSize=20;fontColor=#000000;" vertex="1" parent="1">
          <mxGeometry x="-595" y="1225" width="263.64" height="30" as="geometry" />
        </mxCell>
        <mxCell id="y1aLX6PIxp-s59hQmKE9-21" value="" style="rounded=0;whiteSpace=wrap;html=1;strokeWidth=2;fontSize=20;" vertex="1" parent="1">
          <mxGeometry x="-575" y="1290" width="230" height="50" as="geometry" />
        </mxCell>
        <mxCell id="y1aLX6PIxp-s59hQmKE9-22" value="&lt;b&gt;研究过程规划&lt;/b&gt;" style="text;html=1;align=center;verticalAlign=middle;whiteSpace=wrap;rounded=0;fontSize=20;fontColor=#000000;" vertex="1" parent="1">
          <mxGeometry x="-580.28" y="1300" width="230" height="30" as="geometry" />
        </mxCell>
        <mxCell id="y1aLX6PIxp-s59hQmKE9-25" value="" style="rounded=0;whiteSpace=wrap;html=1;strokeWidth=2;fontSize=20;" vertex="1" parent="1">
          <mxGeometry x="-164" y="1155" width="257" height="60" as="geometry" />
        </mxCell>
        <mxCell id="y1aLX6PIxp-s59hQmKE9-26" value="&lt;b&gt;数据处理与呈现&lt;/b&gt;" style="text;html=1;align=center;verticalAlign=middle;whiteSpace=wrap;rounded=0;fontSize=20;fontColor=#000000;" vertex="1" parent="1">
          <mxGeometry x="-139" y="1170" width="207" height="30" as="geometry" />
        </mxCell>
        <mxCell id="y1aLX6PIxp-s59hQmKE9-27" value="" style="rounded=0;whiteSpace=wrap;html=1;strokeWidth=2;fontSize=20;" vertex="1" parent="1">
          <mxGeometry x="-164" y="1236" width="257" height="60" as="geometry" />
        </mxCell>
        <mxCell id="y1aLX6PIxp-s59hQmKE9-28" value="&lt;b&gt;结果解读与分析&lt;/b&gt;" style="text;html=1;align=center;verticalAlign=middle;whiteSpace=wrap;rounded=0;fontSize=20;fontColor=#000000;" vertex="1" parent="1">
          <mxGeometry x="-134" y="1251" width="197" height="30" as="geometry" />
        </mxCell>
        <mxCell id="y1aLX6PIxp-s59hQmKE9-31" value="" style="endArrow=classic;html=1;rounded=0;strokeWidth=2;entryX=1;entryY=0.471;entryDx=0;entryDy=0;entryPerimeter=0;exitX=0;exitY=0.5;exitDx=0;exitDy=0;" edge="1" parent="1">
          <mxGeometry width="50" height="50" relative="1" as="geometry">
            <mxPoint x="200" y="1200" as="sourcePoint" />
            <mxPoint x="160" y="1201" as="targetPoint" />
          </mxGeometry>
        </mxCell>
        <mxCell id="y1aLX6PIxp-s59hQmKE9-32" value="" style="endArrow=classic;html=1;rounded=0;exitX=1;exitY=0.5;exitDx=0;exitDy=0;entryX=0;entryY=0.5;entryDx=0;entryDy=0;strokeWidth=2;" edge="1" parent="1">
          <mxGeometry width="50" height="50" relative="1" as="geometry">
            <mxPoint x="-680" y="1208.5" as="sourcePoint" />
            <mxPoint x="-640" y="1209" as="targetPoint" />
          </mxGeometry>
        </mxCell>
        <mxCell id="y1aLX6PIxp-s59hQmKE9-34" value="" style="endArrow=classic;html=1;rounded=0;exitX=0.5;exitY=1;exitDx=0;exitDy=0;strokeWidth=8;fontSize=20;" edge="1" parent="1">
          <mxGeometry width="50" height="50" relative="1" as="geometry">
            <mxPoint x="-240.5" y="670" as="sourcePoint" />
            <mxPoint x="-240" y="720" as="targetPoint" />
          </mxGeometry>
        </mxCell>
        <mxCell id="y1aLX6PIxp-s59hQmKE9-35" value="" style="endArrow=classic;html=1;rounded=0;exitX=0.5;exitY=1;exitDx=0;exitDy=0;strokeWidth=8;entryX=0.5;entryY=0;entryDx=0;entryDy=0;fontSize=20;" edge="1" parent="1" target="y1aLX6PIxp-s59hQmKE9-12">
          <mxGeometry width="50" height="50" relative="1" as="geometry">
            <mxPoint x="-240.5" y="1020" as="sourcePoint" />
            <mxPoint x="-240" y="1060" as="targetPoint" />
          </mxGeometry>
        </mxCell>
        <mxCell id="y1aLX6PIxp-s59hQmKE9-36" value="" style="endArrow=classic;html=1;rounded=0;exitX=0.5;exitY=1;exitDx=0;exitDy=0;strokeWidth=8;" edge="1" parent="1">
          <mxGeometry width="50" height="50" relative="1" as="geometry">
            <mxPoint x="-240.5" y="1364" as="sourcePoint" />
            <mxPoint x="-240" y="1440" as="targetPoint" />
          </mxGeometry>
        </mxCell>
        <mxCell id="y1aLX6PIxp-s59hQmKE9-39" value="" style="rounded=0;whiteSpace=wrap;html=1;strokeWidth=2;" vertex="1" parent="1">
          <mxGeometry x="-350" y="1440" width="220" height="80" as="geometry" />
        </mxCell>
        <mxCell id="y1aLX6PIxp-s59hQmKE9-40" value="&lt;b&gt;结论与展望&lt;/b&gt;" style="text;html=1;align=center;verticalAlign=middle;whiteSpace=wrap;rounded=0;fontSize=22;fontColor=#000000;" vertex="1" parent="1">
          <mxGeometry x="-371.82000000000005" y="1465" width="263.64" height="30" as="geometry" />
        </mxCell>
        <mxCell id="y1aLX6PIxp-s59hQmKE9-41" value="" style="endArrow=classic;html=1;rounded=0;exitX=1;exitY=0.5;exitDx=0;exitDy=0;strokeWidth=2;entryX=0;entryY=0.5;entryDx=0;entryDy=0;fontSize=20;" edge="1" parent="1" target="y1aLX6PIxp-s59hQmKE9-13">
          <mxGeometry width="50" height="50" relative="1" as="geometry">
            <mxPoint x="-335" y="1225" as="sourcePoint" />
            <mxPoint x="-263" y="1225" as="targetPoint" />
          </mxGeometry>
        </mxCell>
      </root>
    </mxGraphModel>
  </diagram>
  <diagram id="yazr3Er31uIecSQmlLQ-" name="Page-2">
    <mxGraphModel dx="3586" dy="-294" grid="1" gridSize="10" guides="1" tooltips="1" connect="1" arrows="1" fold="1" page="1" pageScale="1" pageWidth="850" pageHeight="1100" math="0" shadow="0">
      <root>
        <mxCell id="0" />
        <mxCell id="1" parent="0" />
        <mxCell id="8juI4MX2dPzgMe1J2rrf-1" style="vsdxID=1;fillColor=none;gradientColor=none;image;aspect=fixed;image=data:image/png,/9j/4AAQSkZJRgABAQAAAQABAAD/2wBDAAgGBgcGBQgHBwcJCQgKDBQNDAsLDBkSEw8UHRofHh0aHBwgJC4nICIsIxwcKDcpLDAxNDQ0Hyc5PTgyPC4zNDL/2wBDAQkJCQwLDBgNDRgyIRwhMjIyMjIyMjIyMjIyMjIyMjIyMjIyMjIyMjIyMjIyMjIyMjIyMjIyMjIyMjIyMjIyMjL/wAARCAMFAyADASIAAhEBAxEB/8QAHwAAAQUBAQEBAQEAAAAAAAAAAAECAwQFBgcICQoL/8QAtRAAAgEDAwIEAwUFBAQAAAF9AQIDAAQRBRIhMUEGE1FhByJxFDKBkaEII0KxwRVS0fAkM2JyggkKFhcYGRolJicoKSo0NTY3ODk6Q0RFRkdISUpTVFVWV1hZWmNkZWZnaGlqc3R1dnd4eXqDhIWGh4iJipKTlJWWl5iZmqKjpKWmp6ipqrKztLW2t7i5usLDxMXGx8jJytLT1NXW19jZ2uHi4+Tl5ufo6erx8vP09fb3+Pn6/8QAHwEAAwEBAQEBAQEBAQAAAAAAAAECAwQFBgcICQoL/8QAtREAAgECBAQDBAcFBAQAAQJ3AAECAxEEBSExBhJBUQdhcRMiMoEIFEKRobHBCSMzUvAVYnLRChYkNOEl8RcYGRomJygpKjU2Nzg5OkNERUZHSElKU1RVVldYWVpjZGVmZ2hpanN0dXZ3eHl6goOEhYaHiImKkpOUlZaXmJmaoqOkpaanqKmqsrO0tba3uLm6wsPExcbHyMnK0tPU1dbX2Nna4uPk5ebn6Onq8vP09fb3+Pn6/9oADAMBAAIRAxEAPwD3TUtTsdHsXvdRuo7a1QgNLIcKMnA/U1hf8LG8G/8AQx6f/wB/ai+I4B8KxgjI/tCz/wDShK6j7Nb/APPCL/vgUxHOf8LH8G/9DHp//f2j/hY/g3/oY9P/AO/tdH9lt/8AnhF/3wKPstv/AM8Iv++BSGc5/wALH8G/9DHp/wD39o/4WP4N/wChj0//AL+10f2W3/54Rf8AfAo+y2//ADwi/wC+BQBzn/Cx/Bv/AEMen/8Af2j/AIWP4N/6GPT/APv7XR/Zbf8A54Rf98Cj7Lb/APPCL/vgUAc5/wALG8G/9DHp/wD39o/4WP4N/wChj0//AL+10f2W3/54Rf8AfApsltb+W/7iLof4BQAWV7bajZxXlnOk9vMu6ORDlWHqKnrlPhp/yTfQv+vYfzNdXQAUUUUAFFFFABRRRQAUUUUAFFFFABRRRQAUUUUANd1jRnchVUZJPYVzP/Cx/Bv/AEMen/8Af2t7U/8AkE3n/XB//QTWZ4Tt4G8IaMTDGSbKLkoP7goAqf8ACx/Bv/Qx6f8A9/aP+Fj+Df8AoY9P/wC/tdH9lt/+eEX/AHwKPstv/wA8Iv8AvgUAc5/wsfwb/wBDHp//AH9o/wCFjeDf+hj0/wD7+10f2W3/AOeEX/fAo+y2/wDzwi/74FAHOf8ACx/Bv/Qx6f8A9/aP+FjeDf8AoY9P/wC/tdH9lt/+eEX/AHwKPstv/wA8Iv8AvgUAc5/wsfwb/wBDHp//AH9o/wCFjeDf+hj0/wD7+10f2W3/AOeEX/fAo+y2/wDzwi/74FAHOf8ACx/Bv/Qx6f8A9/aP+Fj+Df8AoY9P/wC/tdH9lt/+eEX/AHwKPstv/wA8Iv8AvgUAc5/wsfwb/wBDHp//AH9o/wCFj+Df+hj0/wD7+10f2W3/AOeEX/fAo+y2/wDzwi/74FAHOf8ACx/Bv/Qx6f8A9/aP+Fj+Df8AoY9P/wC/tdH9lt/+eEX/AHwKPstv/wA8Iv8AvgUAc5/wsbwb/wBDHp//AH9o/wCFj+Df+hj0/wD7+10f2W3/AOeEX/fAo+y2/wDzwi/74FAHOf8ACx/Bv/Qx6f8A9/aP+Fj+Df8AoY9P/wC/tdH9lt/+eEX/AHwKPstv/wA8Iv8AvgUAc5/wsfwb/wBDHp//AH9o/wCFjeDf+hj0/wD7+10f2W3/AOeEX/fAo+y2/wDzwi/74FAHOf8ACx/Bv/Qx6f8A9/aP+FjeDf8AoY9P/wC/tdH9lt/+eEX/AHwKPstv/wA8Iv8AvgUAc5/wsbwb/wBDHp//AH9o/wCFj+Df+hj0/wD7+10f2W3/AOeEX/fAo+y2/wDzwi/74FAHOf8ACxvBv/Qx6f8A9/aP+Fj+Df8AoY9P/wC/tdH9lt/+eEX/AHwKPstv/wA8Iv8AvgUAc5/wsfwb/wBDHp//AH9o/wCFj+Df+hj0/wD7+10f2W3/AOeEX/fAo+y2/wDzwi/74FAHOf8ACx/Bv/Qx6f8A9/aP+FjeDf8AoY9P/wC/tdH9lt/+eEX/AHwKPstv/wA8Iv8AvgUAc5/wsfwb/wBDHp//AH9o/wCFj+Df+hj0/wD7+10f2W3/AOeEX/fAo+y2/wDzwi/74FAHOf8ACx/Bv/Qx6f8A9/aP+Fj+Df8AoY9P/wC/tdH9lt/+eEX/AHwKPstv/wA8Iv8AvgUAc5/wsfwb/wBDHp//AH9o/wCFj+Df+hj0/wD7+10f2W3/AOeEX/fAo+y2/wDzwi/74FAHOf8ACxvBv/Qx6f8A9/aP+Fj+Df8AoY9P/wC/tdH9lt/+eEX/AHwKPstv/wA8Iv8AvgUAc5/wsbwb/wBDHp//AH9p8PxB8I3E8cMXiGweSRgqKJeSTwBXQfZbf/nhF/3wK5f4gQQp4QmZIo1P2i25Cgf8tkpiOtooopDCiiigAooooAKKKKACiiigAooooAKKKKACiiigClqmr6folmbzU7yK1twwXzJWwMnoKxP+FjeDf+hj0/8A7+1F48AaHw8CAQddtMg/7xrqPstv/wA8Iv8AvgUxHOf8LH8G/wDQx6f/AN/aP+Fj+Df+hj0//v7XR/Zbf/nhF/3wKPstv/zwi/74FIZzn/Cx/Bv/AEMen/8Af2j/AIWP4N/6GPT/APv7XR/Zbf8A54Rf98Cj7Lb/APPCL/vgUAc5/wALH8G/9DHp/wD39o/4WN4N/wChj0//AL+10f2W3/54Rf8AfAo+y2//ADwi/wC+BQBzn/Cx/Bv/AEMen/8Af2j/AIWP4N/6GPT/APv7XR/Zbf8A54Rf98Cj7Lb/APPCL/vgUAc5/wALH8G/9DHp/wD39o/4WP4N/wChj0//AL+10f2W3/54Rf8AfAo+y2//ADwi/wC+BQBzn/Cx/Bv/AEMen/8Af2j/AIWP4N/6GPT/APv7XR/Zbf8A54Rf98Cj7Lb/APPCL/vgUAYth438MapfRWVjrllcXMpxHFHJlmOM8fgK365PxRDFHrnhUpGin+0jyqgf8snrrKAOS+I3/IrR/wDYRs//AEoSutrkviN/yK0f/YRs/wD0oSutoAKKxJtcmTWLrT0gti0EIlBe5KlsgnAXb14qpYeK5bo7pbBI4hZfbCVnLNtyRjG0c8etZ+1he1yedHTUVzZ8S3DtFcQ2aCyVA1wZJkDpuHydGwPfNLP4rVLUSxWjFvtgtGWSQAA4znKhsj6Ue1gLnidHRXJf8JnIPMJsYiI7lbc4mfJJI5GYwO/QkHirGo+LDYanLafYxN5cix4SX94xKlshNvI7daXt6dr3D2kTpabJ/qn/AN01gaD4jm1N4be4tds8kRmZ4WDRoucAHkkH2PvW/J/qn/3TVwmpK6KTTV0ct8NP+Sb6F/17D+Zrq65T4af8k30L/r2H8zXV1TGgooooAKKKKACiiigAooooAKKKKACiiigAooqjq2sWOh2JvdRnEFsGVGkIJCknAzigCTU/+QTef9cH/wDQTVDwl/yJ2jf9eUX/AKAKe+q6fq2hXk2n3sF1H9nc5ikDY+U9cdKZ4S/5E7Rv+vKL/wBAFAGzRRRQAUUUUAFFFFABRRRQAUUUUAFFFFABRRRQAUUUUAFFYc2vTR6re2KQWzG2i83LXJVn4JwF29cCqlp4skmWSSewSOKOzF4xScs205wACo549az9rC9rk88Tp6K5xvEdyZkmSzjFioAnLzoHRm+6PvYHvmrMXia0eFXeGdHe4a2WMKHLOoycbSRjHehVY9w50bVFc5b+KlH2+S9tpore3uPKV1hPAwPve+TTr3Xb2G7ntY7a1hYEeVLczNhlxkuVVeFHTJIo9rG1w50dDRWJp2tXV5qCWr2kJXYWkmilJ2kdPlZQcHsRkVt1UZKSuhpp7BRRRVDCiiigAooooAKKKKACiiigAooooAKKKKACuW+If/Inzf8AXzbf+j0rqa5b4h/8ifN/1823/o9KEB1NFZ+qa7pWixeZqWoW9quM4lkAJ+g6mptN1G21bTob+zk8y2mXdG+CNwzjPNAFqiiigAooooAKKKKACiiigAooooAKKKKACiiigDk/Hf8AqvD3/Yds/wD0I11lcn47/wBV4e/7Dtn/AOhGusoAKKKKACisrWNXbS5LNBHAwuZPL3Sz+WF4znO08VnS+KLqO+e2GnwHZdJa7vtJ5LDIP3OlZyqxi7MlzSOmorn7rxDO8lxa6daB7uOUwp50iqrMACeM5xg9aktfEsVxcpbm1l8xo2f92yyD5SARwc5yeho9rG9g50blFc8viOW41UQ2lhcS2kW5LlxEd8UgxgYzzWhJqjq0BSzlKOxEgb5ZEA/i2dSOecU1Ui9gUkzRorEi8TWkmsS2O1wqRq4k2P8AMSSMbdvHTrW3TjJS2GmnsFFFFUM5bxX/AMhvwr/2Ev8A2k9dTXLeK/8AkN+Ff+wl/wC0nrqaAOS+I3/IrR/9hGz/APShK62uS+I3/IrR/wDYRs//AEoSutoA8+1u1ktNb1S8eOeSBCJGk3bcFomVVBBBPJHT8as6HpcdprkdtK0iMmkoX/fMMEtz36e3Su3IBGCMj3pCiEklVJIwTjqPSudUEpcxn7NXucL5l9bQapfaddA6fZ2+yEeSBFM2csQvf/e781LeyLd6elvo9gsi2ztNIy52JJ5e4bNrcHJHArttihNm0bcY244xSJGka7Y0VF9FGKfselw9n5nn8cCfZZ/JDX13cbbqOH96QkihSwf5sZ44Jp91Pcv4nuZ83aiGKU5RCSg2KducHaM55Fd/QQCCCMg9qXsNNxez8zh/DhtE1uzFqsMbXNs00n2d368cOGJ3dTzXbSf6p/8AdNGxQQQoyBgcdBRJ/qn/AN01rThyKxcY8qseceAvBmgaj4E0e8urFpJ5bcM7efIuTk9g2K6P/hX3hj/oGt/4Ey//ABVRfDT/AJJvoX/XsP5murq2Ujmf+FfeGP8AoGt/4Ey//FUf8K+8Mf8AQNb/AMCZf/iq6aigDmf+FfeGP+ga3/gTL/8AFUf8K+8Mf9A1v/AmX/4qumooA5n/AIV94Y/6Brf+BMv/AMVR/wAK+8Mf9A1v/AmX/wCKrpqKAOZ/4V94Y/6Brf8AgTL/APFUf8K+8Mf9A1v/AAJl/wDiq6aigDmf+FfeGP8AoGt/4Ey//FUf8K+8Mf8AQNb/AMCZf/iq6aigDmf+FfeGP+ga3/gTL/8AFUf8K+8Mf9A1v/AmX/4qumooA5n/AIV94Y/6Brf+BMv/AMVWV4h+F2jappL2unR/YrhnU+e0kkm0A5PylsHPSu7ooA840/4T6D4fsbi7827urtIXIkaUxgHb2C4rrvCX/InaN/15Rf8AoAq/qf8AyCbz/rg//oJqh4S/5E7Rv+vKL/0AUAbNFFFABRRRQAUUUUAFFFFABRRRQAUUUUAFFFFABRRRQB55rVrJaavq128c8kCneZN23l4iqqMEE8kdPxq5o2lxWutvbTM6GPSo95MzAKTkHv09uldsQCMEZFIY0JJKKSRg5HUVzqglLmM/Zq9zhDNfWtnqmo2VyDp9vGsUCNABFLz8xC9Mc/e71PeXEDyaRHpEcYMN8yKGOIy/lk8EZ+XntXa7FKbNo24xtxximrDEoAWNAFOQAo4NP2L7hyeZwet6NPpGkTBdSWQ3W1rmCTrJKXHzRjt6fhVrW42fxFDa3FzaxWrxfaHiaE7ZiDhQ+Dlse/HFdk0UbsGeNGZehIyRTtq7t2BuxjOOcUOgugezOR8KJImp3tslzBPa2pXysRnMauMlVJOQAe1dfSBVDFgACepx1pa0pw5I2KjHlVgoooqygooooAKKKKACiiigAooooAKKKKACiiigArlfiIA3g24U5wbi2Bwcf8tkrqq5b4h/8ifN/wBfNt/6PShAYOv/AAb0LVpZLi0ubuzuXJJJcyqT7huf1rT0f4aaFY6RbWt7bfabmJNskyzSoHPrtDcV2lFAHM/8K+8Mf9A1v/AmX/4qj/hX3hj/AKBrf+BMv/xVdNRQBzP/AAr7wx/0DW/8CZf/AIqj/hX3hj/oGt/4Ey//ABVdNRQBzP8Awr7wx/0DW/8AAmX/AOKo/wCFfeGP+ga3/gTL/wDFV01FAHM/8K+8Mf8AQNb/AMCZf/iqP+FfeGP+ga3/AIEy/wDxVdNRQBzP/CvvDH/QNb/wJl/+Ko/4V94Y/wCga3/gTL/8VXTUUAcz/wAK+8Mf9A1v/AmX/wCKo/4V94Y/6Brf+BMv/wAVXTUUAcz/AMK+8Mf9A1v/AAJl/wDiqP8AhX3hj/oGt/4Ey/8AxVdNRQB514n8K6Los3h660+zMUx1u0TcZnbgvzwzEdq9Frk/Hf8AqvD3/Yds/wD0I11lABRRRQByfjHT7i8uLH7Okkrsk0QjBAUZT7xJ6VhpaRXHlXuJVjuNYRI8yuCVVcZ6+oPPWvSKaUQ4yqnByOOhrCVBSk5Gbppu5ymp28smvQ2ul3TLPJKsly0a5MUajoz5zycYWjSdZs4rq5m1AxreiWaN5kUJ+7jxy4z19DXWBFUkqoBY5JA60wwQlmYxJlup2jmn7Jp3THyO90cbBbRQaFqeqXcslrdXZluYU+0NEQMfL8oYZPAP41PI8y6ZoHmwSzXPl+bLcFS0kahMtg/3jkcHr6V1jwxSkGSNHI6blBxT6FRt1FyHnlhd3hf+15F1KR7iXynEa/PDAD8ufkwTk5PQ16Ev3RyTx3paKqnT5Otyox5QooorQo5bxX/yG/Cv/YS/9pPXU1y3iv8A5DfhX/sJf+0nrqaAOS+I3/IrR/8AYRs//ShK62sbxToUniLQ2sIrsWsvnRTJMY/MCsjhxlcjPK+tZf8AY3jb/obrL/wUD/45TEdbRXJf2N42/wChvsv/AAUD/wCOUf2N42/6G+y/8FA/+OUgOtorkv7G8bf9DfZf+Cgf/HKyoj41k8U3Oif8JPZAw2cd1539ljnczLtxv7bc5z3oGehUVyX9jeNv+hvsv/BQP/jlH9jeNv8Aob7L/wAFA/8AjlAjrabJ/qn/AN01yn9jeNv+hvsv/BQP/jlB0XxsQR/wl1lz/wBQgf8AxygY74af8k30L/r2H8zXV1l+G9GHh7w5YaQs5nFrEI/MK7d3vjtWpQAUUUUAFFFFABRRRQAUUUUAFFFFABRRRQAUUUUAVdT/AOQTef8AXB//AEE1Q8Jf8ido3/XlF/6AK1LmEXNrNATtEiMmfTIxXIWXhrxhp9jb2dv4tsxDBGscYOkgkKBgZPmUCO0orkv7G8bf9DfZf+Cgf/HKP7G8bf8AQ32X/goH/wAcoA62iuS/sbxt/wBDfZf+Cgf/AByj+xvG3/Q32X/goH/xygDraK5L+xvG3/Q32X/goH/xyj+xvG3/AEN9l/4KB/8AHKAOtorkv7G8bf8AQ32X/goH/wAco/sbxt/0N9l/4KB/8coA62iuS/sbxt/0N9l/4KB/8co/sbxt/wBDfZf+Cgf/ABygDraK5L+xvG3/AEN9l/4KB/8AHKP7G8bf9DfZf+Cgf/HKAOtorkv7G8bf9DfZf+Cgf/HKP7G8bf8AQ32X/goH/wAcoA62iuS/sbxt/wBDfZf+Cgf/AByj+xvG3/Q32X/goH/xygDraK5L+xvG3/Q32X/goH/xyj+xvG3/AEN9l/4KB/8AHKAOtorj5tK8bQwSS/8ACW2R2KWx/ZI5wP8ArpXlOk/FXxlqmrWNiL+0i+1Txw7/ALIDt3MBnGecZoA+hqK5L+xvG3/Q32X/AIKB/wDHKP7G8bf9DfZf+Cgf/HKBnW0VyX9jeNv+hvsv/BQP/jlH9jeNv+hvsv8AwUD/AOOUCOtorkv7G8bf9DfZf+Cgf/HKP7G8bf8AQ32X/goH/wAcoA62iuS/sbxt/wBDfZf+Cgf/AByj+xvG3/Q32X/goH/xygDraK5L+xvG3/Q32X/goH/xyj+xvG3/AEN9l/4KB/8AHKAOtorkv7G8bf8AQ32X/goH/wAco/sbxt/0N9l/4KB/8coA62iuS/sbxt/0N9l/4KB/8co/sbxt/wBDfZf+Cgf/ABygDraK5L+xvG3/AEN9l/4KB/8AHKP7G8bf9DfZf+Cgf/HKAOtorkv7G8bf9DfZf+Cgf/HKP7G8bf8AQ32X/goH/wAcoA62uW+If/Inzf8AXzbf+j0qP+xvG3/Q32X/AIKB/wDHKr3nhTxPqsC2mp+KbaazMsckkcemBGYI4bAbeccj0pgdrRRRSGFFFFABRRRQAUUUUAFFFFABRRRQAUUUUAFFFFAHJ+O/9V4e/wCw7Z/+hGusrE8UaFNr9hbRW16LO5tbuO7hmaLzAHQ5GVyMj8azf7G8bf8AQ32X/goH/wAcpiOtorkv7G8bf9DfZf8AgoH/AMco/sbxt/0N9l/4KB/8cpAdbRXJf2N42/6G+y/8FA/+OUf2N42/6G+y/wDBQP8A45QB1tFcl/Y3jb/ob7L/AMFA/wDjlH9jeNv+hvsv/BQP/jlAHW0VyX9jeNv+hvsv/BQP/jlH9jeNv+hvsv8AwUD/AOOUAdbRXJf2N42/6G+y/wDBQP8A45R/Y3jb/ob7L/wUD/45QB1tFcl/Y3jb/ob7L/wUD/45R/Y3jb/ob7L/AMFA/wDjlAEniv8A5DfhX/sJf+0nrqa5CPwx4gudX0271jxHb3cFjMZ1hi08RFm2lR8288c+ldfQMKKKKACiiigArlLX/kquo/8AYHt//RsldXXKWv8AyVXUf+wPb/8Ao2SgDq6KKKACiiigAooooAKKKKACiiigAooooAKKKKACiiigAooooAKKKKACiiigAooooAKKKKACiiigAooooAKKKKACiiigAooooAKKKKACiiigCC9/48Ln/rk38jXyd4S/5G3Qv+v+3/8ARi19Y3v/AB4XP/XJv5Gvk7wl/wAjboX/AF/2/wD6MWgD64ooooAKKKKACiiigAooooAKKKKACiiigAooooAKKKKACiiigAooooAKKKKACiiigAooooAKKKKACiiigAooooAKKKKACiiigAooooAKKKKACiiigAooooAKKKKACiiigAooooAKKKKACiiigAooooAK5S1/5KrqP/YHt/8A0bJXV1ylr/yVXUf+wPb/APo2SgDq6KKKACiiigAooooAKKKKACiiigAooooAKKKKACiiigAooooAKKKKACiiigAooooAKKKKACiiigAooooAKKKKACiiigAooooAKKKKACiiigCC9/48Ln/rk38jXyd4S/5G3Qv+v+3/APRi19Y3v/Hhc/8AXJv5Gvk7wl/yNuhf9f8Ab/8AoxaAPriiiigAooooAKKKKACiiigAooooAKKKKACiiigAooooAKKKKACiiigAooooAKKKKACiiigAooooAKKKKACiiigAooooAKKKKACiiigAooooAKKKKACiiigAooooAKKKKACiiigAooooAKKKKACiiigArlLX/kquo/8AYHt//RsldXXFWep6e/xTvmS+tmD6XbxIRMp3P5snyjnk8jj3oA7WiiigAooooAKKKKACiiigAooooAKKKKACiiigAooooAKKKKACiiigAooooAKKKKACiiigAooooAKKKKACiiigAooooAKKKKACiiigAooooAgvf+PC5/65N/I18neEv+Rt0L/r/t//AEYtfQnxE8X3XhHTYJo9MW8trktC7mYoY2I4/hOc8/lXzhpV6dL1axvhH5htZ45thON21gcZ7ZxQB9h0VheD/EE3ijw3b6tNZfYzMzbY9+/5QcA5wOuPSt2gAooooAKKKKACiiigAooooAKKKKACiiigAooooAKKKKACiiigAooooAKKKKACiiigAooooAKKKKACiiigAooooAKKKKACiiigAooooAKKKKACiiigAooooAKKKKACiiigAooooAKK5b4g3d1Z+FS9nczW0sl3bQmWFtrhXmRWwe3BNP8A+EMH/Qx+Iv8AwP8A/rUAdNRXM/8ACGD/AKGPxF/4Hf8A1qP+EMH/AEMfiL/wO/8ArUAdNXjXh/waLT433/7oC0swb2IY4/efdA+hLfitd/8A8IYP+hj8Rf8Agd/9aox4GhWd5xr+viV1Cs4veSBnAJ29Bk/nQB1VFcz/AMIYP+hj8Rf+B3/1qP8AhDB/0MfiL/wO/wDrUAdNRXM/8IYP+hj8Rf8Agd/9akbwcFUn/hI/EXA/5/8A/wCxoA6eiuc8A3tzqPgXSLu8nee4lgy8jnLMcnk10dABRRWdPdXkl7c2VmkSyxQxSrLMCUbezgjAx02evegDRoqgo1fzLffJY7Mfv8I+Sc/w88cY61Ht1zyZP3mnebuGw+W+3bznPPXpQBp0VQQat58HmPZeTtHnBUfcW5zt5wB061Ht137Mf3mnefv4Plvt24+uc5oA06KoKNW+0rvey8jZ8wCPu3Y7c4xn9KjK659lXEmnfaN53Hy32bccYGc5zQBp0VQA1f7Q+XsvI2HaNj7t2OM84xn9KYV1zyIsSaf524+YfLfbt7Y5znrQBpUVn7dY86f95Y+VtPkjY+4Htu56euKTbrPl2/7yw35Pn/I+CM8beeOPWgDRorO261vn/eWG3B8n5HyOeN3PPHp3pVGr7rbdJY4H/HxhH55/g5449c80AaFFZgXXNk2ZNP3Z/dfu3wBn+Ln09KkQat5tvvey8vb+/ARsk8/d54HTrQBforMC675D5k07ztw2kRvt285z83XpUqjVftEO97Pydn70BG3F8H7vOMZx1oAvUVl7de+zf63TfP39fLfbtx/vZzmpQNW+0DL2Xk+XyAj7t+PrjGf0oAv0VmFdd+zJiTTvP3HcTG+3b2x82c9akxq3nyfPZeTsPljY+7fjjPOMZoAv0Vmsut+RDtk0/wA7J80mN9pHbbz9c5p+NX824/eWPl7T5HyPkN23c8jr0oAv0VnbdZ22+JLDdz5/yPg88beeOPXvQF1rM+ZLDp+5/dvwc/xc88enegDRorPUavvt90ljtx+/wj5Jz/Dzxx60xV1zy5d0mnb+PKxG+Bzzu59PSgDToqio1Xzrfc9n5WweeAjbi3OdvPA6dfeoQuu+Q+6XTvO3DaRG+3HOc/NnPSgDUoqiBqvnx5ez8ny/nARt2/HbnG3OPfFQ7de+z/63TfP3dfLfbtx/vZzmgDUoqjjVfPPz2Xk+XwNjbt+PrjGfxxULLr32dNsum+duO4mN9uOMY+bOetAGZ8QdF/t7wRqVqqbp0j8+HjJ3pyMfUZH418u21vJeXMNtApaWZ1jRR3YnAH619dMmqNLOC1kYDGRECjbt2ON3OCOvSvF/Dvw81yy+JjyNZIlpZytPHcSRN5D/AN0Lz7+vGKAPatH02LR9Gs9Nhx5dtCsYIGM4HJ/E81drPI1fzLjEljs2nyPkfIOeN3PIxnpSFdZxb4ksM/8ALf5H55/h5449e9AGjRWcF1nFxmSwz/yw+R+Of4ueePTvTgNX8y3zJY7No8/5HyTnnbzwMY60AX6KzFXXPJl3Sad5uR5ZEb7R655+nSpQNV8+HL2Xk7B5o2NuL45289M460AXqKy1XXvs77pdN87cNpEb7cc5z82c9Kmxqvnj57LyfL5Gxt2/H1xjP44oAvUVl7de+z/63TfP3dfLfbtx/vZzmpiNV8+TD2fk+X8gKNu3478425z74oAvUVlsuu+Qm2TTvO3HcTG+3HGMfNnPWpmGq+dcbXs/K2HyAUbcG4xu55HXp7UAXqKzGXXPLi2yadv583Mb4PPG3n09aeRq++42yWO3H7jKPkHP8XPPHpQBoUVnFdazBiSwxj9/8j8nP8PPHHr3oC6zsuMyWG7jyPkfA553c88enegDRoqhjV/Nt/3lj5e0ef8AI+S3fbzwOnWmKut+RLuk0/zsjyiI32gd93P0xigDSoqhjVvPj+ey8nYPMGx92/HOOemaiC679mbMmnefuG0iN9u3vn5s56UAalFUCNW+0HD2Xk+XwCj7t+PrjGf0qLbr32b/AFum+fv6+W+3bj/eznNAGpRVFhqv2ibY9n5Pl/ugUbcHwPvc4xnPSoiuu+QmJNO83cd5Mb7ccYx83XrQBp0VQcat5txsey8vb+4BRsg8fe55HXpTCuubIcSafuz+9/dvg8/w8+nrQBpUVnsNXzc7ZLHB/wCPfKPxz/Hzzx6Y5pNutb4P3lhtwPO+R8k55288cevegDRorO26z5dx+8sN+R5HyPgDPO7nnj0pcax50H7yx8ravnDY+4nvt56emaANCis0LrnkS5k0/wA7cPLIjfbt755znpTyNX+0Jh7LyNg3DY+7djnHOMZ/SgC/RWPcS63baXPO76eZosuMRvt2BSSPvZzmtK0m+02cE+MeZGr4+ozQBNRRRQAUVy3jqe6jsNKgtrue1+16rbW0slu+19jsQQD2p/8Awhg/6GPxF/4H/wD1qAOmormf+EMH/Qx+Iv8AwP8A/rUf8IYP+hj8Rf8Agf8A/WoA6aiuZ/4Qwf8AQx+Iv/A//wCtR/whg/6GPxF/4H//AFqAOmormf8AhDB/0MfiL/wP/wDrUf8ACGD/AKGPxF/4H/8A1qAOmormf+EMH/Qx+Iv/AAP/APrUf8IYP+hj8Rf+B/8A9agDpqK5n/hDB/0MfiL/AMD/AP61H/CGD/oY/EX/AIH/AP1qAOmormf+EMH/AEMfiL/wP/8ArUf8IYP+hj8Rf+B//wBagDpqK4a+0248P694fa31vV7hLq9MMsd1deYjL5bHpj1AruaAOR+JP/Ipp/2ELP8A9KI666uR+JP/ACKaf9hCz/8ASiOuuoAKKKKACiiigAooooAKbJ/q2+hp1Nk/1bfQ0Acv8Nf+Sc6J/wBe/wD7Ma6quV+Gv/JOdE/69/8A2Y11VDBBVGJmOvXa/adyi1gIt+fkO6X5vT5sAf8AAPpV6s+Ef8VFeH7OV/0SD99zh/nm+X046+vzfSgDQooooAKKKKACiiigAooooAKKKKACiiigAooooAKKKKACiiigAooooAKKKKACiiigAooooAKKKKACiiigAooooAKKKKACiiigAooooAKKKKACiiigAooooAKKKKACiiigAooooAKKKKACiiigAooooAKKKKACiiigAooooAKKKKACiiigCC8LixuDGyI/lttZ8bQcdTntS2ZY2NuXZGfy13MmNpOOox2pmpFRpd2XUsghfcAcEjae9GnFTploUUqhhTaCckDaO9AFmiiigDk/Hf8AqvD3/Yds/wD0I11lcn47/wBV4e/7Dtn/AOhGusoAKKKKACiiigAooooAKKKKACiiigAooooA5bxX/wAhvwr/ANhL/wBpPXU1y3iv/kN+Ff8AsJf+0nrqaAOR+JP/ACKaf9hCz/8ASiOuurkfiT/yKaf9hCz/APSiOuuoAKKKKACiiigAooooAKbJ/q2+hp1Nk/1bfQ0Acv8ADX/knOif9e//ALMa6quV+Gv/ACTnRP8Ar3/9mNdVQwQVQiI/t+7X7SzEWsB+zkHCfNL8wPTLdPX5BntV+qEQf+37wm3Cxm1gAm2n5zvlyuenHB/4F7igC/WR4o1C40rwvqV9aFBcQQM8ZddwDdsjvWvXP+Of+RH1j/r2agDPTS/HTorf8JVpnIB/5BJ/+OU7+yfHX/Q1aZ/4KT/8drq4f9RH/uj+VPp3Ecj/AGT46/6GrTP/AAUn/wCO0f2T46/6GrTP/BSf/jtddRRcdjkf7J8df9DVpn/gpP8A8do/snx1/wBDVpn/AIKT/wDHa66ii4WOR/snx1/0NWmf+Ck//HaP7J8df9DVpn/gpP8A8drrqKLhY5H+yfHX/Q1aZ/4KT/8AHaP7J8df9DVpn/gpP/x2uuoouFjkf7J8df8AQ1aZ/wCCk/8Ax2j+yfHX/Q1aZ/4KT/8AHa66ii4WOR/snx1/0NWmf+Ck/wDx2j+yfHX/AENWmf8AgpP/AMdrrqKLhY5H+yfHX/Q1aZ/4KT/8do/snx1/0NWmf+Ck/wDx2uuoouFjkf7J8df9DVpn/gpP/wAdo/snx1/0NWmf+Ck//Ha66ii4WOR/snx1/wBDVpn/AIKT/wDHaP7J8df9DVpn/gpP/wAdrrqKLhY5H+yfHX/Q1aZ/4KT/APHaP7J8df8AQ1aZ/wCCk/8Ax2uuoouFjkf7J8df9DVpn/gpP/x2j+yfHX/Q1aZ/4KT/APHa66ii4WOR/snx1/0NWmf+Ck//AB2j+yfHX/Q1aZ/4KT/8drrqKLhY5H+yfHX/AENWmf8AgpP/AMdqvf2fjqx065uz4o0x/IiaTb/ZRGdoJx/rPau2rO1//kXNT/69Jf8A0A0CF0O8l1HQNPvZ9vmz20cj7RgZKgnFaFZHhT/kUdH/AOvKL/0AVr0hhRRRQAVz3jjVr3RPClzfae8aXSyQxo0iblG+VEJI78Ma6GuR+Jn/ACI1z/182v8A6UR0IGH9k+Ov+hq0z/wUn/47R/ZPjr/oatM/8FJ/+O111FO4WOR/snx1/wBDVpn/AIKT/wDHaP7J8df9DVpn/gpP/wAdrrqKLhY5H+yfHX/Q1aZ/4KT/APHaP7J8df8AQ1aZ/wCCk/8Ax2uuoouFjkf7J8df9DVpn/gpP/x2j+yfHX/Q1aZ/4KT/APHa66ii4WOR/snx1/0NWmf+Ck//AB2j+yfHX/Q1aZ/4KT/8drrqKLhY5H+yfHX/AENWmf8AgpP/AMdo/snx1/0NWmf+Ck//AB2uuoouFjkf7J8df9DVpn/gpP8A8do/snx1/wBDVpn/AIKT/wDHa66ii4WOR/snx1/0NWmf+Ck//HaP7J8df9DVpn/gpP8A8drrqKLhY5H+yfHX/Q1aZ/4KT/8AHaP7J8df9DVpn/gpP/x2uuoouFjkf7J8df8AQ1aZ/wCCk/8Ax2j+yfHX/Q1aZ/4KT/8AHa66ii4WOR/snx1/0NWmf+Ck/wDx2j+yfHX/AENWmf8AgpP/AMdrrqKLhY5H+yfHX/Q1aZ/4KT/8do/snx1/0NWmf+Ck/wDx2uuoouFjkf7J8df9DVpn/gpP/wAdo/snx1/0NWmf+Ck//Ha66ii4WOR/snx1/wBDVpn/AIKT/wDHaoa0njnRdDvtTbxLpsy2kDzGMaWV37RnGfMOOld7WB45/wCRD17/AK8Jv/QDQI2bOVp7K3mfG6SNWOPUjNTVV03/AJBVn/1wT/0EVapDIL0sLG4KSLEwibEjHhTjqfpRZljY25eRZWMa5dejHHUfWm6iQNMuyybwIXymcbvlPFGnkHTbUqmwGFMJnO3gcUAWaKKKAOT8d/6rw9/2HbP/ANCNdZXJ+O/9V4e/7Dtn/wChGusoAKKKKACiiigAooooAKKKKACiiigAooooA5bxX/yG/Cv/AGEv/aT11Nct4r/5DfhX/sJf+0nrqaAOR+JP/Ipp/wBhCz/9KI666uR+JP8AyKaf9hCz/wDSiOuuoA4bW7vUY9Z1qO2lKy/Y4jCkMjF/v9QuOuM5xVnTbi/bX41Rrk2/2ZywZ5mXfxjJkUYP0pdT0PUrjUtSmsbS1jFysUYebaQSGJZ8AH6c81Fpnh+7iN8k2npC1w0vlsqwlEDLgfMPnA9hXrc1J0t1e36I5rS5iI6jqa6n4cGoW92Loed5yqqgSHbxgA4OOKmvdQ1U6Ta2eo7oZL2WdHcACREUFlK7TjOAKmt9B1eBtEOyxb+zEZP+Ph/3mVx/zz4/Wq1t4c1JpoDcQoi/2jcTybJQ21HTAI9efajmpXT00v8AnK1vw/ALS8/6sVNQ1iQ6O0kT6jBdNZrcxSm54YbguSoOATnpUmqXWppr0ix3syxtIrpEDIMxqo3gY4/HB+oq3qXhVl0/7FYxXVxKbdbdbiaddiJuBPHXt2FLN4X1GXXLnVY5og5dlihkYhcbAofIz3H3SMGqjUob3XX9Len/AA4nGZB4Z1Wa51lI5ZZpFnDSIpuZGEI2qQpBGG+9nNdtJ/q2+hrldD8N3+l6jDcO8GCGNyRLu3sRwVXyxs7DAPSuqk/1bfQ1xYxwdS8NrG1JNR1PNfAnjrwzpfgfSbK91aKG5hh2yRlHJU5PoK6L/hZPhD/oNw/9+3/+Jo+Gv/JOdE/69/8A2Y11VcjNEeb3Xxn8P2etSWjRzTWYClLyAZByOcqcHg8V0nh3xFo3iPVr260nUTc4toFeLYVCYaU557ndg8cYHPNPvPA/h7Uddk1i+09Lq7cKMzEso2jAwvSr1nbi11i5ihtYYLRbWARmOML82+XcvHYDacf7R9aANOuf8c/8iPrH/Xs1dBXP+Of+RH1j/r2agDdh/wBRH/uj+VPpkP8AqI/90fyp9ABRRRQAUUUUAFFFFAGFP4ilj1q802PTZJTawCd5RKgBU5wOec/KaztN8dxX53yaZcW8AsP7QMjSI2IuewOc8HiuS8Rw/YfGOr6jcNMyQ4le5jQIYUNu6rHv92IGO+aueFtBaDXrWyuLi5Df8I/F5iNJlQWYgqR/dGelAHSt4ydrm2MOjXb2UiBpZmaNGj3f6v5S3O78Pxq9D4nguLOa4gsL+TyJmgmjEah42UZOctjv61wzXN/p1tr8tkdLudG063WN4zaMYriXPzDJkJLAYBOSO2OKv6+bDT/CjQ6RbxySxX0UUkM0ZlUNLtJGGBDcEYJDYoA2YfHltPDFJFpl64exF8SuzEaEkfMc8YwfWnXnjiC31NbK3sLm5LW0dyHjBI2vnHQE9u4rh9Rt76zisPO04x26yRWeHjZV8pnAKHESZHPQmtbxxpKy6pMn2eK4tBZNLKNyNLGq5yFXehVcdMHr0oA6fSfGEeqarPpx065hmitvtHzDG5c4wAQDn9KitfG8M1vPczadcwwx3f2FYyVaZ5s4A2g4A9ya5zwfZLDJdSNaRi1SxWRIE2eZMpGdrxhnLLgjknrXP6XpbaVZyX9zPAqpr6RSxpaqChDgnaw5284289BQB6DqPj6xsdJmv0srmUwXLW0sDtHFIrKMtgMw3Y46ZPNYMHxbDXCJPoMiJO37hkvoDlcZy+WAQ+xqo90t3omuR2l+1vLc67I8TjzFLqgV2HyqSPlB6islb9p5Mpq32cRSxzCRb2SUyxjDthUjz04IbHPBoA9L1PxXFZSXVvbWr3V1FYfb4kVgFmTOCFPOSOtT6X4kt9V1WWwggmVorWK5d3XAHmchfXdjmsLxnciO60bVdIYXGsQPugs0zuuYXGGU/wB0dDuPAxU3gG7trq2vppnZNcnnaXULeYbZIm6Ku087AMAHoaAOxooooAKKKKACiiigArO1/wD5FzU/+vSX/wBANaNZ2v8A/Iuan/16S/8AoBoAh8Kf8ijo/wD15Rf+gCtesjwp/wAijo//AF5Rf+gCtegAooooAK5H4mf8iNc/9fNr/wClEdddXI/Ez/kRrn/r5tf/AEojoQM66iiigAooooAKKKKACiiigDjZviBBE10TptwIbe5a2MrH5WcHHYHGSRjPNW7PxpbS3l1BfWc9itta/a3kl6BN2OmN36V57fXFvJper2S3Nwt0NbeTyo5Aq7RIpJOT1ABIpI72e+h197q48+4XQHV337if3pwT6cY4oA9CbxvY/wBuW9ikNy9vLbNOZhazZGCAAF2ZIOevSptS8W2tvo9lqOno19Hd3CwxiNWyQSQzYClvlAJxjtWHBoviGe4h8Q28sUFzFFHbwWUj5jktuN29gOGY/MMdMAc1j2RubbwXo19ZXSjUg80NjaNHvEsjykMeoP3f4uwyaAOz0vxhY6v4hfTbR4ni+zLPFLvIaQ7irKEIB4xSXHiuS3l1kf2VK8elJvlcTJ83G7AGeu3muUsvB8J8VrpwuHgutO061khu4wNyyB23H3Dcgj3rF1q1ey1DxJNM00jvJPD9qRBH5jyiPy4s9/THoO1AHe23jmGSO/mu9OuLaCxto7mV96v8sgyoAB5OKlbxbMNTSEaJefZCu1pS8YdZTyqbN3cc9c+1YGg6Ao17xBp011OwWwtYmEr7l5jPUdwMcVni8v7fS9YuI10y70KO4htYoTasI5iWCu6HeTnLfeJbJHFAHZp40sJFtDHa3zfap3t4wIRkSITuU88Y2n8qoQeP4pra0uv7NkENzMkS/wCkRmRd7lAzJnIGQazNSh01dR8P2ulzXfl2WoSpLHCWLIdrZY8ZPJA3H161yOmwGLUXs5Z4BbWpt5Rf5bynWK4JcJ8uTzIBnpkGgD1GDxZBdeJV0mCIlRHMZJXO0o8bBSuMdDnOc0nhnxNca+EaXS3t4niMiTCQOhIdlK9AQeAfxrg7+eO28dalfahoqQW0lnOYIrhhJ9qkDKobYeBuIXA/Gup8AaTb6Ak+jz28K6nbqshmEah5I3AP3gOQGyv4CgDtqKKKACiiigAooooAKwPHP/Ih69/14Tf+gGt+sDxz/wAiHr3/AF4Tf+gGgDV03/kFWf8A1wT/ANBFWqq6b/yCrP8A64J/6CKtUAV74kafckS+UfKbEn9zg8/hRZH/AIl9uWlEn7pcyf3uBzz60X+f7OusRiU+U/7sj73B449a4DxH8O77xNYRSQeIr61DRKfsMx3QL8o+XAwQPruoA9DhnhuY/MgljlTJG6NgwyDgjIqSuI8J+Cb7R/DlvYXes3sU0RYFbSYeXyxIxlc1tf8ACOTf9DBrH/f5P/iaAKHjv/VeHv8AsO2f/oRrrK4DxXpEtjJ4elfVtQugdbtF8u4dSv3jzwo5rv6ACqep6iul2T3clvcTRxglxAm5lAGScZHHFXKgvJbaCzmkvJI47cKfMaRgFA6ck0Acqnj0KUubjR75NNumiSwuUUMbhnHTZnK+39K0dT8VJpbWiy6TqLfaZUiXaicM3bluvFcLozy6bqGjx6zFJH4as55Tpl66lVZmOI/MB5QAEhSeDxU3i+JpvGbmJEfzTbQsTYi5+Vg54z0PH40Ads3idRrdtpY0678yaJZWYhf3QLFRuAJ7j9aoSeNmi0m41E6POYIbv7IcTISz79mRz03Vx/g+O2fxLp86W9ssP2AWYn8pSUuuXGOPvbQf5VlW2nN9khsD9oWa+vIbdZUAj+0ulw7SP/tbVA57GgD0u38ZxNa3M9zp1zD5N6LAIpWRnm6YGD06cmkj8Xy/bLhZ9FvEtVGYJVeNmk2j95ld2Rt/H8KwtE0mCfSfEYuL0iOPVpWL3blo12kHccFTn1IIqnZzX11p2mpqkFjPpep6k0VtF9maJ4Itp2vGQ3yjC5AxnnrQB3EXiS0kjtbgxzR2F1b+el5IAI1HXDnPyHHrx71FpXjDR9X1C7soLy3EsE3koDOh8/5QcoAeRz+hrmNR17S9PlhvtOeaG2h0oyy3cQOfLDBY12EbWJII5HFUvCmp3FrqVmb3ULg3GtP9pnaCBGhWTACxkhTglAMkHGc0AepUUUUAct4r/wCQ34V/7CX/ALSeuprlvFf/ACG/Cv8A2Ev/AGk9dTQByPxJ/wCRTT/sIWf/AKUR111cj8Sf+RTT/sIWf/pRHXXUAFFFFABRRRQAUUUUAFNk/wBW30NOpsn+rb6GgDl/hr/yTnRP+vf/ANmNdVXK/DX/AJJzon/Xv/7Ma6qhggrOh8n/AISS92tJ5/2O33qQNoXfNtI75zuz9BWjVGIzf27dhinkC2hKY27t26XdnvjG3GeOuO9AF6uf8c/8iPrH/Xs1dBXP+Of+RH1j/r2agDdh/wBRH/uj+VPpkP8AqI/90fyp9ABRRRQAUUUUAFFFFAEcsEU8bRyxJIjfeV1BB+opj2VrJM8z20LSvH5TuUBZk/uk9x7VPRQBALK1Fl9iFtD9l2bPI8sbNvpt6Y9qhi0fTIbUW0WnWiW6yCURLCoUOOQ2MYz71dooApzaTptzeJeT2FrLdR4KTPCrOuOmCRkUTaTp1xHNHNYWsiTtvlV4lIkb1YEcn61cooAh+y2++J/Ii3QjEZ2DKDGOPTipdi/3R1z070tFACbVznaPypqwxISVjRSe4UCn0UAQRWdrBPLPDbQxzTHMsiIAzn3Peh7K0ku47uS2ha5iBEczIC6A9QD1FT0UAFFFFABRRRQAUUUUAFZ2v/8AIuan/wBekv8A6Aa0aztf/wCRc1P/AK9Jf/QDQBD4U/5FHR/+vKL/ANAFa9ZHhT/kUdH/AOvKL/0AVr0AFFFFABXI/Ez/AJEa5/6+bX/0ojrrq5H4mf8AIjXP/Xza/wDpRHQgZ11FFFABRRRQAUUUUAFFFFAFaLT7KEuYrO3j8xy77YwNzHqTxyfemvpenyPK8ljbM0sflSFolJdP7p45HtVuigCvcWFpeWv2W5tYZrfj91JGGXjpweKSLT7KBoWitII2gQxxFIwDGp6qvoOBwKs0UARC1t1umulgjFw6hGlCDcVHQE9cUskEMyhZYkcBg2GUHkdD9RUlFAFZ9PspWuGktIGNyoWctGD5qjoG9R9adLZWk9mbOW2hktSu0wtGCmPTb0xU9FAFWHTbG3szaQ2dvHbEFTCkQCEHqMAY5pk2j6ZcfZ/O060k+z4EO+FT5WOm3jjoOlXaKAK02n2VzcxXM9pBLPF/q5XjDMnfgnkVI1tA1yly0MZnRSiylRuVT1APXHAqWigAooooAKKKKACiiigArA8c/wDIh69/14Tf+gGt+sDxx/yIevf9eE3/AKAaANXTf+QVZ/8AXBP/AEEVaqrpv/IKs/8Argn/AKCKtUAV78A6ddBpPLHkvl8E7eDzx6UWAA062CyeYPKTD4I3cDnn1pb3d9guNkayN5TYRhkMcHgiiy3fYLffGsbeUuUUYCnA4AoAnooooA5Px3/qvD3/AGHbP/0I11lcn47/ANV4e/7Dtn/6Ea6ygAqG4s7a78v7TbxTeW4dPMQNtYdCM9D71NRQAyWKOaJopUWSNxhkYZBHoRVJ9C0iSDyH0uyaHCjy2gUrhc7eMdsnHpmtCigCtHp9lDCsMVnbpGrB1RYwAGHQgY6jAqVoIXdHaJC0ZJRioypPXHpUlFAFRtL094niaxtjHJL5zoYlw0nXcRjluOtPvNPs9QgEF7aQXMQIYJNGHUEd8GrFFAEcdvDDCsMUMaRIoVUVQFCjoAPSnhVVQqqAB0AHSlooAKKKKAOW8V/8hvwr/wBhL/2k9dTXLeK/+Q34V/7CX/tJ66mgDkfiT/yKaf8AYQs//SiOuurkfiT/AMimn/YQs/8A0ojrrqACiiigAooooAKKKKACmyf6tvoadTZP9W30NAHL/DX/AJJzon/Xv/7Ma6quV+Gv/JOdE/69/wD2Y11VDBBWdD5H/CSXu0SfaPslvvzjZt3zbcd853Z/D3rRqjE8x1y6RplMAtoSkWRlWLS7mI64ICj/AICaAL1VtQsLfVNPuLG7TfbzoY5FBIyD7jpVmigDlP8AhXmhgY8zVP8AwZz/APxdL/wrzQ/+emqf+DOf/wCLrqqKLhY5X/hXmh/89NU/8Gc//wAXR/wrzQ/+emqf+DOf/wCLrqqKLhY5X/hXmh/89NU/8Gc//wAXR/wrzQ/+emqf+DOf/wCLrqqKLhY5X/hXmh/89NU/8Gc//wAXR/wrzQ/+emqf+DOf/wCLrqqKLhY5X/hXmh/89NU/8Gc//wAXR/wrzQ/+emqf+DOf/wCLrqqKLhY5X/hXmh/89NU/8Gc//wAXR/wrzQ/+emqf+DOf/wCLrqqKLhY5X/hXmh/89NU/8Gc//wAXR/wrzQ/+emqf+DOf/wCLrqqKLhY5X/hXmh/89NU/8Gc//wAXR/wrzQ/+emqf+DOf/wCLrqqKLhY5X/hXmh/89NU/8Gc//wAXR/wrzQ/+emqf+DOf/wCLrqqKLhY5X/hXmh/89NU/8Gc//wAXR/wrzQ/+emqf+DOf/wCLrqqKLhY5X/hXmh/89NU/8Gc//wAXR/wrzQ/+emqf+DOf/wCLrqqKLhY5X/hXmh/89NU/8Gc//wAXR/wrzQ/+emqf+DOf/wCLrqqKLhY5X/hXmh/89NU/8Gc//wAXR/wrzQ/+emqf+DOf/wCLrqqKLhY5X/hXmh/89NU/8Gc//wAXTX+HWgyIyO2psrDBU6lOQR/33XWUUXCxDa20NlaQ2tumyGFBGi+igYAqaiigAooooAKo6vpFlrumS6dqERktpdpZQxU5UhgQRyMEA1eooA5X/hXuh/8APTVf/BnP/wDF0f8ACvND/wCemqf+DOf/AOLrqqKLhY5X/hXmh/8APTVP/BnP/wDF0f8ACvND/wCemqf+DOf/AOLrqqKLhY5X/hXmh/8APTVP/BnP/wDF0f8ACvND/wCemqf+DOf/AOLrqqKLhY5X/hXmh/8APTVP/BnP/wDF0f8ACvND/wCemqf+DOf/AOLrqqKLhY5X/hXmh/8APTVP/BnP/wDF0f8ACvND/wCemqf+DOf/AOLrqqKLhY5X/hXmh/8APTVP/BnP/wDF0f8ACvND/wCemqf+DOf/AOLrqqKLhY5X/hXmh/8APTVP/BnP/wDF0f8ACvND/wCemqf+DOf/AOLrqqKLhY5X/hXmh/8APTVP/BnP/wDF0f8ACvND/wCemqf+DOf/AOLrqqKLhY5X/hXmh/8APTVP/BnP/wDF0f8ACvND/wCemqf+DOf/AOLrqqKLhY5X/hXmh/8APTVP/BnP/wDF0f8ACvND/wCemqf+DOf/AOLrqqKLhY5X/hXmh/8APTVP/BnP/wDF0f8ACvND/wCemqf+DOf/AOLrqqKLhY5X/hXmh/8APTVP/BnP/wDF0f8ACvND/wCemqf+DOf/AOLrqqKLhY5X/hXmh/8APTVP/BnP/wDF0f8ACvND/wCemqf+DOf/AOLrqqKLhY5X/hXmh/8APTVP/BnP/wDF01/hz4flRo5f7SkjYYZH1GdlYehBfkV1lFFwsNjjWKNY0UKiAKoHYCnUUUAVtRCHTLsSMUQwvuYDJA2nJx3o08INNtRGxdBCm1iMEjA5xTr3d9guNiqz+U20PjBOD1z2ost32C33qqv5S7gmMA47Y7UAT0UUUAcn47/1Xh7/ALDtn/6Ea6yuT8d/6rw9/wBh2z/9CNdZQAUUUUAFFFFABRRRQAUUUUAFFFFABRRRQBy3iv8A5DfhX/sJf+0nrqa5bxX/AMhvwr/2Ev8A2k9dTQBz3jXSL3W/DjWmnLE1ytzBOqyvtVvLlVyM4OOFqD+0fGn/AEANL/8ABg3/AMRXUUUAct/aPjX/AKAGl/8Agwb/AOIo/tHxr/0ANL/8GDf/ABFdTRQBy39o+Nf+gBpf/gwb/wCIqinibxXJrk2kLoGnfaordLhs3527GYqOdnXKmu3rlLX/AJKrqP8A2B7f/wBGyUAO/tHxr/0ANL/8GDf/ABFH9o+Nf+gBpf8A4MG/+IrqaKAOW/tHxr/0ANL/APBg3/xFDX/jQqR/YGl8j/oIN/8AEV1NFAGH4N0m50LwhpmmXnl/abeLZJ5bZXOSeD+NblFFABWdD5X/AAkd7iNxL9kt9zk/KV3zYAHqPmz9RWjUFzaQ3abJgzLkHAYj+VAE9FVRp1sJVl2NvVPLB3t93GPX0qL+x7LyfJ8t9m7djzW6/XNAF+iqp062MrS7G3smwne3TGPX0qM6PZNCsRjfYpJA81u/Xv7UAXqKqHTbUyyybG3SqVf525B/HjpTTpNmyRIY32xZ2/vG4yc+vNAF2iqf9l2m6ZtjZmGH/eNzzn14/Cj+y7TMJ2P+5+5+8bjnPrz+NAFyiqQ0qzCyqI3xL9/943POfXinDTbUSQyBG3QqFT943AH489e9AFuiqK6PZLE8Yjfa5BYea3bp396kGnWwljlCNvjTYp3t0xj1oAtUVQGj2QhMXlvsJ3Eea3X65qX+zrbzfN2Nv2eXne3TGPX0oAtUVQOj2RhEXlvsBLAea3X65qU6dbGWSUo2+RNjHe3TGPX2oAtUVRbR7JokjMb7UJKjzW79e9POm2pkmco26YFX/eNyPz46dqALdFUjpVmViBR8Rfc/eNxzn15pf7LtP33yN+++/wDvG55z68fhQBcoqn/ZlpuhbY2YQAn7xuOc+vP40g0mzWORBG+2TG7943ODn14oAu0VUGm2olik2NuiUIh3twB+PPWmDR7JYWiEb7GIJHmt1HTv70AXqKq/2dbecsuxt6psB3t0xj19Ki/sey8nyfLfZu3Y81uv1zQBfoqqdOtjK0pRt7J5ZO9umMevpUR0eyMKxGN9ikkDzW6n8fagC/RVU6dbNLLIUbdKpRzvbkfnx0qM6RZMkaGN9sedv7xu/wCNAF6iqh0y1LzMUbMww/7xuec+vH4U06VaHyfkf91wn7xuOc+vNAF0kDqaAQehrxT42x/2fJpLWkk0JlMpfbK3PT3q/wDBOIXukahPcvLLLFcrsZ5WOPl+tAHrlFURpFmsUkYjfbIQWHmN26d6f/Ztr5qS7G3ogRTvboBj1oAt0VQGj2QhaIRvsYhiPNbqPfNSf2ba+b5uxt+zZne3TGPX0oAt0VQ/sey8nyfLfZu3Y81uv1zUp0+2aaSUo2+RNjHe3Ixj19qALVFUTo9kYljMb7VJI/et3/H2p7abatJNIUbdMNr/ADtyPz46dqALdFUTpFmViUxviP7v7xuOc+vNOOmWhMx2N+++/wDvG55z68fhQBcoqn/ZdpuhbY2YQAn7xuMHPrz+NINKtAkqBH2ykF/3jc4OfXigC7RVT+zbXzYpNjbolCofMbgDp35pg0iyWF4hG+xyCw8xuo6c596AL1FVP7NtfNWXY29U2A726Yx6+lR/2PZCAw+W+wtux5rdenXNAF+iqp062MzSlG3smwne3TGPX0qM6PZGEReW+wMWA81uv50AXqKqtp1s0sshRt0q7HO9uRx78dKjOkWRjRDG+1CSv71u/wCNAF6iqjabas8zFGzMMP8AvG55z68fhTTpNmfK/dv+6+5+8bjnPrzQBdoqn/ZdpiYbGxN9/wDeNzzn1459KP7MtN8L7G3QgBP3jcAHI780AXKKpDSbMRSRiN9shBYeY3OOnfilOmW3nRy/vQ0ahFAlbGAMdM4NAFyiqA0e0EDQjz9jMGP7985HvnNPOm25m80+bu2bP9a2MYx0z1x3oAuUVQ/sa08jyf3+zdu/175zjHXOakbTrdppJT5u6RNjYlbGMY4GeOnWgC3RVA6PaGJYv3+1WLD9++cn3z7VI2m27STSHzd0y7XxK2Mewzx07UALqWw6Xd+YSE8l9xUc42nOKXTtg0y08skp5KbS3XG0YzULaPaNHGjCYqmcAzPzn155/GrwAVQoAAHAAoAWiiigDk/Hf+q8Pf8AYds//QjXWVkeItBTxBYwQNdzWslvcx3MU0OCyuhyOCCO9Zv/AAi+s/8AQ5ap/wB+of8A4mmI6miuW/4RfWf+hy1T/v1D/wDE0f8ACL6z/wBDlqn/AH6h/wDiaQzqaK5b/hF9Z/6HLVP+/UP/AMTR/wAIvrP/AEOWqf8AfqH/AOJoA6miuW/4RfWf+hy1T/v1D/8AE0f8IvrP/Q5ap/36h/8AiaAOporlv+EX1n/octU/79Q//E0f8IvrP/Q5ap/36h/+JoA6miuW/wCEX1n/AKHLVP8Av1D/APE0f8IvrP8A0OWqf9+of/iaAOporlv+EX1n/octU/79Q/8AxNH/AAi+s/8AQ5ap/wB+of8A4mgA8V/8hvwr/wBhL/2k9dTXLQ+ELk6nY3l/4iv74WcvnRxSpGF3bSvUKD0JrqaACiiigAooooAK5S1/5KrqP/YHt/8A0bJXV1ylr/yVXUf+wPb/APo2SgDq6KKKACiiigAooooAKKKKACiiigAooooAKKKKACiiigAooooAKKKKACiiigAooooAKKKKACiiigAooooAKKKKACiiigAooooAKKKKACiiigDxf48/e0T/ALa/0rQ+BP8AyANV/wCvpf8A0Gs/48/e0T/tr/StD4E/8gDVf+vpf/QaAPWKKKKACiiigAooooAKKKKACiiigAooooAKKKKACiiigAooooAKKKKACiiigAooooAKKKKACiiigAooooAKKKKACiiigAooooAKKKKACiiigAooooAKKKKACiiigAooooAKKKKACiiigAooooAKKKKACuEste0eX4p3rR6rZOJdNggjK3CnfIJZMoOeW5HHXmu7ryDQPBv2P43ajL5WLS1Q3sPGBmTgAfQlx/wGgD1+iiigAooooAKKKKACiiigAooooAKKKKACiiigAooooAKKKKACiiigAooooAKKKKACiiigAooooAKKKKACiiigAooooAKKKKACiiigAooooA+X/iJeayfFV5pmq30tyllMwt/MxwjYK9PVSK0PhTe6w/i200qxvZILKSQ3F1GuMMqj39eB+Nb3xz0fydV07WEX5Z4zBIf9peR+hP5Vf+BWjbYNT1t1++wtoj7D5m/mv60Aex0UUUAFFFFABRRRQAUUUUAFFFFABRRRQAUUUUAFFFFABRRRQAUUUUAFFFFABRRRQAUUUUAFFFFABRRRQAUUUUAFFFFABRRRQAUUUUAFFFFABRRRQAUUUUAFFFFABRRRQAUUUUAFFFFAHJ/EaWeLwiRBcT27SXlrEZIJCjhWmRWww5HBNN/4V5p//QZ8Rf8Ag3m/xo+JP/Ipp/2ELP8A9KI666mI5H/hXmn/APQZ8R/+Deb/ABo/4V5p/wD0GfEf/g3m/wAa66ii47HI/wDCvNP/AOgz4j/8G83+NNHw40wSNINW8QB2ADMNVmyQOgJz7n867Cii4WOR/wCFeaf/ANBnxH/4N5v8aP8AhXmn/wDQZ8R/+Deb/GuuoouFjkf+Feaf/wBBnxH/AODeb/Gmt8PbBVJ/tnxHwP8AoLzf412FNk/1bfQ0XCxzfw9uZ7vwBo09zNJPM8GWklYszHJ6k8mumrlfhr/yTnRP+vf/ANmNdVSYIKzZri/k1C6s7UQx+XBDKks0bMpLNIGHBHQIvfvWlVCLH/CQXn+klj9lgzBg/J88vzZ6fN09fk57UAKqarvt91xZFAP34EDAsc/w/PxxjrmmeXrXkuPtVh5u4bD9mfAXnII38npzmtGigCiiaoJ4TJcWZhCjzVWBgzN/snfwOnUGo/L1r7MR9q0/z9/DfZn27cdMb85z3z+FaVFAFFU1T7Qpa4szBs+ZRAwYtjqDvxjPbHT86Z5etfZlH2rT/P3nc32Z9u3HQDfnOe+fwrRooAo7NV+0OftFl5O07F8htwbHBJ34Iz7Uwx6z5MQF1YeaGPmH7O+0r2wN/B69zWjRQBQMer+dMRc2XlEHyh9nfKntuO/n8AKBHq+yDNzZbgT55+zvhhnjb8/Bx65q/RQBnmPWMz4ubHB/1P8Ao7/Lz/F8/PHpjmnKmq7rfdcWRA/1+IG+bn+H5/l49c1eooAzvL1rZL/pVhvJHln7M+AO+fn5/SnqmqebAXuLMxhf34EDAsefunfwOnXNXqKAM3y9b8hh9q0/zt42t9mfaFwcgjf16c5qVE1QTxF7izMIT94qwMGLY6g78AZxxg8d6u0UAZvl619mA+1af5+/732Z9u3HTG/Oc98/hUgTVftGTcWfk7PuiBt27HXO/GM9sdO/er1YviXVrzSbO0NhBBNdXV3HbIs7lUBbPJIBPagCyY9a+zoBdaf52472+zPtK9sDfkHr3p+zVfPlP2iy8kqfLXyG3Bu2Tv5H4Csbz/HH/PjoP/gTL/8AEUef44/58dB/8CZf/iKANcx6x5UIFzY+YGPmn7O+GGeNo38HGeuaPL1fzJ/9JsdhB8kfZ3ypzxuO/nj0xWR5/jj/AJ8dB/8AAmX/AOIo8/xx/wA+Og/+BMv/AMRQBsBNWxb5uLLg/v8AED/MM/w/P8vHrnn8qb5es4m/0mw5/wBV/o7/AC8/xfPzx6YrJ8/xx/z46D/4Ey//ABFHn+OP+fHQf/AmX/4igDZVNV32+64sygH78CBgWOf4fn44x1zUYj1rypAbrT/MLDYfsz4A75G/k9PSsrz/ABx/z46D/wCBMv8A8RR5/jj/AJ8dB/8AAmX/AOIoA2kTU/PhLz2ZiCfvgIWDM3PKnfwOnBBqLy9b+zkfatP87fw32Z9u3HTHmZznvmsrz/HH/PjoP/gTL/8AEUef44/58dB/8CZf/iKANlU1Tz0LXFmYdmGUQMGL46g78Yz2x0796jMet/ZlAutP8/edzfZn27ccDG/Oc981lef44/58dB/8CZf/AIijz/HH/PjoP/gTL/8AEUAbITVfPYm4s/J2HavkNuDY4JO/GM9sdO9MMes+RGBdWHnBj5jG3faR2wN/B69zWT5/jj/nx0H/AMCZf/iKPP8AHH/PjoP/AIEy/wDxFAEXi7wneeLtKm026vbWGHeJIHS3YvGwPf58H5Sw6DqPSrHhzw7e+GfD9hpNnd2jJAWM0j27ZkJbOR8/B5PrTPP8cf8APjoP/gTL/wDEUef44/58dB/8CZf/AIigDX8vWN0/+k2O0g+T/o75Xnjd8/PHpjmnKmq7rfdcWRA/1+IG+bn+H5/l49c1jef44/58dB/8CZf/AIijz/HH/PjoP/gTL/8AEUAawj1rZLm6sNxP7o/ZnwBnv8/PHpipFTVPNty9xZmML+/AgYFjz907+B065rF8/wAcf8+Og/8AgTL/APEUef44/wCfHQf/AAJl/wDiKANUR635DA3Wn+buG0i2faF75HmdenepVTU/PiLT2hhCYkUQsGL46g7+BnHGD9axfP8AHH/PjoP/AIEy/wDxFHn+OP8Anx0H/wACZf8A4igDVEetfZ8G60/zt33hbPt246Y39c981KI9S8/JubbytmNvknO7HXO7pnt+tYvn+OP+fHQf/AmX/wCIo8/xx/z46D/4Ey//ABFAGuYtX+zqBeWfnbjub7O20jsAN/Xr3p/l6l50h+023lFCEXyTkNjgk7uRntxWL5/jj/nx0H/wJl/+Io8/xx/z46D/AOBMv/xFAGwYtV8qIC7tPMBPmMbdsMO2Bv47+tL5Wp+ZMftVrsIPlDyGypzxk7uePpWN5/jj/nx0H/wJl/8AiKPP8cf8+Og/+BMv/wARQBs+VqmIP9Ktcj/XfuG+bn+H5uOPrSCLVv32bu05/wBV/o7fLz3+fnj6Vj+f44/58dB/8CZf/iKueE9auPEGgJfXUEcE/nSwukTFlBSRkyCf92gC8sepb4C1zbFAP3wEByxz/D83HH1pgi1fy5Abyz3kjYRbtgDvkb+a0KKAKax6gJoS1xbmIJiVRCQWbnkHdwOnHNRCHWPIIN5Z+buGG+ztjHcY39enetGigCmI9R85Cbm2MQTDL5JyXx1B3cDPb9aiMOsfZwBeWfnbuW+zNtxjpjf1z71o0UAUvL1LzmP2m28rZhV8k5DY653dM9v1phi1fyEC3loJQTvY27YI7YG/jv3rQooApeXqXmzH7TbeWVIiXyTlW7EndyPbimmLVfLhAu7XeCfNPkNhueMDdxx9av0UAUfK1TdP/pVrtIPlDyG+U543fNzx9KBFqeYM3Vrgf679w3zc/wAPzccfWr1FAGeItW2y5u7Qsf8AVkW7fLz3+fnj6VIseo+bAWubYxhf3wEJyx/2Tu47etXKKAM4Q6v5Lg3lmZCRtYW7YA75G/ntUyx6h50Ra4tzEExIohOWfB5B3cDOOOfrVuigDO8nWPIx9ss/N3fe+zNtxjpjf1/GpfL1Hzs/abbyvLxt8k534653dM9sfjVyigDLlm1Cxt45riW3mxIFcRxFMhiFGMscYJz3z7VqVU1Lf9j/AHcyxN5ifMzYGNwyPx6fjVugAooooA5Lx+Zn03SbWK6ubZbvVra3le2lMblGYggMORSf8K80/wD6DPiP/wAG83+NO8d/6rw9/wBh2z/9CNdZTEcj/wAK80//AKDPiP8A8G83+NH/AArzT/8AoM+I/wDwbzf4111FFx2OR/4V5p//AEGfEf8A4N5v8aP+Feaf/wBBnxH/AODeb/GuuoouFjkf+Feaf/0GfEf/AIN5v8aP+Feaf/0GfEf/AIN5v8a66ii4WOR/4V5p/wD0GfEf/g3m/wAaP+Feaf8A9BnxH/4N5v8AGuuoouFjkf8AhXmn/wDQZ8R/+Deb/Gj/AIV5p/8A0GfEf/g3m/xrrqKLhY5H/hXmn/8AQZ8R/wDg3m/xo/4V5p//AEGfEf8A4N5v8a66ii4WPP7zQE8N+IvDstnqusyfaL4wypc6hJKjL5bnBVjjqBXoFct4r/5DfhX/ALCX/tJ66mkByPxJ/wCRTT/sIWf/AKUR111cj8Sf+RTT/sIWf/pRHXXUAFFFFABRRRQAUUUUAFNk/wBW30NOpsn+rb6GgDl/hr/yTnRP+vf/ANmNdVXK/DX/AJJzon/Xv/7Ma6qhggqjFv8A7eu826rH9mgxOF+ZzulypPcDg47bj61erOhWP/hI71hMxlNpbhotvCrvmwc98/MMdtvvQBo0UUUAFFFFABRRRQAUUUUAFFFFABRRRQAUUUUAFFFFABXOeLuuhf8AYXt/610dc54u66F/2F7f+tAHR1Bd3lrYW5uLy5htoVwDJNIEUfieKnrz34g3P9oazpegjTrrUoF3Xl5bWoUuUAKpncQMbjnr2oA717iGO1a5aRfIVDIXByNuM5z6YrNg8S6ZcR6U6SuF1QH7KXjK7sDODnocdPXtXI+HnOu/D/8As7VLqSxi0yVrfUY5Bh2ij5Csc/LlducZ7ip7C7h8WaKIdSlg06K7nL6EoGyZFjxscAnk9wPQ4oA6+71e1sp/JmS7L4z+6s5ZB+aqRVePxLpcl7HZ+ZcJcyqzxxy2ksZcKMtjcozj2rl9ZcJ4nh069vrCCQ2Anlu7l5EErhtuFUTKB0z3rN0WZdQ1nwjdBFia4jvt3lSOw4AXKlmYjgZ60Addc+ONHtZLpJE1HNtCJ5P9AmHynPqvHTvge9TXHi/SLXTF1Cd7iKBnjjBmt3iyX6Y3gZHckcCvPrVUikuoTe6peQRTGOCe3kD71Xj5y38Wc5pJ4JF8IWuqLdXVxfxakgcxXAC2r7ghUbjwSrfgTnigDvLjx1oFtKUkvMYd0ZtpwpRd2foQRgjr2qS58ZaNaahBZSyz+dMgcBLd325GQrBQSGIycdeDXnF9ezXA1q9mmla60+ecWkj3UgaEBBjhImRvqW59utWtdhgn1rS/tiXVyt/paXM4TDkyKAoIVvlHBOcCgDv7Hxfo+o6lPp9tLO9xCTkLbuVIHUhgMYzkfUYqM+OPDwiEpvZAh38/ZZf4Pv8A8P8AD39K5HwtZWx8YwpE9xbJFaO0McrBJC2cH5V4ZADnB71gX1g58Lvdy3aTiB9RUxSbkYFnI3Axoe4Jw2B+FAHq0PirQpoJJ/7TghjjkEbG5JgwxAYD58diDUUnjHQo1uX+2PJFbHE0sVtLJGnGeXVSvQg9a4A2U1v4F1O4gltkW5vLWTZtlk2j92uMuFOcjPcY4qjrLXkWv6lprvIZNSF3LAkJIS5LRIEOMkYJV8ZPagD1a48QadbzWUJnDvdypFGsfJBZSy7h1AIHeoYvFWlS6u+meZIlyszwAPGQrOqhiAe5wfx5rz/VmtT458OWkU063J+zrdqkZCxkRttPmZxuwTwOwrU8DRGTX9Tmmurox3EzXlkHlJ8yMExlm45Pyj8CKAOp/wCEx0TdcL59zutv9ePsU/7rjPzfJxxzzVtte01fD7a4twH08RGYSqD8y+wPNeXyahA994m1LUL57bw9q8z2P2iE/MjxLwwyDncNy9PSrd/bavP8LtJku5xBGt3C/wBnWIIWg3hY0IGMHGCaAO7PivTRJcKwuVFssLTMYWxGsgypPoAOvpV6+1ez0+5sbe4ciW+l8mAKudzYJ/AYHWvMoLS1uPHks8JlXT5tSNoStxIBII4CWyd3IDfyq7rF1faX8TdOuWs5bywhsJV0+3tf3jucLlufUsBnPQUAd7pWuWOsWaXVtIQjyPEgkG1mZCQcDv0NZf8Awnvhz7Hf3P8AaEW2ydkkTcN7bSBlVzkjJwD3rj/AOk2dxp9tqet3I8+4uLi30+0lxtt2YsXA/vOcHn2rLu3v0k0yWONLXzr1UeEooZREG2F1EGFAAyOvHagD09/Fugx6cL46nA9vuVSYW80qxBIBCZIOAfyqJ/GmgJNZxvqEcYuldkeX92qhODu3Y288DPWvPr+a4uPBcmwBIl1I+Q+0GKUGN2Z0wkZIJJ7dRWPNZ3c0l0LNJbe5WKV765j3utzCXI2bVz5a/KeTz6CgD2R/EWlpex2gneSaSLzkEUEkisn94MqkEe+ar2Pi/Q9SuYre0u3kkmVnjzbyKGVeGOSoGAeCa4WXUrpPF9jco8emrJaWyW0JkDr5JV2YMoIyAQOhHQVF4Otr5tV8Pq89t5U2l3LgeQwPltKDj7/U5BB7DsetAHeXPjbw7a3FrCdWtJPtLmNXimV1Q4zlyD8o9zWrZalY6kjvY3tvdKhwxglVwp9Dg8V57Dd3GhXUmivp99PbW+nPLcFblFaKNW+TywJMKOvUlj611fhS0gitpr2O8kuZL8R3DGbHmqpQbQ+DjOO4Az79aAOhrk/hz/yKR/6/rz/0okrrK5P4c/8AIpH/AK/rz/0okoA6yiiigAooooAKKKKACiiigAooooAKKKKACiiigAooooAKKKKAKeqbfsXzQmYeZH8gJH8Y549Ov4VcqlqmfsXEwh/ex/OSR/GOOPXp+NXaACiiigDk/Hf+q8Pf9h2z/wDQjXWVyfjv/VeHv+w7Z/8AoRrrKACiisDxfrT6JookhniguZ5kghkmxtUk8k59FDH8KAN+iuEn8X6rcXkclnbR21pC+WF3HMrXkZQEMoWJtgyeOT06UuueNL9dNtLSx026t9Uvo1LyPBI8VkG6szBeSB0H50Ad1RXDeEfEl1FdHQNXa8vJkb9xqn2WQR3CnkBuPkYdMdPesqfxjqGqWF0yavDp8lneKJI7exZ3EfneWCWaQAqf4sDigD06iuE1bxTqlto3iBormFrrTJYYRLFabV3MVzgM77uG9ufWs668Sa3DqGrwJe6pss7FbiLdp8e7cQ33/l4X5R+tAHplFYdl4ggTTtC+3ykXeqRoI9sZIZ9m49OB3rcoAKKKKAOW8V/8hvwr/wBhL/2k9dTXLeK/+Q34V/7CX/tJ66mgDkfiT/yKaf8AYQs//SiOuurkfiT/AMimn/YQs/8A0ojrrqACiiigAooooAKKKKACmyf6tvoadTZP9W30NAHL/DX/AJJzon/Xv/7Ma6quV+Gv/JOdE/69/wD2Y11VDBBVKLzf7cusxxCL7NDtkAG9m3S5BPXAG3H1PvV2s2AQ/wDCTXxDN532O33KR8oXfNtIPrnd+QoA0qKKKACiiigAooooAKKKKACiiigAooooAKKKKACiiigArnPF3XQv+wvb/wBa6OsjxDo02tWdvHb3n2O4t7lLiKXyxIAy56qTz1oA16hWztUvHvFtoVunUI8wQB2UdAW6ke1c9/Y/iz/oa4v/AAWp/wDFUf2P4s/6GuL/AMFqf/FUAat94f0nUbW6trmwhaK7Ia4CDYZSOm4rgn8az7rwPoN7bxwXFvcyRxEGJWvZiIyOhUF+CKi/sfxZ/wBDXF/4LU/+Ko/sfxZ/0NcX/gtT/wCKoA3xY2nnLMbeJplTyxKyhn2+m484qmmg2w1lNUllnmniV1gWRhshDY3bQAPTvmsz+x/Fn/Q1xf8AgtT/AOKo/sfxZ/0NcX/gtT/4qgC1Z+EdLsYGihe/VWkaQhb+ZBliSeFYAcn0oTwhpC6dNp7xSzWs119rkSaVn3PkHknkjIHBNVf7H8Wf9DXF/wCC1P8A4qj+x/Fn/Q1xf+C1P/iqALUnhSxbTr6ximuoIL6Z5Z1icDduGCo44XA6CnzeFtNnvLW6b7SklrbfZYvJuXiwmQcEqQT0HeqX9j+LP+hri/8ABan/AMVR/Y/iz/oa4v8AwWp/8VQBei8L6dDqiairXhnSF4AZLuWQbWxnG5iQeOoIph8H6F5DwJYmGGRNkiQTSRCUf7YVhvPPVsmqn9j+LP8Aoa4v/Ban/wAVR/Y/iz/oa4v/AAWp/wDFUAaSeG9LWAQPBJPACCIrm4kmTjp8rsRxVKfwXpVwpZmuVuTMZjdLJ+9J2lcZIxtCsQBjAqL+x/Fn/Q1xf+C1P/iqP7H8Wf8AQ1xf+C1P/iqALV74R0q902ysHWaOGzKmIxSFW4UqMnqeCasTeHtOmjsoxE0S2SlIfKbbhCu0ocfwkfyrn4LfxXNrF5p//CTxD7NHFJv/ALOT5t+7jG7tt/Wr39j+LP8Aoa4v/Ban/wAVQAth4B8PWDxEWhnSBCkEVy/mRxA/e2qeMnPJPNWrjwrp9zpUulyyXRsXdGWHzz+72kEBT1AyOmfpiqn9j+LP+hri/wDBan/xVH9j+LP+hri/8Fqf/FUAWJPB2knTLSwt1mtYrRnaJoHwwLAhsk5zkMetWYfDmn295pt1Esivp1u1tAA3AQgA5Hc/KKzv7H8Wf9DXF/4LU/8AiqP7H8Wf9DXF/wCC1P8A4qgCa38G6XbXMUitcmKGaSeG3Mv7uKR85ZcDOeTjnjNXn0DT3+whYjGLKf7REEOMvgglu7Zyck8msv8AsfxZ/wBDXF/4LU/+Ko/sfxZ/0NcX/gtT/wCKoA05/Dmj3Ssk9hFLE0omML5Me8Z+bZ93PJzxz3zVGTwRobPKY4JrdZIDAY7a4eJApJJ4Ujux68e1Rf2P4s/6GuL/AMFqf/FUf2P4s/6GuL/wWp/8VQBoy+G9LmspLWSBislqtozhyGMa9BkGnxaDYwX9peRK6SWlqbWEK3yrGcdvXgVl/wBj+LP+hri/8Fqf/FUf2P4s/wChri/8Fqf/ABVAGlb+HdPt7W9h2PK18CLqaVy0kuRjlvYHAAwBRovh+00MSfZ5J5WkVELzPuIVBhVGAOAKzf7H8Wf9DXF/4LU/+Ko/sfxZ/wBDXF/4LU/+KoA6euT+HP8AyKR/6/rz/wBKJKl/sfxZ/wBDXF/4LU/+Kq/4Z0M+HdETT2ujcuJJJWlKBNzO5c8Dpy1MRsUUUUhhRRRQAUUUUAFFFFABRRRQAUUUUAFFFFABRRRQAUUUUAVNSBazwIPPPmJ8nP8AeHPHp1/CrdUdWCmx+aQxjzY/mAz/ABjj8elXqACiiigDk/Hf+q8Pf9h2z/8AQjXWVyfjv/VeHv8AsO2f/oRrrKACsbxNpa6zpi2bwXE6tKrFIbgQg45G9uu3PXaCenFaV5dR2VnLcyvGiRqSTI4RfxY9K4HTvHtzea5qMrS6aunw7YIoZNQjUFxyzq23LA5A9OKAHahpmvz6rBHGl3bF5m2rFe3LxLEIiAZHDgcvjgYOPrVu8ttXbU9AWWw1V7dbKUXcFnesoWX5cbnMi7v4sZYmtC58S3rWkF5ZW9lJabXN1cLcGZICuMD5ASxOew4rI0fxNrl1p0txZT22uCSUvCwtpbddhIGwSMgQ456nJoAuWUOpQeMbd4bDWbewFjL5iXd55yPJuXb/AMtXAOM9cVhQeFNQm02BLvTNQSWSC5juvIa3O7zZN4ALSDlTz0rpr7xTc6edauPJsry006NZCtvdDzU4O5XXnB446Zpmn67rMugvcamdLtHMLSLeJcgxpn7m5D9QDzQBh2vhnXLjwZeaTc2ckV5d36z3E00sfzx7xkqUY/MFUensal1bwjcrqmty2tjf3MN1YJBblNRYHzMPncXkBKjI4OfYdalu/FOvRR2UXkQyTSLBO/8AZ7LO/l8+bkdMHAwR1zgZNalj4mu7210qcSaf5t5JITbB2y0YPAVjx5gGMqevPTFAF+1stXs7HQrW3e0EdsipfCQEsVCY+Qjvn1rcrlLbxRfy+K7nTW0a7EEdtHIq7Y96lmIJY+Zjbx25611dABRRRQBy3iv/AJDfhX/sJf8AtJ66muW8V/8AIb8K/wDYS/8AaT11NAHI/En/AJFNP+whZ/8ApRHXXVyPxJ/5FNP+whZ/+lEdddQAUUUUAFFFFABRRRQAU2T/AFbfQ06myf6tvoaAOX+Gv/JOdE/69/8A2Y11Vcr8Nf8AknOif9e//sxrqqGCCqURl/tu6BaLyfs0O0DG8NulznvjG3GeOGx3q7WbAYv+EmvgFfzvsdvuJPyld82MD1zu/SgC1eX1np8PnXt3BbRZ275pAi59MmqP/CU+Hv8AoPaX/wCBkf8AjWPrj26eLBcXdulzFY6RPcpFIAQGDrkjPQ4GM1Rt9V8Q3VtFcRfDu0McqB1P9pQjIIyP4KYjpv8AhKfD3/Qe0v8A8DI/8aP+Ep8Pf9B7S/8AwMj/AMa537d4k/6J1af+DOH/AOIo+3eJP+idWn/gzh/+IoA6L/hKfD3/AEHtL/8AAyP/ABo/4Snw9/0HtL/8DI/8a537d4k/6J1af+DOH/4ij7d4k/6J1af+DOH/AOIoA6L/AISnw9/0HtL/APAyP/Gj/hKfD3/Qe0v/AMDI/wDGud+3eJP+idWn/gzh/wDiKPt3iT/onVp/4M4f/iKAOi/4Snw9/wBB7S//AAMj/wAaP+Ep8Pf9B7S//AyP/Gud+3eJP+idWn/gzh/+Io+3eJP+idWn/gzh/wDiKAOi/wCEp8Pf9B7S/wDwMj/xo/4Snw9/0HtL/wDAyP8Axrnft3iT/onVp/4M4f8A4ij7d4k/6J1af+DOH/4igDov+Ep8Pf8AQe0v/wADI/8AGj/hKfD3/Qe0v/wMj/xrnft3iT/onVp/4M4f/iKPt3iT/onVp/4M4f8A4igDov8AhKfD3/Qe0v8A8DI/8aP+Ep8Pf9B7S/8AwMj/AMa537d4k/6J1af+DOH/AOIo+3eJP+idWn/gzh/+IoA6L/hKfD3/AEHtL/8AAyP/ABo/4Snw9/0HtL/8DI/8a537d4k/6J1af+DOH/4ij7d4k/6J1af+DOH/AOIoA6L/AISnw9/0HtL/APAyP/Grdlqunalv+wX9rdbMb/ImV9uemcHiuOk1zU7G4sxqvgW2tLW5uY7YzLexSFC5wDtC5Nbl3Z21r4r0aW3t4oZJFnjdo0Cl12ggHHXkZoA6CiiikMKKKKACiiigAooooAKKKKACiiigDDsf+Rx1j/r2tv8A2pW5XkXhJ/Er/F7VbG81S4ltrMMZtyr+9TnyQcDjh934V67QAUUUUAFFFFABRRRQAUUUUAFFFFAEF3e2mnwGe9uobaEEAyTSBFyegyeKof8ACU+Hv+g9pf8A4GR/41T1K1gvfG2lRXUKTRxWVxKiSDcoffEu7B4zgkZ9zWz/AGdY/wDPlb/9+l/woApf8JT4e/6D2l/+Bkf+NH/CU+Hv+g9pf/gZH/jV3+zrH/nyt/8Av0v+FH9nWP8Az5W//fpf8KAKX/CU+Hv+g9pf/gZH/jR/wlPh7/oPaX/4GR/41d/s6x/58rf/AL9L/hR/Z1j/AM+Vv/36X/CgCl/wlPh7/oPaX/4GR/40f8JT4e/6D2l/+Bkf+NXf7Osf+fK3/wC/S/4Uf2dY/wDPlb/9+l/woApf8JT4e/6D2l/+Bkf+NH/CU+Hv+g9pf/gZH/jV3+zrH/nyt/8Av0v+FH9nWP8Az5W//fpf8KAKX/CU+Hv+g9pf/gZH/jR/wlPh7/oPaX/4GR/41d/s6x/58rf/AL9L/hR/Z1j/AM+Vv/36X/CgCl/wlPh7/oPaX/4GR/40f8JT4e/6D2l/+Bkf+NXf7Osf+fK3/wC/S/4Uf2dY/wDPlb/9+l/woApf8JT4e/6D2l/+Bkf+NH/CU+Hv+g9pf/gZH/jV3+zrH/nyt/8Av0v+FH9nWP8Az5W//fpf8KAKX/CU+Hv+g9pf/gZH/jR/wlPh7/oPaX/4GR/41d/s6x/58rf/AL9L/hR/Z1j/AM+Vv/36X/CgCl/wlPh7/oPaX/4GR/40f8JT4e/6D2l/+Bkf+NXf7Osf+fK3/wC/S/4Uf2dY/wDPlb/9+l/woApf8JT4e/6D2l/+Bkf+NX7S8tb+3E9ncw3EJJAkhkDqSOvI4pv9nWP/AD5W/wD36X/CsTRreGz8Y69BbRJDC0VtKY412rvIcFsDuQo/KgDa1BXa0xHAszeYnyMOMbhk/h1/CrVUdX8s2H70sF82PlRk53rj9avUAFFFFAHJ+O/9V4e/7Dtn/wChGusrk/Hf+q8Pf9h2z/8AQjXWUAIeQa841XSdR0PR5LPRtP1K2kdz5c8GoPLBDubLSFfvHGc428mu/wBQvV07T57x43kWFC5RMbmx2GSB+Zrjx8RVl15bCDTh5UcPm3DSXtuGGfuhf3m09DnnPtQBb1PQLu60nTbMm41GSCPLzzzLGJG/2/lLDPbaOK5Xw/4L1y3le8jhSI210klvZ3TMIGUj94Am5sEHBDnnI6V1l54z22VjNaWqiW5uXiMVxKvCRqWdt0ZYdBweetUZfiE3/CPRX8dpbC4uIxLFHHc+cqruQESEBSrfP0GaAKninTdemvtcWzsDJb6pHb2YcclT/E/XhQCeT3xT/wCyo/8AhItQbTNOKwQaJJal0tTFvlJPAyBuOB1Ga2rjxXcRanq9mllZudOg845vSryDaWwF8s44HPJxkVUs/HkkkV5cXmlLDb2unx37mG58xyrglVAKKM8HPP50AcqNF8SXMdjBp1mYZYY7W5uI7lSqJLCpwof+JmGMgZA7mt+C11WXStPjht7ictdTXWpCeMRsXwT5QDdMkgBhnp1rQfxfeC9WQaVjTFHlzO91AJEmOCq/6zbgj1INXrTxQt7DDNBp9wYzPJBOpZDJDsOC20E7lz1IPGRQBw+leH9bht4tRfw8Zb2a6L3cM023ZD0WKM784XOc8gn9fR4b+4k1yawFi6WsECP9pYnDOxPyAY5wBknPesuDxtpk2vzaYGwqQpIs2G+YsSNu3bxjHX3rpaACiiigDlvFf/Ib8K/9hL/2k9dTXLeK/wDkN+Ff+wl/7SeupoA5H4k/8imn/YQs/wD0ojrrq5H4k/8AIpp/2ELP/wBKI666gAooooAKKKKACiiigApsn+rb6GnU2T/Vt9DQBy/w1/5Jzon/AF7/APsxrqq5X4a/8k50T/r3/wDZjXVUMEFUoml/tq6UzxmIW8JWEEb1bdJljx0I2gf7pq7WbCyHxLfKIiJBZ25aTd94b5sDHbGDz/te1AHO+Jv+Q3qP/YvXH/oQrpdD/wCRf03/AK9Yv/QRXNeJv+Q3qP8A2L1x/wChCul0P/kX9N/69Yv/AEEUxDtY1KLR9GvNRnOI7aJpD74HA/E8Vx/gvxHqjG+s9duftt4lsl/EIEUsY2HKAKOSp49ea6XxLoI8SaYmnyXJhtzMkkyhN3mopyUPPANZ8HgbS9N8QWWraNDBprQI8c0MEICzq2OGx0wRnNIZl2am5kvdK1i6uoNY1+N7hYIWYiziUAIMg4UjuehORUtxqN+nhqKPWQ9nc2twttLLmdRcN0RozCQzBsjjseKig8K+JYptYvGvbL+09ROBexyOrQRj7qICpGB+tas2g6trfhu2sdavoYr6G4jlNzZpkPsbIO1uATj3H8qAOS1m6mj0TV2t9Ru4ryyt1lKie/ikTc2FOJWwQeexql4i1i/Pi28gtLq74S1hY26uMEhm2lo23/l1/Cuq1/wjeXUOox2s095c6nBHby3N1JGixKrZGFRBnqabrfgi51bVJ2iuUtbaSODdIqgu5TfuwDwCQw55oAyvCd/caj4jns73U7yC5WzaMRNcy5WTON2x2I3YyemO+KZbasIdXh/4SDWby6shZtFFcWDXCRySxu27Ii/jCD5vpV/RPC3izT9Rlmn1OBxeWYt5G5b7PsBCEDjc3IyeOc8Vbi8F3H2eOzdoktrCxltrM5y0ssi4eV/T2HPUmgClFbatrPw912CzF7O91cP9g+0yMHaAlSpDSnOMZxk1avLy70bSzdXz+J4baFVDvmyYLyAOBk9TWjoOhXkmkpaeIbe3eO3WNLaEHdsCoFJ3DGcnJ9qr6z4NN/FLZWVtYWdrK0e+cM5l2hgxAXGOcY60AYviMzv4khtZILokEXNrJ/aLp5oVQGYjzUVOWxgAH0qLQWvodSv7WwhkWaNJLiWSbUXZIndSUJHmsrAkd8kd66DWPDuqal4klnIhm00WyJDFLdyRbZATuICDuMUaN4c1LT9feSRIE0uS0ZHgS5eUPJuGCQ49MigDhY7rzfD2n2C3csVxdWtyiS3GoqIhzh94Cd2+Yd/erd3dtc+ELzbPM8MGoiK+f7YXEpKqqGMgL8oJTjK9MnNbml+BtQsbvTHnkQx20FwHFnK1uwZ2DKu5cFvcn24pJvB2rXHhjWrPy0We/wBQjuI45rpnIRSmd0nJJwpoA5rUI9ZtorOe8vrh3gkSK3YXmMu7KPmZbhn+boSOADwK9kt1dbWJZQBIEAYBiwBxzyeT9TXB3/g3VfshOnQWlvdBlKSLfzMVwwJ4YY6Z616AOgzQBzHjn/jw0n/sL2n/AKHV7U/+Rl0P6z/+gVR8c/8AHhpP/YXtP/Q6van/AMjLof1n/wDQKYjaooopDCiiigAooooARjhSfQVwWiXHjnX9Ht9Ug1fRoIrkF1iewdigyRgnzBnp6V3r/cb6VzXw8/5ELSP+uR/9CagRX/s/x/8A9B/Q/wDwWyf/AB2j+z/H/wD0H9D/APBbJ/8AHa66incZyP8AZ/j/AP6D+h/+C2T/AOO0f2f4/wD+g/of/gtk/wDjtddRRcDhYfDnjSDVLrUY9a0IXVyiJK/9mvyEzj/lp7/yq5/Z/j//AKD+h/8Agtk/+O111FK4HI/2f4//AOg/of8A4LZP/jtH9n+P/wDoP6H/AOC2T/47XXUU7gcj/Z/j/wD6D+h/+C2T/wCO1WkvfF+jazo0ep6lpV3a3139mdILN43GUZsglz/d9K7euV8X/wDIW8Kf9hYf+ipKBHVUUUUhhRRRQAUUUUAYVx/yPen/APYOuf8A0ZDW7WFcf8j3p/8A2Drn/wBGQ1zekL4r8Rvql1D4sNjDBqVzaxwLp8MgVY3Kj5jyeKYj0GiuR/4R3xf/AND2/wD4KoKP+Ed8X/8AQ9v/AOCqCgZ11Fcj/wAI74v/AOh7f/wVQUf8I74v/wCh7f8A8FUFAHXUVyP/AAjvi/8A6Ht//BVBR/wjvi//AKHt/wDwVQUAddRXI/8ACO+L/wDoe3/8FUFH/CO+L/8Aoe3/APBVBQB11Fcj/wAI74v/AOh7f/wVQUf8I74v/wCh7f8A8FUFAHXUVyP/AAjvi/8A6Ht//BVBR/wjvi//AKHt/wDwVQUAddRXI/8ACO+L/wDoe3/8FUFH/CO+L/8Aoe3/APBVBQB11Fcj/wAI74v/AOh7f/wVQUf8I74v/wCh7f8A8FUFAHXUVyP/AAjvi/8A6Ht//BVBR/wjvi//AKHt/wDwVQUAddXP6d/yPGuf9etr/wC1awNVTxX4ck0y6n8Vm/hm1G3tpIG0+KMMsjhT8w5HFb+nf8jxrn/Xra/+1aBGtqKyNaYiRHbzE4fGMbhnr7Vaqjq3lfYP3wcp5sf3CM53rjr74q9SGFFFFAHJ+O/9V4e/7Dtn/wChGusrk/Hf+q8Pf9h2z/8AQjXWUAVdTlMOmXMigFljJG7bjOO+4gfmRXhnk2T3EltcrrjpeBppUsoF+ysysCz4Mjb15G47wBXu14VFpLvtmuV28wqoYv7YPH51yDeOostqUeh3baRapKlzeMqK8DqQCoTOSPp+tAGNrNvaavD4fvLmZbFd09u0sDRqixGMksArMoOB68VhzaPeReHTqs4Ui7Z9jFViZ03xJF8nXJVM8CvT11PTXsI7i40y5ijnYuqNYtIxyPvEIGxkHvzWXonjPRvEQnZ7Zne1umij8u0lm2gH5WyE+Qn07UAch4hspbDVPEF1JFdTRb5QJ9+wmSWJFSNdpDEZ9sY61r6BoVtZ+JNTsZppk8nR7ZHZ7qTapIYMT83QY4HQdsV2OoawINYsdKgtTdT3BLygHAgiH8bfjgAd/wAKrWmt213p+pT3lj5F1aForq2KeY2Bnb0BLKRgg4xyfSgDizdarZaTrOrWt1BJo0JhtraCSzAgnXcA7Km7AGWI3d8Vr3l5pgOmwaPYuY7W7mVriNGYwIiFnMbAnOSQAvIPpxVrTfGf9s2um29voxmlvbRpzCzhI1VSFIywG4cjkDFbUd5PpdtaR3WmpGsjlXNj80cA7FhgHHqQMDvQB51pGp37yL4hll1qZr2fyHFvErPbWyk7N+IipbJyRwcGvT4tWt5dZl0lBK08MCzyPtG0BiQAT6nBOMVmw+NdDm1yXTF1C0+SJJFn+0pscsSNo55Ix0963xGiuzhFDNjcwHJx0zQA6iiigDlvFf8AyG/Cv/YS/wDaT11Nct4r/wCQ34V/7CX/ALSeupoA5H4k/wDIpp/2ELP/ANKI666uR+JP/Ipp/wBhCz/9KI666gDmtb8Xx6SLpBa75YiETdNGAzHpxu3Y9eKnsvEqTPFFcRRq5jLyPFcROilRk8BicenFc54wkEmqO7tdYtYy0f2NU81Djklg+VU45yuak0RbaaG8sliukjvY2kl+1hBNkr1DbtzD/gNer9XpewUra/1/w/4HPzy57F6x8ZyzD/Sbe0QC3+0ki4KsyEnAVSOWwPXvUg8XTCBpjb22xr77LH5kxiwCAQzHBHGea5aw0l7+C1itLhplWz8+4VsbY3CFY1Dds5PH41J/Z1xdWn7hXmf7fNEscZBRiYcZznHB75raWGw/M/8AgkKpOx0914qu7e8ntxp9u/lTQxbxdHDGX7pHydKs3niKYTXVlY2ge9icRJ5sihGkKg46hiMH0rjzZRzW8t4VlVG1K1t0zM/OzAY9fXp6dsV0Ot2ztq8FppV0y3kzp5xQbmiiXklnJyAcD5e9YyoUYySS/O2lt9fUpTk0adh4jS6vbeyktmSaUPllkRlVk+8Dg5H4itqT/Vt9DXLaNqML65PHeBH1H7TJbRyRIFYxqobLgHp6Gupk/wBW30NcWIgoSSStobQd0cv8Nf8AknOif9e//sxrqq5X4a/8k50T/r3/APZjXVVzstBVGIv/AG9dg3KsgtoCIMnKHdLlsdPm4H/ADV6s+E/8VDeD7OF/0WD9/wA/P88vy+nHX/gX0oA5vxN/yG9R/wCxeuP/AEIV0uh/8i/pv/XrF/6CK5rxN/yG9R/7F64/9CFdLof/ACANN/69Yv8A0EUxF+iiikMKKKKACuT8V6xc6brGjW8GoSWyXUrJKqwCTKhWIIJU4OQB9PzrrK5rxNZapd6npM+nWaTCxkedzLKEDZQpsHUlvmzzgcdaAOHs/GPiiRrWSW4kMcgtnbMcO0iSYoenzYwOO4PWtnVvF+qJfahZW+paev2a9t7dTBFmQrIRuPzOw+XOOnX06VWtPC99B4me/OgEW3lxhALOyBDhiSceZgdR8w5/Krur6HqM93qsv9mmQ6hcQvaIkmGjeMYDysPlVMjOAST04NAENl4v1Nm1C4t5pLu3i00XkUd3EitkSFWz5eOMKSKot4xvf+EYjuvtV6TLrRRbhI9w8nzSNmf93tUvhvQdctFn06MXNtqCWz2v9qSR/u0jWXKbFxhiQWOecd6j0PwnqN7af2LqEFylnZ3F1OLm5HM8rErGwHfAy2fUigD0DQGvG0eL7fLJLcAsC8kPlMwycZXPXGK06z9Eubu50qE31u8F2mY5lYcFl4LKe6nqD71oUAFFFFABRRRQBy/jn/jw0n/sL2n/AKHV7U/+Rl0P6z/+gVR8c/8AHhpP/YXtP/RlXtT/AORl0P6z/wDoFMRtUUUUhhRRRQAUUUUAI/3G+lc18PP+RC0j/rkf/QmrpX+430rmvh5/yIWkf9cj/wChNQB01FFFABRRRQAUUUUAFFFFABXK+L/+Qt4U/wCwsP8A0VJXVVyvi/8A5C3hT/sLD/0VJQgZ1VFFFABRRRQAUUUUAYVx/wAj3p//AGDrn/0ZDWd8Pv8AkH61/wBhy9/9GmtG4/5HvT/+wdc/+jIazvh9/wAg/Wv+w5e/+jTTEddRRRSGcf4u8R3Wl3P2Kz1K1trhollUTWjPgbsE794HY8bTWdYeMbyTWPLn1ixe3nljjhRLBicngjiU7cnud34dKueNnml1jRbOKCUcyXC3MUEkrROgAHyoD1DHrWdZNe23i/SJZxdXjz+ZbGWazlhEKFd2RuABJKgc0AOtfGuozpPO9xYwqNQMSW8ySeYI+R5eAmN+Bv6nOccUyw8Zay3h68ubqS3F7BBFmA28gljLMQZXXA4HYdPl6isu70nUm1VolW9McniDdHPMxCN+7wWGzaw6Y3ZA6Y71ZhtZvtXjAo5uV/skRCWPzXBcB8qDIzEn2BoAhbx/4hNgkSy2Auo2JacogSRVzgY80nLYGeF2571uXPjS9i/skx3WnL9stZZ3S4t3jcMgyAFMmQG6DOemRmsEW+pP4SEM1zqMkRsgrW/9mzAMNn3dwXj0zW1ci6vG8OXiaNcTQwaewuUVCRGJEVQOcMxHOQuT+dAFTS/H+t3eo2UM9rbrFPLbI5+ySJgSqW+8ZCBjHHHPtUmoeOr511W701jJZQXkNpbtHBvBYMBIS3vnAHtVLQ9Ga28USSzafcC0SS3NuTZ3m0FVI+UFjtxn+LIHbim22mXF34hu9BttNlh08a017NN5RWMRxqpCqehJYigDq7DxYv8AY2o6tdtI2nwK08Nw9u0W5OfkwepB4BHWsYeNr7TE8O3WtXEMcF7Zz3FwqRjLEYMar/tYIGB1NU7aODWvh9c6Bc2dwzWdq9w+AVAkDuVQ988A4FVbHSpdP1rwnq+t3UtzZLYsESa3AjtGCLtGAPvE55PpQB0Os+LdXgTS5reygsyyrPdW17dRxuysdoRep4+8TjgDHWodK8bX97rhBbSJNPuJjDDjUFBi2cFj8uW3nO3p0HTNTFNS8UHRr2a1urY+VI01uHkijwxwjM6sCSAM7Rk88461h+GdA1K3tdKuQ9ylrHeyPM0ZmMnErAK0e/GxuDkKT6+tAFqf4ga5FLcqlhDc/wCtSCK2gcybwWVSTuIx8uTxXQeC/Et34ghlSZIJlto4w97BISsshGWXaUXaRxkc4ziuAvfD+rWZvr5NLvLQkTn7TCFDOC54O0l8EEdhnFdd4HsE03xBqdtax3ENkttCyo9q1urOSwJ2N1OFAyPxzQB3lFFFAHJ+Pv8Ajw0b/sN2X/o0Vc07/keNc/69bX/2rVPx9/x4aN/2G7L/ANGirmnf8jxrn/Xra/8AtWn0F1NXUhIbT90yBvMTlyMY3DPX2qzJIkMbSSuqIoyWY4A/GqGuIJNKdCZF3OgVo8blO8YIyCODg15h4r+F3inU7gXMfiV9UVWDCG7Yxlen3QPkz+C0hnsFFYJ0bWyf+RnuPwtIv8KT+xNYPXxPd/hbxf8AxNAFLx3/AKrw9/2HbP8A9CNdZXn/AIq02+tJPD8lzrNzeJ/bdoPLkjjUZ3Hn5QDXoFACMyopZiAoGSSeAK8l1QSjUNSazt5bvwhdX0VxfTwKSVYffCD+NCwUsRnvXp2ry2cGkXU2oQrPaRxl5Y2QOGUc4weDXKf8LJ0tLC+eC2Z5LQ4jhjYYkXcqryB8uS3TB6GgDS16XUtX0m3i8PeXLZ3S5mu4plBEXdY8nG4jIBPArk/BlhfWRvLnRtLaEwX00UsLzIEmjDcISCSHXqGxjqM8110XiTw9YQ2n2RrZY765aL/RtgUS4JYt09ME9c4qKDxRa2ukf2nDoF9Dp8zh2mRYFBLMF3FRJnkn0zQBk6ppNle+PLC1svPM5L3Wqulw4xHtxGjkH1PA9BWfZaAbvU/Gj2VzcW88ZFnC5nd1SMoCwwTyeSR6E12WoXenWWpW+lJpsdxPqjs08cca/cA+aSTPUdBz1zUekarpMeh3skNjFpsdpJIlzabFTy2HqF4+YYOe4NAHm+lWKS6NFJ588hsPDskqnzCphd2O0Arg/wABODmupka107TfDDxxzC7mj86S6812aKMRbpG5zu7fKcgntVrSfE+kX1lZwafoBkk1C0aRra2SEIEU7SrFioPXpjvW+mpGwt7NL/T/ALIJW8pRbnzYoePlDMANo7dMD1oA830nxBPJcjxFPqV8y38wtQ1vBE5ht1J2NKAhAJY8gYIBr1KPVLV9WfS1dmuo4Fnf5TgKSQMnpk4PFUofE+jyaxNpcd1CJY41lL+YmxtxIABzyeOmPStZYIUmkmSKNZZAA7hQGYDpk98UASUUUUAct4r/AOQ34V/7CX/tJ66muW8V/wDIb8K/9hL/ANpPXU0Acj8Sf+RTT/sIWf8A6UR111cj8Sf+RTT/ALCFn/6UR111ADfLj+b5F+f73HX60GNCVJRSV+7x0+lOoouAxYo1UqsahT1AHWlSNI12xoqqOyjAp1FO4DSiMMFVIznkd/WlCKrMwUAt1IHWlopAMEUYkMgjQOerbRn86WT/AFbfQ06myf6tvoaAOX+Gv/JOdE/69/8A2Y11Vcr8Nf8AknOif9e//sxrqqGCCs+ED/hIbw/aNx+ywZgwfk+eX5vTnp6/L9K0KoxB/wC3bsm3RY/s0OJwPmc7pcqT6Lwf+BmgDIvLeK78c/Zp13RTaPJG65xlTIoIpieANEjRUR9SVVGABqM+AP8AvqqviN3j16/kRirr4fuCrKcEHeOag0r4e6Fc6RZTyvqpklgR2P8AalwMkqCf46YjS/4QLRv+emp/+DGf/wCKo/4QLRv+emp/+DGf/wCKqD/hW3h/+9qv/g0uP/i6P+FbeH/72q/+DW4/+LoAn/4QLRv+emp/+DGf/wCKo/4QLRv+emp/+DGf/wCKqD/hW/h/+9qv/g1uP/i6P+FbeH/72q/+DS4/+LoAn/4QLRv+emp/+DGf/wCKo/4QLRv+emp/+DGf/wCKqD/hW3h/+9qv/g0uP/i6P+FbeH/72q/+DW4/+LoAn/4QLRv+emp/+DGf/wCKo/4QLRv+emp/+DGf/wCKqD/hW3h/+9qv/g1uP/i6P+Fb+H/72q/+DW4/+LoAn/4QLRv+emp/+DGf/wCKo/4QLRv+emp/+DGf/wCKqD/hW3h/+9qv/g1uP/i6P+Fb+Hv7+q/+DW4/+LoAn/4QLRv+emp/+DGf/wCKo/4QLRv+emp/+DGf/wCKqD/hW3h/+9qv/g1uP/i6P+FbeH/72q/+DW4/+LoAn/4QLRv+emp/+DGf/wCKo/4QLRv+emp/+DGf/wCKqD/hW3h/+9qv/g1uP/i6P+FbeH/72q/+DW4/+LoAn/4QLRv+emp/+DGf/wCKo/4QLRv+emp/+DGf/wCKqD/hW3h/+9qv/g1uP/i6QfDfw8RkPqh/7itx/wDF0AWovAmiR3ME5F7K0Eqyxia+ldQ6nIOC2DzVvU/+Rl0P6z/+gVymveE9O8PNpN9p02opP/altGTJqE0ilWfBBVmINdXqf/Iy6H9Z/wD0CgDaooopDCiiigAoopskscMTSyuscaAszscBQO5NACv9xvpXNfDz/kQtI/65H/0Jq6PekkO9GDKy5DKcgiuc+Hn/ACIWkf8AXI/+hNQBD4j8SX2n37WWnyWRmVY5CksFxIQhPJPlqQOhxzVSx8X37aoYr6SxW3lmVLcLa3KMw25IyyAbuDjNV/HBhn8SaXa/Zl+0JDJcLPs3/wCxtK+TJnrnkDFUNDWK28a2Imt1ee6gkiSUQ+UIgo3bgpt4wT2zk0AWrbx/eT6QNQL6OitLIBE12BIEwxQbc/fGBlepzxilg8dalP4ZN7/xLRdSNBCiozyGN3XJaREyw5zhevHWsC1tL86lpkCvdMTq94Y3mf7Orja2SrRru578Y7Cn3JMmhePHEyXCmOBRLHctcqSF6b2GTj0xxQBpy/EHX/ssEiaSkcqDfciS2n2kf3VIXr1OTxxitjUvGV3aPbm3Swnhl06S9DF3QnYAcAEZ5zxmuO1iDboM73MayQpGHZYrTymbGDgP9jG3p1yPrXTa/DDeeILS6k0eW5t/7NeO4kWFiEMgG3LgbjxnlQSPxoAbpXxBvr7WLeyl0+IJLOsJKpKp+aLzMjeoHtgnnr0rUj8ZzTa7c2Uei3ZgtUAndpIVdZTyFwZMEbeeDkelct4csinia4ee1uFRblGtXka7ZVIiCBgGjAbHT5iKsWWl3um6PrbT+XK66hcGJ73SnuZZmIBDLtIABx1wRQB6Bp+pHUN+bK4twmOZWjIb6bHb9aw/F/8AyFvCn/YWH/oqSk8BaJcaN4fhNxHbRTXKLNOiWxjk8wjJ3nccntwBj0pfF/8AyFvCn/YWH/oqShAzqqKKKACiiigAooqNZ4WneBZYzMgBaMMNyg9CRQBjXH/I96f/ANg65/8ARkNZngB0XT9aDMo/4nl71P8A01Nadx/yPen/APYOuf8A0ZDUU/gTwxcXM1xLo9u0sztJI3zDcxOSTg9SaYjf86P/AJ6J/wB9Cjzo/wDnon/fQrnf+Ff+Ff8AoCwf99N/jR/wr/wr/wBAWD/vpv8AGkM6Lzo/+eif99Cjzo/+eif99Cud/wCFf+Ff+gLB/wB9N/jR/wAK/wDCv/QFg/76b/GgDovOj/56J/30KPOj/wCeif8AfQrnf+Ff+Ff+gLB/303+NH/Cv/Cv/QFg/wC+m/xoA6Lzo/8Anon/AH0KPOj/AOeif99Cud/4V/4V/wCgLB/303+NH/Cv/Cv/AEBYP++m/wAaAOi86P8A56J/30KPOj/56J/30K53/hX/AIV/6AsH/fTf40f8K/8ACv8A0BYP++m/xoA6Lzo/+eif99Cjzo/+eif99Cud/wCFf+Ff+gLB/wB9N/jR/wAK/wDCv/QFg/76b/GgDovOj/56J/30KPOj/wCeif8AfQrnf+Ff+Ff+gLB/303+NH/Cv/Cv/QFg/wC+m/xoA6Lzo/8Anon/AH0KPOj/AOeif99Cud/4V/4V/wCgLB/303+NH/Cv/Cv/AEBYP++m/wAaAOi86P8A56J/30KPOj/56J/30K53/hX/AIV/6AsH/fTf40f8K/8ACv8A0BYP++m/xoArePXRrDRgrqf+J1ZdD/01FXtO/wCR41z/AK9bX/2rSQeBfDFtcw3EWj26ywuJI2+Y7WByCMnqDS6d/wAjxrn/AF62v/tWmI1NT3/Y/wB3KsTeZH8zNgY3jI/Hp+NXKp6nt+xfNA0w8yP5FJH8Y549Ov4VcpDCiiigDk/Hf+q8Pf8AYds//QjXWVyfjv8A1Xh7/sO2f/oRrqyQoJJAA5JPagDO8QNKvh++aFZWkEJIWJQXPqFBBGfTg14pplvbDRLu+s7uW2WzlS/jt/PDxPNu+SEZUPv9evJHtXpMnjzw5qmnarHdRzPbW4YMjQsVnTswIGNrEEDJGan03WfC2qWNlfizgheGRYokltdrQSnOIwduAw54B4NAHLSj/in/AApeCS12y30tzPIyFykjLI7Lg46cg55yKw9MhSOTTbqS3hNrbJ5VwXso2AlkZCmUMoZyN33scenp2keueDr+6sYbyxtrf7ZDLdk3LIiR5Ow7snG5sHp71c1a88J2l/Zwtpdvey6gTP5tvAJdqoBiQlQTjIABFAFPVdMjfx7pttZ3t8bu4Lz6k0V3ImIFGEUhSAo3HjGD15NZ9ppF5cat40lsNRvEuIttnCJrhpECFASTuyxIySOe9dJoWsaBrdu8trZTRTajlp1a2dS5GQQz4x29apt4l0fw5byQLoOoW8IDy3pFthYh03MxOHzxjaT1oA43SbWVtJtZVvrgvYeHZZo3ikMTRFm+UEoRkfKTg/rXVy3EGn6d4alNxdm9uo97zy3TuFj8rdIzhidycD5eO2MVKmv+FrHTtQij0uSCNIlimhaALvUxs6JnOOVzjnvUl7458O6VpMUrW0u2OIpDEIeDhVzGrHjOGHGexoA5DTdbi/tBdfuruxgi1CUWtvixU4hUnbKyeZlcscZGa9YTUbVtROnCcNeLCJmQKeEJwDnpyQeM1k3Ws6To0tnp0env5t+37mGC2wjNjPLYCg4Hr2p1vr3h46uwilUX1zJ9mZxC/wA7pn5N+MEjnjNAG/RXMR+O9Hku5oMzL5aB1ZoyN/DkjHUY2HOcVpaB4hsPEWnRXdnNGWdA7wCVWeLPQMATg0AZfiv/AJDfhX/sJf8AtJ66muW8V/8AIb8K/wDYS/8AaT11NAHI/En/AJFNP+whZ/8ApRHXXVyPxJ/5FNP+whZ/+lEdddQAUUUUAFFFFABRRRQAU2T/AFbfQ06myf6tvoaAOX+Gv/JOdE/69/8A2Y11Vcr8Nf8AknOif9e//sxrqqGCCs2FYx4lvmEhMps7cNHt4Vd82DnvnJ47Y960qpRCX+27omKIQ/ZodsgA3s26TIPfAG3H+83vQBzHib/kN6j/ANi9cf8AoQrpdD/5F/Tf+vWL/wBBFc14m/5Deo/9i9cf+hCul0P/AJF/Tf8Ar1i/9BFMRmeJbtbe906ANqjT3bNHFHZSogJA3EsXIHQVxXhO4OnaUPPXW4rd9VktkeO5iKKzSEAMN27r1IFei6ho8eoappl80zo1hI8iqAMPuUrg/nXPaZ4Nu0tUt7+9VYI9Se+EMC53neWTLHkdsgD8aQzB1W6vtP1TxhdGGG7ZGtQkSO8BLMMJ8wfJxnkDqfSovDd/FBomqWV2dauNQkgmlkmecugaNtpWLbIxADHr3wa6LVfAk2qX19qH9rSQXVwyPEiIDDG6AqjkHliAfXAPNN03wRdaVbvHBd27Mli1lCWjb5g7bnd+eWJPbFAHJ6hq9naaV4OSVtV8262y3eyebzHjA543chmPX24rotWmjlufCN3pM6fYXaaWPzQ8jf6lickvnpkYzwe9TR+AZbW3sHF4t3ewzWu+WUbFWGH+BAM4659zV+78HiMWH9ly+TDp8ktxDbk8SO+coWIO1CGI4GeaAPOtJJTU9N1AXV3/AKVdgGRonBmDnCJIRcZKr26++a7vUdH1T/hOLvVEtr97WSzjgjeyuIo2yCSQwdhxzVG38BXml3Fhd2cOmT3SGV5vOXbHHI7AqUUA8IAQBx9a6q98NaVOk0sekaY10/zb5rZWBb1PGTQBiWt+xuNWsd+qQ3lpbLLIL+7QIqNn5g6B8EBT2rkWXUJQ+pp4ggN+crBf/a5SEtiwbZgW+1uB978a7ix8MzWDatdNDZzy3sKQLZw5ghWNQRjPJGdx7Vl/8IRqVvpMEUN/NIy3IaSzGoXEcAtsY8hTuJwOOSOfagBNVt73WND06A3jy2EuZZVhglvVuk6qGkXyyF74xz61z2g6xfadqdlqapcm2ubn+zvsSw3BijVWI3oWcgudvTHHIrvLPRZ4/DMdjfaZpt20Ln7PaMxMUUYOFXeykkhe+OareHfA+nadYWrX1hZtqENw9yskK48tixIAbgkAHHPHtQBn6jql1L4208Xml6iYB5q6dBE8a+a4BDyPlwQNvCg+ue9Zlt4ilsPD/iXTHgv7e00xXSC5lVHKk/8ALEkFgxBYAH0PqK6w6RqMviKbXLkQSSW0bQafarIQoViNzu237xx0A4HrUWk+GriHS9bS+S3M+p3UtyI1YukZIG0biBnGAc4oA4TStQWO101r1NRvrC10IyTwxSGDZh+u3cgYY4zySDXqehmA6VC1tpv9nQMNyQYQcHkHCEjmuTtvBeproN7azy2xuX0iPTrcK52jAJYk47sfToK7Wxha20+2gfBeKJUbHTIAFAHP+Of+PDSf+wvaf+h1L4htXvdb0SGO7ntWLTnzYCA33OnIIqLxz/x4aT/2F7T/ANDq9qf/ACMuh/Wf/wBApiID4bvO3ibVx/wKP/4imnwzf9vFWrj/AL9f/EV0dFIZzR8Mal28W6wPwh/+IpB4X1Qf8zhq/wD3xD/8RXTUUAc2PDWqj/mbdVP1jh/+IqrqvhXWLrR7y2j8TX8zywOixyRwhWJBGCQmQK66igDy3wn8LNW0HE0/ii6gxy1vYnCH1yW4P/fIPvXV/Dz/AJEHSP8Arkf/AEJq6Z/uN9K5r4ef8iFpH/XI/wDoTUAdNXK6z4o1Gz1yz0iw0WWe5mcyMXkj2mBfvMPn4PTG7FdVXnyFbPx14gfU9ZNu0lvAYpk2qYkJfEa7g3HGT6nNAHQweKoJdNm1OWynh06FHd7nzIpF+U4Iwjk5yD2rn1+IU50+OD7B/wAT6S4VFsPLcERMSQ+Op+QZ471haZPbx/CzV7c6nK9wbe5P2SQqNo3k7gNoPI5645p+lJNPq2o3mk6rHNNamwk825dAsi7CHjLBRgYJ6enegDsrzxlbPpXnaVG1xeytLHbwTI0e94uXUkjjAB64Gai1DxlLZWEl9FbabdQRmPckWpbpVDMF5URkDBP978a462he7h0mOFQzXV9qvk88PuVgME9vel1vSr2y0RHvYbK1lWwtbJbeO4Dyu4mU5wFHv0JoA6e8+IItNfm0v7BDiO5+z+bJdFf4d24jYcD8c1e8O+LX16+kt2trWALuK7bl2aVRj50DRKChz1z+FcVqd3O3inU57mK8j0iLz4vNWaUrKwC/Ko37d4+fAOFPpVvwC7L4hi+0Dc8tu5g8qdZBGmEG2QcFXwg+7kcn0oA9SrkPHMLXF54YhWeSBn1VQJYiAy/upOmQRXX1yvi//kLeFP8AsLD/ANFSUIGWj4bvO3ibVx/wKP8A+Iph8M3/AG8VauP+/X/xFdHRQBzJ8L6meni7WB/wGH/4igeGNVH/ADN+rH6pD/8AEV01FAHODw5qo/5mzVD9Y4f/AIiuM1z4W63rXisaj/wkTxxpEqi5Zf3+RngBAoA565zXq1FAHHaVpE2jeK9Otp9VvNRb+zrj97dMCwHmQ8DAH65NdjWFcf8AI96f/wBg65/9GQ1yHhjwZoHiEa1farZNcXP9s3ke83Ei/KJTgYVgKYj0yiuR/wCFYeD/APoEt/4Fzf8AxdH/AArDwf8A9Alv/Aub/wCLpDOuorkf+FYeD/8AoEt/4Fzf/F0f8Kw8H/8AQJb/AMC5v/i6AOuorkP+FYeD/wDoEt/4Fzf/ABdL/wAKw8H/APQJb/wLm/8Ai6AOuorkf+FYeD/+gS3/AIFzf/F0f8Kw8H/9Alv/AALm/wDi6AOuorkf+FYeD/8AoEt/4Fzf/F0f8Kw8H/8AQJb/AMC5v/i6AOuorkf+FYeD/wDoEt/4Fzf/ABdH/CsPB/8A0CW/8C5v/i6AOuorkf8AhWHg/wD6BLf+Bc3/AMXR/wAKw8H/APQJb/wLm/8Ai6AOuorkf+FYeD/+gS3/AIFzf/F0f8Kw8H/9Alv/AALm/wDi6AOuorkf+FYeD/8AoEt/4Fzf/F0f8Kw8H/8AQJb/AMC5v/i6AOurn9O/5HjXP+vW1/8Aatcr4l8GaB4e/sW+0qya3uf7XtI94uJG+UyAEYZiOa6rTv8AkeNc/wCvW1/9q0xGnqmfsXE3knzY/nyR/GOOPXp+NXaqakC1ngQeefMj+Tn+8OePTr+FW6QwooooA5Px3/qvD3/Yds//AEI11bZ2nbjOOM1ynjv/AFXh7/sO2f8A6Ea6ygDyS/t9dv8AV57BXvY7qzCXEkaJGqvHklQP3/KZzxzirFk2v6v4W0+9+wS3BlvorpUDKOBuLHeXPHHcDmvSL3TbW/jdJ0b94oV2ikaNyo7blIOOTxnHNPtLK2sbGKytYlitokEaRr0CjtQB4tDbpo+g2jxOyL4jtPss7SSZWBvMxvP91dpI9M4roPGukada6/a6i6mGNLX7O7myefzW42BQOOAD34ru7Lwxo2n280FvYR+VMnlyLITJlP7vzE4Xk8dKkg0DTLeRZEtsukXko8js5RMY2qWJ2j6YzQB5x8O4rAy28mnXEkxQFZSdLaN49+Ty+4gex5FQ6sIrW+jn1W7S10+LVGtYbS7WSRJ3GMXEu6RdwA+o4HFelxeHdKgFp5NmsTWiCOF43ZXVB/DuByR7EkVnxv4T0yVrhriz8+Z3iM1xP5sjFeGTc5LYHHGcCgDhtTke2+H2us+9h9ra3s47eP5HwMB1JyxTGT1OAODUF80SfDOX7NJqcIFsRcWU8G8LIxBDl8fKDzgg4IOK9H0y28OXtpfWul/ZntpRsuIbd8IMjH3QcKSPTGa0LrSbG90ltLuIA9k0YjMW4j5RjAyDnsKAPOfFsN3qfiPwylpH9nmDAOLiV9ocoSoIRsDgHlTnkfSobG4j83R7QTQG6TxDcloQ+4jh+xOcfWvUns7aRoGkt4naA7omdQTGcYyCehxxUP8AZGmhlYWFsrLIZVZYgGVz1YEchjk89aAPE9P0aDWNX1OG2mnsJrqOQSl4IMRhB87uM5gBzgY4x3OePQvhrcnU9MvdWk2LNcSpEyK2dojQKCfryfoRW6fCPh9rL7G+k2rw7t53puZmPUlj8xJ7knmtC302ztLqa5t7dYpZ1VZCnAYKMDjpwOM0AYHiv/kN+Ff+wl/7SeuprlvFf/Ib8K/9hL/2k9dTQByPxJ/5FNP+whZ/+lEdddXI/En/AJFNP+whZ/8ApRHXXUAFFFFABRRRQAUUUUAFNk/1bfQ06myf6tvoaAOX+Gv/ACTnRP8Ar3/9mNdVXK/DX/knOif9e/8A7Ma6qhggrNgEX/CTXxBfzvsdvuBA27d823Hvnd+laVUovN/tu6yYvK+zQ7cY37t0uc98Y24zx97HegDC1S0/tDxfNZb9n2jRJot2M43SKM/rSWuk+L7S0hto9d0zZCixrmwbOAMD+On6hdJYeNHvJQxjg0WWVgvUhZFJxVaLxxfzwpNF4K8QNHIoZWAg5B5B/wBZTEW/sHjL/oOaV/4L2/8AjlH2Dxl/0HNK/wDBe3/xyq//AAmep/8AQkeIPyg/+OUf8Jnqf/QkeIPyg/8AjlAFj7B4y/6Dmlf+C9v/AI5R9g8Zf9BzSv8AwXt/8cqv/wAJnqf/AEJHiD8oP/jlH/CZ6n/0JHiD8oP/AI5QBY+weMv+g5pX/gvb/wCOUfYPGX/Qc0r/AMF7f/HKr/8ACZ6n/wBCR4g/KD/45R/wmep/9CR4g/KD/wCOUAWPsHjL/oOaV/4L2/8AjlH2Dxl/0HNK/wDBe3/xyq//AAmep/8AQkeIPyg/+OUf8Jnqf/QkeIPyg/8AjlAFj7B4y/6Dmlf+C9v/AI5R9g8Zf9BzSv8AwXt/8cqv/wAJnqf/AEJHiD8oP/jlH/CZ6n/0JHiD8oP/AI5QBY+weMv+g5pX/gvb/wCOUfYPGX/Qc0r/AMF7f/HKr/8ACZ6n/wBCR4g/KD/45R/wmep/9CR4g/KD/wCOUAWPsHjL/oOaV/4L2/8AjlH2Dxl/0HNK/wDBe3/xyq//AAmep/8AQkeIPyg/+OUf8Jnqf/QkeIPyg/8AjlAFj7B4y/6Dmlf+C9v/AI5R9g8Zf9BzSv8AwXt/8cqv/wAJnqf/AEJHiD8oP/jlH/CZ6n/0JHiD8oP/AI5QAl14d8R6pLZLqWs2L21vdRXJSGzZGYo2QMlz/KtXU/8AkZdD+s//AKBWUPHU0V1axX3hbWrGK5nS3E86xbFZzgZ2uT+laup/8jLof1n/APQKANqiiikMKKKKACiiigBH+430rmvh5/yIWkf9cj/6E1dK/wBxvpXNfDz/AJELSP8Arkf/AEJqAOmpojQSGQIodgAWxyR9adRQA10SRCjqrIwwVYZBqOSztplZZbeFw2NwZAc46Z+lTUUARrbwqIwsMYEfCYUfL9PSmvaW0k6zvbxNMv3ZGQFh9D1qaigBFRUztULk5OBjJpaKKACuV8X/APIW8Kf9hYf+ipK6quV8X/8AIW8Kf9hYf+ipKEDOqooooAKKKKACiiigDCuP+R70/wD7B1z/AOjIazvh9/yD9a/7Dl7/AOjTWjcf8j3p/wD2Drn/ANGQ1nfD7/kH61/2HL3/ANGmmI66iiikM4jxNqN5ceN9F0S2R0RFe9aR2ZI5HQHahYc4HJI+lYvgO81LUJ7dE8vNsHnaY3Un72KSVxtKlSDgjIPsOetdF4x0XXNS1HT7jRTAkkUNxE0sz48vzFAyAOp61XtfD2raBq0K6PBE9qba2tmmkYfKqOTISuckkE4x3oA5rUPEI1uy8carHeSRW1rAljbL5hUHkksP9onp7Vux6hrmoeFLu+uSdN0ySGOOFWQC4WPGHlJZgFJ7Z6dfrX1T4djVJvE0klnAHuNjaaxkIVWEYBJUcA5HUitX+ydd1aC7tb6CODT5bKK1FrNNn5wfmkynPTAxkZ9qAOGGtTE2em/8JDdA6fC01vMDa7C+dsYb5sMAvUEkknNaHiXXr1Xsni1XUsSWPmq0b4Dt+8+Y+T8mMhefQfWunn8H3lxr9xcC/uIlfT1gW7jkw28OSV2D+HGOP1zzVTUPAd/eR28dtPY2cVvZfZlh2vKGxuHUkEAhvfn17gGJoOtaqPGpsp9U2z3V5vuZY2R7VkCcQoWXIk6DAb1PWrWuvqh0y+h1rVLma4tN935FlNFEYwrZjJ/dbipGASCeeDVyy8H6nbz2SmwtFgh1Qzsy3bZ8nLEDytuzHI71a1fwSfENw0LW/wDZlmGIecTtLPMM5wBkqqE8nOScdBQA3W38QWXhvWLuXUTLZPYRmHzlUyI7cOP3aoehGD61zI8SXtjrNmIPERvFtIEt40WwmYyKX2u0qBgRINowD1rp5/CurLo1zpyR2ksrNFi6E0iCaNXBZWQltjcdRkc9ulZieD9ZElvc3NoxMgMksVrOu6JvPMgUMxXPBxuH5UAN13xK2rS6HYw6l9mmltZr43DA2qghWWPdljtG7OeT0FM0jXBc6rYWkWq+VPZTxC9lm1zzY7kFOQiliGy2OgGOla8HhrW4odAeCK0t7qzjnieQtu8pGGEHq5AJ9s07RvBl1ouv39/YssZMkXlvK+77THtHmCTHIJb5gfX2oA5STXNZUajHHql0k80hihWWQusg82QNtUq+PlXb8oGMZrrPAN5eG6vdNmup5La0jjFvFOwMkaEcbyYkJJIbnJ4qv/wr57rTWaZo0vhcSyL526VQC7MgUB1C/eyc5rS8EeFrvQIWur6S3N5cwotwscZBDLnHIYqep6KKAOvooooA5Px9/wAeGjf9huy/9Girmnf8jxrn/Xra/wDtWqfj7/jw0b/sN2X/AKNFXNO/5HjXP+vW1/8AatPoLqaWrbfsPzSNGPNj+ZRk/fHH49KvVU1FXe0xHCszeYh2MOMbhk/h1/CrdIYUUUUAcn47/wBV4e/7Dtn/AOhGusrk/Hf+q8Pf9h2z/wDQjXWUAFFFFABRRRQA1/uNwTx0Xr+FeL2VzNYXsVxFLcWZS71AiSa7jBA3qMHzQyg5wD3J717SQSCAcH19K5P/AIV9px3s95etK0ol80Mqsreb5pIwvGWx+AoAg+Hl1JqNlcancXH2i8uliNzJ58TYYLgDYijZx2PNdpWZpWiQ6Tc3s8dxczvdsrObiTeRtXaMHr09a06ACiiigAooooA5bxX/AMhvwr/2Ev8A2k9dTXLeK/8AkN+Ff+wl/wC0nrqaAOR+JP8AyKaf9hCz/wDSiOuurkfiT/yKaf8AYQs//SiOuuoAKKKKACiiigAooooAKbJ/q2+hp1Nk/wBW30NAHL/DX/knOif9e/8A7Ma6quV+Gv8AyTnRP+vf/wBmNdVQwQVmwGL/AISa+AVhMLO3LNu4K75sAD1zu/MelaVUojJ/bl0DNGYvs0O2IEb1bdLliOuD8oH+6aAOY8Tf8hvUf+xeuP8A0IV0uh/8i/pv/XrF/wCgiua8Tf8AIb1H/sXrj/0IV0uh/wDIv6b/ANesX/oIpiINX8S6ZocyRX0kqu8TzARwvJhFxuY7QcAZFZen+ObW405L2/sL6willCRSPbyMkisQEfcFwA2R19aofEnzGsbSA6at7FdSi32tciIBm6HGOcYyMsBXK6DaX+h+KtN+16XbXstyDbwmMxW6Q7VyW2IzAkgHk/QUhnpGr+LNI0YXCzTtNcQBS9tboZJeenyj86d/wlWjNbXE0V9HIbeLzpI9wVgp4HDYxk8c96xNM/tOXxf4luNN+xmEywwsZy331j5Ax6ZpL/TdTg1DVdb1SPTpLcaaI9i7mB2OXOVI9OnvQBIfiLp4vVtDp1/5zRmQDMONoOOvmVvWniDTLqxhujeQQrKDhZZkByDgjgkcH0NeUJNLJeiL+z5ixVbdJNsOWaTEoXZjbnCg5x3x1ro7nVUXQtGew0y4nvZVM8KW0CrAVJw3nFsKuSeemDyMUAdDaePNDu5rWNZ2Q3M0sCFyuAyHHJBOAccHvU0/iqK28TT6M1ldSeVbJOZYIml+8SNpVQSOmc1594QGoi1hk1IRWWkT30sxnt4g7K4kx5TPjCoWH3uh6ZFdtqGmSyapcakdI2Suoja4i1iWDei/dyFwO9AGo/iSxhtbi5nivoIbeMyO81nIgx6DK8n2FR2evXV7ptveR6BqGJsny98KsgB43BnGCRzjtXM6bPqh1jxHDp9wx8mzg8qO5vJLmKKUhixDMTk4wcfSq9jZiP4RnVY7m9ivhZS3Blhu5Y90p3EuQGAJz6igDrdS8TQ6RBYy31pNB9qnEJR3j3RZ/iIDHIzjpnGeaZoHizT9b05Lppra2d5HRYWuFZjhioPbrjP41j6lq1loHgi0lmD3mpXcCrawzuZpZpnUdN5Jxk5PYVg3Hh7UdG8KaXp1/HYSRm7s1jaOPEwkMm5wx6H68UAeg3etx22t2mkxQSXFzOrSSCMj9zGBwzZ9TgD/AOtUFr4mtZ/D9xqsiNbm23rPBIfmideCrY/D8xXN3OlQyfES3tLK91As0clzqrR3ki7h0iVtpAXGTgDHArLtNIvLm28bXFjqF4lwZ3sh585kURKBk/NliwBbBz3oA6jT/HEOqR2S2WmXVzdXVn9r8qJ4wqDO0gs7Lzn0FdJaPcyW6tdwRwTHqkcvmAf8CwP5V49aQzf2M14l9debYeGleOSKRomiZmJVSUI3YCk8+1esaHCIdGtMSTSF4ldmmmeViSATyxJ/CgDH8c/8eGk/9he0/wDQ6van/wAjLof1n/8AQKo+Of8Ajw0n/sL2n/odXtT/AORl0P6z/wDoFMRtUUUUhhRRRQAUUUUAI/3G+lc18PP+RC0j/rkf/QmrpX+430rlPh/d20fgTSVe4iVhEcguAfvNQB1lFQfbrT/n6g/7+Cj7daf8/UH/AH8FAE9FQfbrT/n6g/7+Cj7daf8AP1B/38FAE9FQfbrT/n6g/wC/go+3Wn/P1B/38FAE9FQfbrT/AJ+oP+/go+3Wn/P1B/38FAE9cr4v/wCQt4U/7Cw/9FSV0f260/5+oP8Av4K5jxXcQTav4UEU0bn+1hwrA/8ALKShAzrqKKKACiiigAooooAwrj/ke9P/AOwdc/8AoyGuV8L+KNM8PrrNnqX2yKc6xeSBVspnBVpCQQVUg5rqrj/ke9P/AOwdc/8AoyGt2mI5X/hYnh3/AJ7Xv/gvn/8AiKP+FieHf+e17/4L5/8A4iuqopDOV/4WJ4d/57Xv/gvn/wDiKP8AhYnh3/nte/8Agvn/APiK6qigDlf+FieHf+e17/4L5/8A4ij/AIWJ4d/57Xv/AIL5/wD4iuqooA5X/hYnh3/nte/+C+f/AOIo/wCFieHf+e17/wCC+f8A+IrqqKAOV/4WJ4d/57Xv/gvn/wDiKP8AhYnh3/nte/8Agvn/APiK6qigDlf+FieHf+e17/4L5/8A4ij/AIWJ4d/57Xv/AIL5/wD4iuqooA5X/hYnh3/nte/+C+f/AOIo/wCFieHf+e17/wCC+f8A+IrqqKAOV/4WJ4d/57Xv/gvn/wDiKP8AhYnh3/nte/8Agvn/APiK6qigDlf+FieHf+e17/4L5/8A4ij/AIWJ4d/57Xv/AIL5/wD4iuqooA858S+KdM19dGs9N+2SzjV7SQq1lMgCrICSSygcV02nf8jxrn/Xra/+1a6Cuf07/keNc/69bX/2rTEaWreX9h/es4XzY+UGTneMfrV6qmorK9piJEd/MQ4fGMbhnr7VbpDCiiigDk/Hf+q8Pf8AYds//QjXWVyfjv8A1Xh7/sO2f/oRrrKACiiigAooooAKKKKACiiigAooooAKKKKAOW8V/wDIb8K/9hL/ANpPXU1y3iv/AJDfhX/sJf8AtJ66mgDkfiT/AMimn/YQs/8A0ojrrq5H4k/8imn/AGELP/0ojrrqACiiigAooooAKKKKACmyf6tvoadTZP8AVt9DQBy/w1/5Jzon/Xv/AOzGuqrlfhr/AMk50T/r3/8AZjXVUMEFZ0LR/wDCR3qiEiQWluWl3HDDfNhcdscnPfd7Vo1Ri3/29d5uFZPssGIMnKHdLlsdMNwP+AH0oA5rxN/yG9R/7F64/wDQxV3RvFPh6PQ9PR9e0tXW2jDK15GCDtHB5q1q+k30upwanpctqLlIHtpIrtGMckbEN/DyCCvv1NZn9ja5/wBArwt/36f/AOJpiL17rfg/UUjS91bRbhI3EirLdRMAw6HBNQpqHgaO5huY77w/HPCSY5EnhVlJGDgg+lQf2Nrn/QK8Lf8Afp//AImj+xtc/wCgV4W/79P/APE0AaFt4h8KWautvrWjxK7tI4W7jG5icknnqadP4l8LXVvJBPrmkSRSKUdGvIyGB4IPNZv9ja5/0CvC3/fp/wD4mj+xtc/6BXhb/v0//wATQBbk1fwZLbG3fVNEMRAG37VF0AwO/YcU6PXPB8VglgmraILRFCLB9piKBR0GM1S/sbXP+gV4W/79P/8AE0f2Nrn/AECvC3/fp/8A4mgDTi8T+F4Ilih1zR441GFRLuIAD2ANEvibwvPE0U2uaPJGwwyPdxEH6gmsz+xtc/6BXhb/AL9P/wDE0f2Nrn/QK8Lf9+n/APiaAL8Gv+EbaFobfV9Ehjb7yR3MSg/gDVOW68CTWcFnJqGiG2gG2OH7XGFUemN2KZ/Y2uf9Arwt/wB+n/8AiaP7G1z/AKBXhb/v0/8A8TQBffXvCMk8E76vojTQZETm5iJjzwcHPFVzqPgltQF+2qaM10G3iRrxCQ3TIy2Aag/sbXP+gV4W/wC/T/8AxNH9ja5/0CvC3/fp/wD4mgCyuq+DFiuol1XRlW6cvPtu4wZGPcndk0601jwbY2b2drq2jRW7li0a3ceGLdSeec1U/sbXP+gV4W/79P8A/E0f2Nrn/QK8Lf8Afp//AImgCaK/8Dw2c1nHqOhrbzII5YxcxYdQMAHnpjir0fijwzFGscevaSqIAqqLyPAA6DrWX/Y2uf8AQK8Lf9+n/wDiaP7G1z/oFeFv+/T/APxNAFTxbr2j6jBpFvZatY3Mx1a1IjhuEdsB+TgHNb+p/wDIy6H9Z/8A0Cs2PStfikWSPTfDCOpyrLHICD7HbV2007WrjWbe/wBXnslS1RxFDaK3zMwALMzegHAA70Ab9FFFIYUUUUAFFFFABXOv4B8JSSM7+HdOZmJJJgXkmuiooA5v/hX3hD/oXNN/78LR/wAK+8If9C5pv/fha6SigDm/+FfeEP8AoXNN/wC/C0f8K+8If9C5pv8A34WukooA5v8A4V94Q/6FzTf+/C0f8K+8If8AQuab/wB+FrpKKAOb/wCFfeEP+hc03/vwtH/CvvCH/Quab/34WukooA5v/hX3hD/oXNN/78LU9l4M8NabeR3dlodjBcxHKSxwgMp9jW7RQAUUUUAFFFFABRRRQBhXH/I96f8A9g65/wDRkNbtYusaZqE2o2ep6VcW8d1bxyQtHcoTHIjlSRkcggoCDz3qHPjH+5oX/fU3+FAHQUVz+fGP93Qv++pv8KM+Mf7uhf8AfU3+FAHQUVz+fGP93Qv++pv8KM+Mf7uhf99Tf4UAdBRXP58Y/wB3Qv8Avqb/AAoz4x/u6F/31N/hQB0FFc/nxj/d0L/vqb/CjPjH+7oX/fU3+FAHQUVz+fGP93Qv++pv8KM+Mf7uhf8AfU3+FAHQUVz+fGP93Qv++pv8KM+Mf7uhf99Tf4UAdBRXP58Y/wB3Qv8Avqb/AAoz4x/u6F/31N/hQB0FFc/nxj/d0L/vqb/CjPjH+7oX/fU3+FAHQUVz+fGP93Qv++pv8KM+Mf7uhf8AfU3+FAHQVz+nf8jxrn/Xra/+1aM+Mf7uhf8AfU3+FTaLpd9bX19qOpzwSXl35alLdSI40QHAGTknLEk+9AFzVvK+w/vw5TzY/uEZzvGOvvir1VNS837H+5ZVfzE5YgDG4Z6+1W6ACiiigDk/Hf8AqvD3/Yds/wD0I11lcn47/wBV4e/7Dtn/AOhGusoAKKKKACiiigAooooAKKKKACiiigAooooA5bxX/wAhvwr/ANhL/wBpPXU1y3iv/kN+Ff8AsJf+0nrqaAMjxNoQ8R6K2nm6e1JljmWVFDFWRw44PB5UVnf2B4l/6HGX/wAAIq6iigDl/wCwPEv/AEOMv/gBFR/YHiX/AKHGX/wAirqKKAOX/sDxL/0OMv8A4ARVkRQ+KJPF11oh8VuEhso7oS/YYsks7LjH/Af1rv65S1/5KrqP/YHt/wD0bJQA/wDsDxL/ANDjL/4ARUf2B4l/6HGX/wAAIq6iigDl/wCwPEv/AEOMv/gBFQfD/iUgg+MZef8ApwirqKKAMzw7oyeHvD9lpMczTJax7BI4ALck5wPrWnRRQAVVuNOtroyNIsivIqo7xStGxCklRuUg8Fm/OrVFAFFdKtleBw93mAYTN5KQec/MN2G6/wAWaZ/Ylp5Tx+ZfbXYMf9Onzkeh35A56DitGigCkml20c8MyvdboVCqDdylSP8AaUthjz1IJqP+xLT7OYPMvthffn7fPuzjH3t+ce2cVo0UAUl0q2S4WYPd71TYAbuUrjGOV3YJx3IznnrUZ0S0NssHmX2xXLg/bp92cY+9vyR7ZxWjRQBSGlWwnebfd72UoR9rl24Ixwu7APuBnvTDotoYY4vMvdsbFlP26bdk+p35I46E1oUUAUf7JtvOml33e6ZSrD7ZNgA9do3YX6jGO1J/Y9rsgTzLzEJJT/TZsnJz8x3Zb8c1fooAof2Pa7pm8y8zMCG/02bAyc/KN/y/hj06Uq6TbKbch7v/AEf7mbyU55z83zfP/wACz6dKvUUAZ40W0Cyr5l7iU5b/AE6bI5zwd/y/hinrpduksEge63QLtTN3KQRz94FsMeerZq7RQBnDRLQQvF5l9tZgxP2+fOR6HfkDnoOKlXS7dJ4pg91uiTYoN3KVIxjlS2GPPUgmrlFAGb/Ydn9n8nzL7Zu35+3z7s4x97fnHtnFSjSrYTiYPd7gnl4N3LtxjH3d2M474znnOau0UAZx0S0NusBkvtisWBF/PuyfVt+SOOmcVJ/ZVt50ku+73SIUI+1y7cEY4G7APuOau0UAZ7aLaNDFEZL3bESVIvpgTnrk78t075x2p39k23mzyb7vdMpV/wDTJcAH+6N2FPuMEVeooAof2RalYF33mIM7P9NmycnPzfN83/As+nSgaPajz/3l5++GH/02bjnPy/P8v4Y9OlX6KAKI0m2V4GD3eYBhM3kpB5z8w3fN/wACzTF0S0WOVBJfYkxuzfTkjBzwd+V/DFaNFAFNdLt1mglD3W6FAiA3cpBHP3huwx56tk/lUQ0OzWFohJfbWIYk385bI9DvyOvQVo0UAUxpluJ45g91uSPywDdy7cYxyu7BPPUjPfOah/sOz+z+T5l9s3bs/b592cY+9vzj2zitKigCl/Zdv55m33W4x+Xj7XLtxjH3d2M++M55zmojodm0CwmS+2qSwIv5w3Pq2/J6dCeK0qKAPC/HPj3W/D/jfVdPsWj8hVSMeZJMxw0ak4/eAA5PUAEV6Z4Xt01vwho99dyXQmlt1lby72dfmbk/x5I9Mk4rwv4q/wDJStY+sX/opK958Af8k/0H/ryj/lQBqnSbYyTvvu8zgh/9MlwMnPyjdhfquKQ6PakQDzLz9z9z/TZuec/N83zf8Cz6VfooAoDR7UCceZefvvv/AOmzcc5+X5vl/DHpSjSbYSQPvu8wAKn+mS4ODn5huw31bNXqKAM5dFtFiljEl7tkILZvpiRj0O/I/DGakGl24mil33W6JAij7XLggDHI3YY89Tk1dooAzRodmsDQiS+2sQxJv5y3Ho2/I69Aeal/su388Tb7rcI/Lx9rl24xj7u7GffGc85zV2igDN/sOz+z+T5l9s3bs/b592cY+9vzj2zipjpluZ5Ji91uePyyBdy7cYxwu7APHUDPfOauUUAZx0OzaFYjJfbVJYEX84bn1O/J6dD0qVtLt2mnlL3W6ZSjgXcoAHH3Ruwp46rg/nVyigDObRLRo4kMl9iLO3F9OCcnPJ35b8c086TbF52L3eZxh8XkoA5z8o3fL/wHFXqKAKB0e1JgPmXn7kYT/TZuec/N83zfjn06UDR7ULOvmXmJ8b/9NmyMHPynd8v/AAHHp0q/RQBR/sq282CTfd7oVCp/pkuCB/eG7DH3OSaaui2iwyxCS92ykFib6YkY6YO/K9e2M960KKAKX9lW3nRy77vdGgQD7XLtwBjkbsE+55qMaJaC3aASX2xmDEm/n3ZHo2/IHtnFaNFAFI6VbGczb7rcU8vH2uXbjGPu7sZx3xnPOc1F/Ydn9n8nzL7Zu35+3z7s4x97fnHtnFaVFAFNtMt3nlmL3W6VNjAXUoUDAHC7sKeOoANRHRLQwpF5l9tViwP2+fOT6nfkjjoa0aKAKTaXbtLPIXut067XxdygAcfdG7C9Oq4ph0iDbEvn3oEfT/S5Oec8ndz+NaFFAFI6XCxnPnXf7/72Llxt5z8vPy/him/2TDuhbz7zMIAX/SpMHBz83PzfjV+igCj/AGVDsmTz7zExBY/apMjBz8pz8v4Uv9lw+bDJ513mJQoH2l8HHqM4J+tXaKAM8aRAIZIvPvdrsGJ+1ybhj0Ocgewp50yEzrN513uVQoH2l9uMY5GcE+9XaKAM46LbNAIWlu3QSrL89y7HK9OSent0rRoooAKKKKAMbxLoH/CQ2EFut7LZS29zHcwzxKrMjocg4YEH8ayv+EV8R/8AQ96l/wCAdv8A/EV11FAHI/8ACK+I/wDoe9S/8A7f/wCIo/4RXxH/AND3qX/gHb//ABFddRRcLHI/8Ir4j/6HvUv/AADt/wD4ij/hFfEf/Q96l/4B2/8A8RXXUUXCxyP/AAiviP8A6HvUv/AO3/8AiKP+EV8R/wDQ96l/4B2//wARXXUUXCxyP/CK+I/+h71L/wAA7f8A+Io/4RXxH/0Pepf+Adv/APEV11FFwscj/wAIr4j/AOh71L/wDt//AIij/hFfEf8A0Pepf+Adv/8AEV11FFwscj/wiviP/oe9S/8AAO3/APiKP+EV8R/9D3qX/gHb/wDxFddRRcLHJW/g7UTq1he6n4pvtRSylM0cElvCiltpXJKqD3rraKKACiiigAooooAK5S1/5KrqP/YHt/8A0bJXV1ylr/yVXUf+wPb/APo2SgDq6KKKACiiigAooooAKKKKACiiigAooooAKKKKACiiigAooooAKKKKACiiigAooooAKKKKACiiigAooooAKKKKACiiigAooooAKKKKACiiigD5j+Kv/JStY+sX/opK958Af8k/0H/ryj/lXg3xV/5KVrH1i/8ARSV7z4A/5J/oP/XlH/KgDo6KKKACiiigAooooAKKKKACiiigAooooAKKKKACiiigAooooAKKKKACiiigAooooAKKKKACiiigAooooAKKKKACiiigAooooAKKKKACiiigAooooAKKKKACiiigAooooAKKKKACiiigAooooAKKKKACuUtf+Sq6j/2B7f8A9GyV1deQ6L43u774vT2x0fy55oxYSKZ8+WIndmf7vPBPH05oA9eooooAKKKKACiiigAooooAKKKKACiiigAooooAKKKKACiiigAooooAKKKKACiiigAooooAKKKKACiiigAooooAKKKKACiiigAooooAKRnVF3OwVfUnFLWX4k0ldc8OahprdbiFlU+jY+U/nigD52+KbK/xJ1dlYMCYsEHI/wBUle8fD+RG8BaGgdSwso8gHkcV8syK8cjJICHUlWB9RxXt3wL0cx6dqOsyA5mcW8WSfury36kfkaAPXaKKKACiiigAooooAKKKKACiiigAooooAKKKKACiiigAooooAKKKKACiiigAooooAKKKKACiiigAooooAKKKKACiiigAooooAKKQkAZJxSb0/vr+dADqKbvT++v50b0/vr+dADqKbvT++v50b0/vr+dADqKbvT++v50b0/vr+dADqKbvT++v50b0/vr+dADqKbvT++v50b0/vr+dADqKbvT++v50b0/vr+dADqKQOpOAwJ+tLQBn61rVloGmSahqDulujKpKIXYliFAAHJJJFYP/AAsfRP8An11r/wAFNx/8RS/Eb/kVo/8AsI2f/pQldbTEcj/wsfRP+fXWv/BTcf8AxFH/AAsfRP8An11r/wAFNx/8RXXUUAcj/wALH0T/AJ9da/8ABTcf/EVyNhq2hWfxI1LxKLTV/KubZFQDSrjIkPD8bPRVOfUmvXKKBnI/8LH0T/n11r/wU3H/AMRR/wALH0T/AJ9da/8ABTcf/EV11FAjkf8AhY+if8+utf8AgpuP/iKT/hZGif8APrrX/gpuP/iK6+myf6tvoaAK2l6na6zplvqNjJ5lrcIHjcgjI+hq3XKfDT/km+hf9ew/ma6ukMKKKypLYXms3sE1zJ5JtbciGKd42Q75ct8pGM8Dg87eegoA1aKorpNsr27h7vMAwmbuUg85+YbsN1/izTP7EtPJeLzL3a7Bj/p02cjPQ78gc9BxQBo0VSTSraOeGZXut0KhVDXcpUj3Uthjz1IJqP8AsSz+zGDzL3YX35+3Tbs4x97fnHtnFAGjRVJdKtluFnD3W9U2AG7lK4xj7u7BOO+M5561H/Ylp9mWDzL3Yrlwft027OMfe35I9s4oA0aKo/2TbfaHm33e91Kkfa5duCMcLuwD7gZ703+xbQwxxb73bGxZT9umzk+p35I46HIoA0KKoHSLUyzS77vdMCG/0ybAz12jdhfwxjtQNItQkC77vEBLJ/pk2SSc/Md3zfRs+lAF+is86NaEznfeZm+//ps3HOfl+b5fwx6dKcuk2ym3Ie7zb/czeSnPOfm+b5v+BZ9KAL1FZ39i2myVN97iQgt/p02fwO/j8MVIulWySwSB7rdAu1M3cpBHP3gWw3Xq2aALtFZ39iWYgaHzL3YzByft0+7I4+9vyBz0zipE0q2SeOYPdb402KDdylcYxypbBPuQT360AXaKzv7Es/swg8y92B9+ft0+7OMfe35x7ZxUg0q2Fx5we637NmDdy7cYx93djOO+M5560AXaK53XRpXh/wAPy3t4dSa2tmDbYbyZpGZmCgZ3gnkjgnFYv/CSwefLN/winjTfKpVhsk24PoPNwD7jBFAHeUVwJ8RW5ihj/wCEU8a7YWLL8smSSc8nzct06HOKX/hI7fzJ3/4RTxrmYEP8kmBk5+UebhfwxinYDvaK4MeJYALcDwp40/0c5TKSc85+b9783/As+nSm/wDCRW2Jh/winjX99975ZeOc8fvfl/DHpRYDvqK4NfE0CvbuPCnjPMAwmY5CDzn5h5uG/wCBZpg8QWwikj/4RXxttdgx4lzkeh83IHPQUWA7+iuETxPCk0Mo8KeM90K7FBicgjn7wMuGPPU5NRf2/a/ZzB/wivjbYW35xLuzjH3vOzj2ziiwHoFFcIviaBZ0mHhTxnvVPLAMchXGMcr5uCcdyM5561GfEFsbZYP+EV8bbFYuDiXdnGPvedkj2ziiwHf0Vwg8TQCdpv8AhFPGe9kKEeXJtxjHC+bgH3Az361GfENsYI4T4V8bbY2LKcS7sn1Pm5PToTxRYDyH4naIdG8e30cafursi5hA77+o/wC+t3HpivoHwdow0DwlpunYw8UIMnHV2+Zv1JrhNai0TX9St7+/8H+NHmhbcMRNg85xgyHA9lxW0fEluUgX/hFPGuISSnySZOTn5j5uW/HNFgO9orgf+Ejt907f8Ip41zMCH+WTjJz8v735fwx6dKcviWBWtyPCnjTNv9zMchzzn5v3vzf8Cz6UWA7yiuAHiG2CSr/wivjbEpy3EueueD5vy/hipF8TwpLBIPCnjPdAu1MxuQRz94GXDHnq2aLAd3RXADxBaiFov+EV8bbWYMTiXOR6Hzsgc9BxUi+J4UnimHhTxnviTy1BicrjGOV83BPPUgnvRYDu6K8//t+1+z+QfCnjUpu38iUnOMdfNzj26VKPE1sJ/OHhDxdv2eX/AMe7YxjHTzMZx360WA7uiuAPiCzNukB8H+MPLRiw/cvnJ9/NyelE3i7TbRpLu88NeKLWJwIpZ54WWNAxC5P7zjqOQM0WC539FUDo1kYYois+yIkp/pEmcnk5O7J6d6X+yLPzJ32zbpwVf/SJOhOTgbuPwxSAvUVR/sizxANs37jJj/0iT1zz83PPrmmjRbIed8s/777/APpMnrnj5uOfSgDQoqkulWivA4WbdAMR/v39c88/N+OajGiWIjkjCz7ZCC3+kyZ49Du4/CgDRoqmumWqTQygS74U2JmZyMc9RnB6nk5NRDQ7EQGHbPsLBj/pMucj33Z70AaNFUxpdqJ0mAl3pH5Y/fvjbjHTOCcd+tRHQ7A24g2z+WG3D/SZc5xjruzQBo0VS/sq085ptsu9k8s/v3xjGOmcZx360w6JYtBHCVn2Rksv+kyZyevO7J6d6ANCiqX9lWnmzS7Zt8ylH/fvjB64GcD6imnRrIxwoVm2wklP9Ik7nPJ3c/jmgC/RVH+x7PdO22bM4If/AEiTuc8fNx+GKBpFmDAds2YP9X/pEnrnn5ufxzQBeorPGi2KrKoWfEv3/wDSZPXPHzcfhT10q0WWCQCXdAoVMzuRjnqM4PXvmgC7RWcNDsVheILPscgn/SZM5HTndkdalXTLVZ4pgJd8SeWv758bcEcjOCeep5oAuUVnf2HYeR5O2fZu3f8AHzLnOMdd2al/sq087zsS7/L8v/XvjbjHTOM479aALlFZE+nw2aWgtpXi23K/fndtwJGV5JznHQ1r0AFFFFAHHfEW2hvtO0WzuYxJb3Gs2sUsZ6OpYgg1L/wrHwX/ANC9af8Aj3+NHjv/AFXh7/sO2f8A6Ea6ymI5P/hWPgv/AKF60/8AHv8AGj/hWPgv/oXrT/x7/GusopXHY5P/AIVj4L/6F60/8e/xo/4Vj4L/AOhetP8Ax7/GusoouFjk/wDhWPgv/oXrT/x7/Gj/AIVj4L/6F60/8e/xrrKKLhY5P/hWPgv/AKF60/8AHv8AGj/hWPgv/oXrT/x7/GusoouFjk/+FY+C/wDoXrT/AMe/xo/4Vj4L/wChetP/AB7/ABrrKKLhY5P/AIVj4L/6F60/8e/xo/4Vj4L/AOhetP8Ax7/GusoouFjzzUvCOgeHfEnhi50jS4bSZ9QKM8eclfKfjrXodct4r/5DfhX/ALCX/tJ66mgDkviN/wAitH/2EbP/ANKErra5L4jf8itH/wBhGz/9KErraACiiigAooooAKKKKACmyf6p/wDdNOpsn+qf/dNAHLfDT/km+hf9ew/ma6uuU+Gn/JN9C/69h/M11dDBBVGIf8T67b7Ky5tYB9oycP8ANL8np8vXjn5+e1Xqzocf8JHe/vyT9kt/3POF+eb5vTnp/wAB+lAGjRRRQAUUUUAFFFFABRRRQAUUUUAFFFFABRRRQAUUUUAFFFFAHJfEv/kQ73/rtbf+j4662uS+Jf8AyId7/wBdrb/0fHXW0CCiiigYVHPL5FvLNjPloWxkDOBnqeBUlRzyCG3klJACKWJJA6D1PA/GgDgZPiTLJqllaW9tp0ashmuXm1GMrGv9zevyh89snitG48al9Ge4tUtFuWvIrSAi5SeN2cj5soemCeuDxXn11F5+p+bc2ev37ak8kckunvFbxT/KTwFJErADqTtI/Kuj1PyNT8L6f57eWdP1K3jiPyRvCpYL86qcKwGeoX6UAaMXxBlk0m4udlg0+Zo44oZi7IUDkNIpwQp2frWvP4luPI0a2tEgk1K+jjmlVztSGLALuecgc4Hqa4KTRzFo99q32vOnq7wWT3jhHeBYpAuM43ZZzjuRW1fabp+qPoGlR2EL3cQt7vU5njB8mJEGFdj0zgDb6A0Adbp2uyS6rf6beRxrcREy2ohbInh7EE/xA8EduO1c9p/jrUb2K2AsYEkutRntEedvLRVQEjOC2Txg9BnpUOk6RpWp+Ptbu9OhtBFBaQx211aqNscjBtxUrxnBGaw/Cmh2hvNO03yzcpbXt7LMJvnUqnyKSp4yS36UAdzrOsalofhLVNUluLG4uoI98aRRnYhzgA/NlvrxU8Gt6pJBGzaXbF2UE4v1HOPpWP4L0zzfAdmtnHp8LTF/PM9n5okAdsAgMufxJrN8VaSP7Ku9NjtNOnvZQiRJZaK8TAll5Em5lGBmgDevvFl2l7e6da2EcdzAsaCa5nCxeY65UZxzzx2z2pmk+MLqZdNjv7SANdiVGurebMQeMHfkMAQMg9areKZLqK5hSz1COW8hQCLTYbZ5XlBAG2XEgXYT/EwGPWo/BbavpENtomqmK0mUu/ltaMRMSSx2TCQqeT0Kg8dO9AF3/hJtTHh9dQ/4k7yiGaYxpdlhMIycmMqDkYx9M806/wDEup6b4Yh1i5h05TO0OxDM4UCTHVivBGc+mAa4mNbuDSrK2uNNv4pIrLUEGbZ23GT7n3QcZ98Gtm702C68KaOmlW1611a3Fs8tvskQM5Xad28dBk89BQBoat411TTprpYrTTrmK3tYbnzEnfEgkfYNpC+vOfStHUPFF3b30+lwWULXqRR7Xkm2o0jg7Qq43MARz7V59eaMjaRrtzPaMhs47SxyWYbpVZTIR6j5gPT0rrvFlj5ksGmaJdTxancIkJSAKxhhzlndyCyDHuMn1oA0LDxbdfb7HS9RsoBeyyeRObafcI5ApYkqQGCnBwa6yuF0/Vo7bxddWGqS/bL2G5jt7FzGizCN49zE7QMoCDzjFd1QAUUUUAFcp8Sf+RB1L6w/+jkrq65T4k/8iDqX1h/9HJQgOrooooAKKKKACiiigAooooAKKKKACiiigAooooAKKKKACiiigAooooAKKKKAKmoDK2/+jmbFwh4J+Tn73HpVuqWpY22uZTH/AKTH0z83PTj1q7QAUUUUAcn47/1Xh7/sO2f/AKEa6yuT8d/6rw9/2HbP/wBCNdZQAUUUUAFFFFABRRRQAUUUUAFFFFABRRRQBy3iv/kN+Ff+wl/7SeuprlvFf/Ib8K/9hL/2k9dTQByXxG/5FaP/ALCNn/6UJXW1yXxG/wCRWj/7CNn/AOlCV1tABRRRQAUUUUAFFFFABTZP9U/+6adTZP8AVP8A7poA5b4af8k30L/r2H8zXV1ynw0/5JvoX/XsP5muroYIKoxKw127Y2wVDbQgT85chpcr6fLkH/gdXqzofL/4SS9xI5l+x2+5CPlA3zYIPqec/QUAaNFFFABRRRQAUUUUAFFFFABRRRQAUUUUAFFFFABRRRQAUUUUAc7450u81nwheWWnxCW6Z4XSMuF3bJUYjJ4HCmof7e8T/wDQmS/+DKH/ABrqKKAOX/t7xP8A9CZL/wCDKH/Gj+3vE/8A0Jkv/gyh/wAa6iigDl/7e8T/APQmS/8Agyh/xo/t7xP/ANCZL/4MYf8AGuoooA5f+3fE/wD0JcnH/URg/wAaP7d8Tf8AQlyc/wDURg/xrqKKAOXOueJiMHwXIR/2EYP8aP7d8T/9CXJz/wBRGD/GuoooA5ca74mAwPBcg+mowf40f274nH/Mlyf+DGD/ABrqKKAOX/t3xOP+ZMl/8GMP+NV4vFfiCe8uLSPwfKZrcKZV/tCHjcMjnv0rsK5TRtY02fxlrSQ6hayNMtuIwkqkvhDnGDzigB/9u+J85/4QuTP/AGEYP8aP7e8T/wDQmS/+DGH/ABrqKKAOX/t7xP8A9CZL/wCDKH/Gj+3vE/8A0Jkv/gyh/wAa6iigDl/7d8T/APQmS/8Agxh/xo/t3xPnP/CGSf8Agxg/xrqKKAOX/t3xNnP/AAhcmfX+0YP8aP7e8T/9CZL/AODKH/GuoooA5f8At7xP/wBCZL/4Mof8aP7e8T/9CZL/AODKH/GuoooA5f8At7xP/wBCZL/4Mof8ayvEr+KfEWg3GlL4Ua3M7R/vWv4WChXVicA5PSu9opgFFFFIAooooAKKKKACiiigAooooAKKKKACiiigAooooAKKKKACiiigAooooAqX6sy2+2ATYnQnOflGfvfhVuqOp7Ntrvd1/wBJjxtGcnPAPtV6gAooooA5Px3/AKrw9/2HbP8A9CNdZXJ+O/8AVeHv+w7Z/wDoRrrKACiiigAooooAKKKKACiiigAooooAKKKKAOW8V/8AIb8K/wDYS/8AaT11Nct4r/5DfhX/ALCX/tJ66mgDkviN/wAitH/2EbP/ANKErra5L4jf8itH/wBhGz/9KErraACiiigAooooAKKKKACmyf6p/wDdNOpsn+qf/dNAHLfDT/km+hf9ew/ma6uuU+Gn/JN9C/69h/M11dDBBVGJJRrl1IYEELW0KrKANzMGlypPoAVI/wB41erj/FEmL6aC3nuIJ7o2FvO8ZC/uWmlGFI5DH5wT6YxQB2FFeUwaBqesXWoSaVpegraW95LbJ9ruLrzDsOMna2Oasf8ACE+JP+gd4W/8CLz/ABp2Fc9OorzH/hCfEn/QO8Lf+BF5/jR/whPiT/oHeFv/AAIvP8aLAenUV5j/AMIT4k/6B3hb/wACLz/Gj/hCfEn/AEDvC3/gRef40WA9OorzH/hCfEn/AEDvC3/gRef40f8ACE+JP+gd4W/8CLz/ABosB6dRXmP/AAhPiT/oHeFv/Ai8/wAaP+EJ8Sf9A7wt/wCBF5/jRYD06ivMf+EJ8Sf9A7wt/wCBF5/jR/whPiT/AKB3hb/wIvP8aLAenUV5j/whPiT/AKB3hb/wIvP8aP8AhCfEn/QO8Lf+BF5/jRYD06ivMf8AhCfEn/QO8Lf+BF5/jR/whPiT/oHeFv8AwIvP8aLAenUV5j/whPiT/oHeFv8AwIvP8aiufCHiK1tZrh9N8MFYkZyBcXmSAM/3qLAep0V59Dplj/wgdt4ksoGsdQ+xx3gaGeQqGwGK4LHKnpg9q9BpDCiiigAoorlItItNf1/W31MSzrbTx28ERmZUjXykckBSOSXOT9KAOrorn/8AhCfD3/QPP/f+T/4qj/hCfD3/AEDz/wB/5P8A4qgDoKK5/wD4Qnw9/wBA8/8Af+T/AOKo/wCEJ8Pf9A8/9/5P/iqAOgorn/8AhCfD3/QPP/f+T/4qj/hCfD3/AEDz/wB/5P8A4qgDoK8r8HeDRpnxX1+8aMC3thutuOAZuePoNw/EV2n/AAhPh7/oHn/v/J/8VR/whHh0Ekadyev76Tn/AMeoA6Ciuf8A+EJ8Pf8AQPP/AH/k/wDiqP8AhCfD3/QPP/f+T/4qgDoKK5//AIQnw9/0Dz/3/k/+Ko/4Qnw9/wBA8/8Af+T/AOKoA6Ciuf8A+EJ8Pf8AQPP/AH/k/wDiqP8AhCfD3/QPP/f+T/4qgDoKK5//AIQnw9/0Dz/3/k/+KqoNOttA8VaRFpolhhvEnjmi85mRtqhlbDE4I55HrQB1dFFFABRRRQAUUUUAUtX1KLR9KudQmVnSFd2xOrHoAPqSBWWt94rYA/2Hp65/hN+SR+SUvjf/AJFG8/3ov/RqV0FAHP8A23xV/wBAXTv/AAPb/wCN0fbfFX/QF07/AMD2/wDjddBRQBz/ANt8Vf8AQF07/wAD2/8AjdH23xV/0BdO/wDA9v8A43XQUUAc/wDbfFX/AEBdO/8AA9v/AI3R9t8Vf9AXTv8AwPb/AON10FFAHP8A23xV/wBAXTv/AAPb/wCN0fbfFX/QF07/AMD2/wDjddBRQBz/ANt8Vf8AQF07/wAD2/8AjdH23xV/0BdO/wDA9v8A43XQUUAc/wDbfFX/AEBdO/8AA9v/AI3R9t8Vf9AXTv8AwPb/AON10FFAHP8A23xV/wBAXTv/AAPb/wCN0fbfFX/QF07/AMD2/wDjddBRQBz/ANt8Vf8AQF07/wAD2/8AjdH23xV/0BdO/wDA9v8A43XQUUAc/wDbfFX/AEBdO/8AA9v/AI3VnR9XuL65u7K+sxaX1rsZ0STzEZHztZWwP7pGMdq165+x/wCR71n/AK8rT/0KagDVv0kdbfy4lkxOhbcPujPJHuKt1R1Pyttr5u//AI+Y9uzH3s8Zz2q9QAUUUUAcn47/ANV4e/7Dtn/6Ea6yuT8d/wCq8Pf9h2z/APQjXWUAFFFFABRRRQAUUUUAFFFFABRRRQAUUUUAct4r/wCQ34V/7CX/ALSeuprlvFf/ACG/Cv8A2Ev/AGk9dTQByXxG/wCRWj/7CNn/AOlCV1tcl8Rv+RWj/wCwjZ/+lCV1tABRRRQAUUUUAFFFFABTZP8AVP8A7pp1Nk/1T/7poA5b4af8k30L/r2H8zXV1ynw0/5JvoX/AF7D+Zrq6GCCuR8UCb+0bdmCeQbqwCEY3bvNk3Z74xtxnjrjvXXVx3ifyf7Zi2o4n+0advYkbSvnTbQB653Z+ooAteCv+PXWf+wxd/8AoddPXMeCv+PXWf8AsMXf/oddPQwQUUUUAFFeWX9/bv4x8QH+zVnjMbW3HDq6wlmYA4BznrkcCqvhJHa9ZILK6guH0CMrPlflkbd+9+/34568c4oA9bMkayLGXUO2Sqk8nHXApWZUUsxCqOpJwBXlUE+jTzRC+1q3XV7a2WSCeXVZmRM/K4aQSgBmx0XoPWrl6up2+mWun6nJK1tql9MksEk/nfuPKJCrI2TjIyDwaAPSqK8f1a5Wfw0Wl0u0imn0pbuG6jkZpl2sigMxAycHrT9TtpJPGUjrJJI5lWcRkRsNsca7kPzbgDkHGRkH7poA9dpryJHje6ruIUbjjJPQV5D4c1CK0e6upbW3mjks57mYLbEGJhHGfLQ7j8vz4wRnrWMt2DoVmWiTba2kkj28tsbiOSfCESHaeDiTgtwuKAPeaakkchYI6ttO1tpzg+hrzKxkmtvDduhvbo2Wl3zW7FZJbR5wyrtD9Xzuftj8qfBarcS6zZ6XZXmnXyThZ5xrcmTKVB3YJw3GBzQB6ZRTIgyxIGJLBQCSe9PoAKpax/yBL/8A69pP/QTV2qWsf8gS/wD+vaT/ANBNAHK2f/JF7X/sDx/+ixXb1xFn/wAkXtf+wPH/AOixXb02JBRRRSGFYWhf8hrxH/1/J/6IirdrC0L/AJDXiP8A6/k/9ERUAbtFcpeeINdl8UX2j6PptjMLKCGWSS5uWjz5m7AACn+6af8AbPG//QH0X/wOk/8AjdFgOoorl/tnjf8A6A+i/wDgdJ/8bo+2eN/+gPov/gdJ/wDG6AOoorl/tnjf/oD6L/4HSf8Axuj7Z43/AOgPov8A4HSf/G6AOoorl/tnjf8A6A+i/wDgdJ/8bo+2eN/+gPov/gdJ/wDG6AOoorl/tnjf/oD6L/4HSf8Axuj7Z43/AOgPov8A4HSf/G6AOoorl/tnjf8A6A+i/wDgdJ/8bo+2eN/+gPov/gdJ/wDG6AOoorl/tnjf/oD6L/4HSf8Axuj7Z43/AOgPov8A4HSf/G6AOorntY/5G7w59bn/ANFipvDGs3es2V219aw29za3cls6QyF1JXHIJA9fSodY/wCRu8OfW5/9FigDoaKKKACiiigAooooA5/xv/yKN5/vRf8Ao1K6Cuf8b/8AIo3n+9F/6NSjVPEV1Z66mkWGkSX9wbX7UxWdIwq7tv8AF1OaYHQUVzf9ueIv+hSl/wDA6Kj+3PEX/QpS/wDgdFSA6Siub/tzxF/0KUv/AIHRUf254i/6FKX/AMDoqAOkorm/7c8Rf9ClL/4HRUf254i/6FKX/wADoqAOkorm/wC3PEX/AEKUv/gdFR/bniL/AKFKX/wOioA6Siub/tzxF/0KUv8A4HRUf254i/6FKX/wOioA6Siub/tzxF/0KUv/AIHRUf254i/6FKX/AMDoqAOkorm/7c8Rf9ClL/4HRUf254i/6FKX/wADoqAOkorm/wC3PEX/AEKUv/gdFR/bniL/AKFKX/wOioA6Sufsf+R71n/rytP/AEKaqs/ivU7CazGo+G5baC5uo7YSi7jfaznAOBzirVj/AMj3rP8A15Wn/oU1MRq34lK2/lBDidC27H3c84z3/WrdUdT8rba+art/pMe3acYbPBPtV6kMKKKKAOT8d/6rw9/2HbP/ANCNdZXJ+O/9V4e/7Dtn/wChGusoAKKKKACiiigDidV1fxDN/adqpTSYklaK3u/szSttwCH64AJyASMcdaLPxLrj6ZFetaxXNnJpr3a3CxtEQygYVslgCRk/hUXibSL7VNUf+yZdR/tEBohcyxRR29ujAgjcY90gwTgAnk9RVZNO1/TvC95oskd/NNHZNBbLEYnt5RjaCCEV1YDnDH8TQBSXxn4isLXSHu20+VFhM9xL9qUfawcAKvy/K67gWGO1eg6NqQ1bTxdBrVlLFQbW485Dg4+9tHP4V5PJ4buJG+0ro1xbxyyTRoZLJmZcCIAsiKxAOx8HHP416N4Mhlt9EkikgmiUXUpjaWIxGRSxO7YeVHPAPpQB0VFFFABRRRQBy3iv/kN+Ff8AsJf+0nrqa5bxX/yG/Cv/AGEv/aT11NAHJfEb/kVo/wDsI2f/AKUJXW1yXxG/5FaP/sI2f/pQldbQAUV5vrOsXNn4xnlMgVo5EiAExVTDwdp+U4yWyT7GrWgoNRvAkOusxWKRpClzISS/3QqvxhMHnk+uK7ngXGHO3pa+xiqybsjvqK4PUJpWPh5Z9dt5pBcDdJHtwMKfnOf68Uk2tXGp6Pa209wkqXU9xBO0WAxRAxXGOh4BpfUpWTv+fn/kP2qO9orzrUdSZ9FLLFPBcSWKXMU638jHG5V5GAAfpxUuqte/8JDKqXk+GdZEiDzD5FUbhhVxg/UdaawLe7tv+FvPzF7VHoFNk/1T/wC6a4TwrqEk+txK8jyCdWkw0khEXyKdq5chhz3Gc13cn+qf/dNYV6Loy5WXCfMrnLfDT/km+hf9ew/ma6uuU+Gn/JN9C/69h/M11dYMtBXIeKDL/acAMqmH7Tp+2PcMq3nS5JHYEbef9k+ldfXH+J/L/taHELiT7Tp26Un5WHnS4UD1HJP+8KALPgr/AI9dZ/7DF3/6HXT1yXg+8tYINZSa5hjb+17o7XkAP366P+07D/n9tv8Av6v+NNiRaoqr/adh/wA/tt/39X/Gj+07D/n9tv8Av6v+NIZzmu+Cjqs+o3cF+0N1dIsaFgxWJdux+AcElcjPartl4fl07X5r+3aI2/8AZ8VpDESQQUJIzx05Fa39p2H/AD+23/f1f8aP7TsP+f22/wC/q/40Ac5c+Ebq+0rXDd3kb6rqsPlGRVIihUD5UUdcDJyepJzjtTD4Z1e9uNPm1C6tittd+b5MbMyrF5Rj2qcA5JOa6b+07D/n9tv+/q/40f2nYf8AP7bf9/V/xoA5XVPA8Taa+naPZ2dvHLAIGupppGkjTcCQq4OenqOabL4AeTVrvVo9S8m/ldxGzR+YkaFVVWC5BWQbR8wP511n9p2H/P7bf9/V/wAaP7TsP+f22/7+r/jQBy+j+BG0q683+0UKvE8dz5MUiNclhjfIWlYFh1ziqV58M4hbzQ6ffzxo1mYVEkrZaQlcs7DqMKBtAxxXa/2nYf8AP7bf9/V/xo/tOw/5/bb/AL+r/jQByY8E3d1Y/Yr2/ZIJL5ryVoZmaXIUCMB2HOCNxyOwFTWvg68tr+9vZL3Srue6lErPc6VvZSFAGCJRjpn61039p2H/AD+23/f1f8aP7TsP+f22/wC/q/40AWUDBFDkFsckDAJ+nalqr/adh/z+23/f1f8AGj+07D/n9tv+/q/40AWqpax/yBL/AP69pP8A0E0/+07D/n9tv+/q/wCNU9W1GxbRr5VvLck28mAJV/un3oA56z/5Iva/9geP/wBFiu3riLP/AJIva/8AYHj/APRYrt6bEgooopDCsLQv+Q14j/6/k/8AREVbtYWhf8hrxH/1/J/6IioAz9I/5Kd4m/68rL/2rW9q2r2ujWouLovtZti7VJy2CQPbp1NYOkf8lO8Tf9eVl/7Vqt8UPJbwwsdzA8sEkoQ7FTIJHBLt/q1z1YDOPTNDAuJ8QNGdNOYu0YvH2FpSqLCfLDncxIHAIHGeTWhfeKtKsDKJJWk8u3W5zCu8MjNtBUjrk15CbV9K0SxvYLzfBcrLpSpNFFFneArzAxkh1BH3vQCt3xhp6wa3dwx29mv/ABLLeGOTaWkf98FByMFTxjqeB1FAHocXiGB9QtrKWzvraW5LCIzw7VYqMkZye1UW8c6QNP1S6WQM+nvKrW4kTzZAhwWVc5x9a5Pw2ZrjxH5/nEicFtLluYLkow8r5jHvkIX3zkntWIkFxqB1PQjJHc32kWNzbxGNhuupJH3EqM5OBwfQ0Aes6nr1tpOmQ39xFcNDKUUeVHvILYC5H1IFZM/j/SbeSVJLe/zEZA+Lc8GMAv37ZFYPiHQhovgx1bUrpLZ722lWJ5P9QS6bhubJIzluelYGs6FFJ4hW3jAuY9Q+1yLcvpTyuQ6rggg/vMdQRjGfegD0q+8V2Fhf6baypcML+Jpo3jiL7VAB5Ayec+lXLbXLG8uFgha4MjdN9rKg/NlArCvdKaS60+4TTdXe4srYQRXVrNDFlSBn5XfI6dxVeyudSg8cWFg0+oJBLZTSy297JHIchlCtlM+p70AbNv4pt7xZHtNP1G4jjkaIyRwfKWU4OMn1FEXi/R30n+0pJpYLYTNATJC2VdTgggA454rh9ReXSb+zt4bN1F9dsj+XbXsShiCxZVEuGJI6DHrV7WrM2Xw9mSJ1sohexuR9leLJMq5JErMc55znnFAHSS+NdNjivplt7+S3sWK3EyW52oQAT1wehHat+CZLiCOaPOyRQ65HYjIrxbWbeceJr/TmHnT363bwOrLt/eRKELnOEzsY4P5V7FpRU6RZbXVx5CYZGBB+UdCOtAGH4M+7r3/YYuP6VNrH/I3eHPrc/wDosVD4M+7r3/YYuP6VNrH/ACN3hz63P/osUxHQ0UUUhhRRRQAUUUUAc/43/wCRRvP96L/0alV/+apn/sCf+16seN/+RRvP96L/ANGpVf8A5qmf+wJ/7XpiOoqjqOr2OlGAXkxjadikSqjOzkDJACgnpV6uV8euV0ILH5omdiqyRXjW7RgjlwwBBx6EUhklr480O6S7mD3MdtbSFDcPayeW2OpBC8AHjnHSptQ8X2Gnaj9jeG6lOyI74Y9w3SEhFxnOTg15f4bktY7mCM6/Z3lvalxLYaZdzwmTOMPk4EnUk/dGc8npWh4ksLqDVPEF8s0dzbwtbXXlSyMjt8jLGiMOdwJzn1AoA9FXxPYvq1tpwWQTTLIz7wF8koqsQ/PBww6ZqDU/G2g6bbJMNStLndKkWyC5jZhuONx56Dqa4O0guNM1qNdQaXzI7S6MkkxJLEW0WTk9ec81Supp7LwnGpuriWxtNPtJmimwFFx5qsEQ4HO0dMmgD0ZfHOlNo6aoqXElubg2x8pA5STdtAOD3JGD71pW2tQ3OszaYIZY5oraO4YuABhyQB16jHNcXfSXF74PitPNm1DVDqEU08UKlzF+8WQqOOiqRWVrltY6vB4y1qPT4QsUcMEchiQnzVOZCGGRnJAJB7UAegap4u0bR9VtdOvbyKOW4JXcZFxEcZG/nK57E8VHpvjPRdVXUHtruMrZM+8l1+dVGS6jOSvvWL4zfVToMmm28thLLqSfZra18hvNbIwTu34AAyScYFTaQdQ1jwk8FxLpxiW2e2uLY2zh43VdpVj5nt6DIoAur46037CtzLbX0Raza8Eb27Z2A4x9cke3vUo8aaS1jZ3Uf2iU3cogjijhJcSbd20g4xx+FeVxyNqunRWsDNe3UmkF5CJBKJMH5QBI2d6neTtPoQK110x9F0fwyJrK4t5ZdTErCGMea2YSMgKzc8e30oA7y58ZWNnbXFxcWd+kNsQJ28kHy+n3gCSOoqPWvHWl6Gs/2iOZnijEmxSgLAjIwCwP6VwWr6XremaB4guNThuxFqOZ0ZZxII8FQFnGPvYA5Bx2qXxvFfrqcLQWF7Lp6QiS5Epl+zSLsyzMUkLFV4yoSgD0PRfFdhrswis1lLbN5yUIUe+GOK3K4bwfAsV+ZJkvW85Q9rIJJPIVdgyuwuSnUHD8nqPQdzQBy3jr/jz0X/sM2n/odWbH/ke9Z/68rT/0Kaq3jr/jz0X/ALDNp/6HVmx/5HvWf+vK0/8AQpqfQRqah5m228uRU/0hN2TjK55FJNq+nW9/DYS30C3kx2xwbxvY4J+716A81V8R6fBqenxWlwLnZJOg3W0zROhz13LzxXCW3wag0/xJa6lZ61diGNyzoxxKMgj5ZB9R1HrzSGepUVzn/CHQZ51jXD/3EHpw8IWo66prJ+uoSf40AVPHf+q8Pf8AYds//QjXWV5/4q0K301/D08V1fysdbtFxcXTyL949icZr0CgAooooAwte16XSLyygSOxCXAcvNeXggSPaBjsSc57CsGPxZqNjbTPNfeHtUcz5jjt9SVHCEgBQCuGI9eM1p+L5NSlfTbPSoJZZhcLczBHMeYozkru6ZYkDB61iaC19aX+qTSRataw3GoPcJANN37kIHVsEjoaALus+KNdsvEV1ZW9mn2OOONopjZyS7yR8wyHUce1JpnirWrgaw17bxQQWdp58Vw1nIilucgguc4x2I61zPizQJ7vVNcuLTRZZTdIiw+XC6kMB8zf6ogknuGH1qSx8MGf+10l0eaJbnTTDEBE4cSLk8N5SAZ4HvjvQBtxeL9XuLTRHgudMMl+0iTg2co8llj37cGQEnt+NTWvjPUv7E0S8ntLR5NSieRnBkijjIxhAAHLMecDvjpWHZ+GbmbWrOHU9IgZYYJryaQxeYpLIqpHuZRkg5JHY1d020Sx+HWjJbWl1Fq0kBEMdrEEkeQjB3kr8o6Ek46UAXpPEuv6HFs1SCzu55pN8CI0kbMjMAI1/d4Z1B5GQfau5HSvNo4brwc+n6fdG51GyXTSxt2TzI3uQ64VTtOD1IzXpCEsikrtJGSPSgBaKKKAOW8V/wDIb8K/9hL/ANpPXU1y3iv/AJDfhX/sJf8AtJ66mgDkviN/yK0f/YRs/wD0oSutrkviN/yK0f8A2EbP/wBKErraAOM1Pwne32sPeB4tslxub96w2oNmPlxgn5T+lXIPDFxBqGpSxXrRxzwLHCwVMghSDkBRjGeMYrp6K6ni6rjy9Nv6+4z9lG9zlF8HpcRol0yxraxCKz8rkoRg+ax7sSOnSrFzo19fy6YbhLZPs0r+c0TEb1KFQQMcHnp+tdHRUvFVG7t/0x+zicnqPhMGw+xafACWhWD7TcXTsUQMCQF5Hbtimz+EbmbWLjVFuolnZz5SOm9FG0ANjswx7111FUsZVS3/AKf/AAwvZROY0bwzd6VfxXP2tTncbkqWJuGP8RB4Bz6Y4rpZP9U/+6adTZP9U/8AumsatWVWXNLcqMVFWRy3w0/5JvoX/XsP5murrlPhp/yTfQv+vYfzNdXWbKQVyHigv/akCm43ILnTyIMn5D50uWx054H/AAH6V19ch4oUf2nA32ZlJudPH2jJw/76X5fTK9eOfnGe1CA1rjwl4du7iS4uNC06WaRtzyPbIWY+pOOTUf8AwhXhb/oXdL/8BE/wrPi8SeINQuL3+y9AtZra2upLYSS33lsxQ4J27Dj86l/tTxj/ANC1Yf8Agz/+109RFv8A4Qrwt/0Lul/+Aif4Uf8ACFeFv+hd0v8A8BE/wqp/anjH/oWrD/wZ/wD2uj+1PGP/AELVh/4M/wD7XQBb/wCEK8Lf9C7pf/gIn+FH/CFeFv8AoXdL/wDARP8ACqn9qeMf+hasP/Bn/wDa6P7U8Y/9C1Yf+DP/AO10AW/+EK8Lf9C7pf8A4CJ/hR/whXhb/oXdL/8AARP8Kqf2p4x/6Fqw/wDBn/8Aa6P7U8Y/9C1Yf+DP/wC10AW/+EK8Lf8AQu6X/wCAif4Uf8IV4W/6F3S//ARP8Kqf2p4x/wChasP/AAZ//a6P7U8Y/wDQtWH/AIM//tdAFv8A4Qrwt/0Lul/+Aif4Uf8ACFeFv+hd0v8A8BE/wqp/anjH/oWrD/wZ/wD2uj+1PGP/AELVh/4M/wD7XQBb/wCEK8Lf9C7pf/gIn+FH/CFeFv8AoXdL/wDARP8ACqn9qeMf+hasP/Bn/wDa6P7U8Y/9C1Yf+DP/AO10AW/+EK8Lf9C7pf8A4CJ/hR/whXhb/oXdL/8AARP8Kqf2p4x/6Fqw/wDBn/8Aa6P7U8Y/9C1Yf+DP/wC10AW/+EK8Lf8AQu6X/wCAif4Uf8IV4W/6F3S//ARP8Kqf2p4x/wChasP/AAZ//a6jn1rxfbW8s8nhqx2RoXbGpdgMn+CjUDQ8SQQ2vgvULe3iSKGK0ZEjRcKqgYAAHQVuVzGo6kNZ+G02piIxC70/zvLJzt3LnGfxrp6QwooooAKwtC/5DXiP/r+T/wBERVu1haF/yGvEf/X8n/oiKgDP0j/kp3ib/rysv/atdDqGlWOrRxx39uLiKN94jcnYT/tLnDfQ5rH1Lwdb6hrM2qRarq1hczxpHL9iuBGHCZ25BU9Nx/OoP+EIb/oa/E3/AIHL/wDEUxGt/wAI1on2iaf+y7USzRGKRhGBuQ9R+NMHhbRhcxXBtC8sSokbSTO+1UztAyx6Z/Pmsz/hCG/6GvxN/wCBy/8AxFH/AAhDf9DX4m/8Dl/+IpDNG18JaDYvC9ppkUEkKNGkkZKsFYYOWByeO55qwvh7R10+Kw/sy1a1i5SN4gwB9ee/v1rG/wCEIb/oa/E3/gcv/wARR/whDf8AQ1+Jv/A5f/iKANqHQNHtyph0uzjKtuG2FRg4xnp1wTULeFvD7vvbRNPLc8m2TP8AKsv/AIQhv+hr8Tf+By//ABFH/CEN/wBDX4m/8Dl/+IoA6ZLeGK2FskSLAF2CMLhQvpj0qraaJpVgZDaadawGVdkhihVdy+hwORWH/wAIQ3/Q1+Jv/A5f/iKP+EIb/oa/E3/gcv8A8RQBpnwp4eYgnQ9OJHIzbJx+lWbfQ9KtMfZ9NtIsNuGyFRzjGenXFYf/AAhDf9DX4m/8Dl/+Io/4Qhv+hr8Tf+By/wDxFAGlL4U0Wa3ML2fBmM5dZXWRnIILFwdx4JHJ6cVqW1tDZ2sVtbxrHDEgREXoqgYArmf+EIb/AKGvxN/4HL/8RR/whDf9DX4m/wDA5f8A4igCTwZ93Xv+wxcf0qbWP+Ru8OfW5/8ARYq7oOhQeH7KS2guLq4MszTyS3UgeR3bqSQB6VS1j/kbvDn1uf8A0WKYjoaKKKQwooooAKKKKAOf8b/8ijef70X/AKNSq/8AzVM/9gT/ANr1Y8b/APIo3n+9F/6NSl1Tw5Pe62mrWOrz6fci2+zMY4o5Aybt3Rwcc0xG/VS+0yz1NY1vYfOjQ7hGzHYx/wBpc4b8Qax/7B1//ocLz/wCt/8A4ij+wdf/AOhwvP8AwCt//iKQy7/wjOjfvsafErSy+czKSrK+ANykHKHAH3cU6Tw9pU18l7La+ZcIUYO8jNkoCFJBOCRk8n69aof2Dr//AEOF5/4BW/8A8RR/YOv/APQ4Xn/gFb//ABFAGjc6Dpl7dyXN1bG4keJoSJpGdAjY3AKTtXOBnAFST6Pp9zJbPPapJ9mUrCr5KoCMH5emccZxmsr+wdf/AOhwvP8AwCt//iKP7B1//ocLz/wCt/8A4igDWsNIsNMtHtbS3EcLsWdSxbcTwckkk8cfTiqr+GNHeyhsRZ7LOE5W3jldIyc5+ZVIDc88g1T/ALB1/wD6HC8/8Arf/wCIo/sHX/8AocLz/wAArf8A+IoA1oNJsbfUJr+O3H2uYAPMxLNj+6CSdq+wwKG0iwbUTf8A2cC5ZNjurFfMX0cA4b23ZxWT/YOv/wDQ4Xn/AIBW/wD8RR/YOv8A/Q4Xn/gFb/8AxFAGj/wj+j7Jk/sy0KTMrSKYgQSowOPYCoZvCmg3EUUUmlWvlRS+csaptXfjGSBwePXNVP7B1/8A6HC8/wDAK3/+Io/sHX/+hwvP/AK3/wDiKALFx4O8OXUDwy6LZbH67Igh/AjBFS3PhrSbyOdJ7Z2E42yMJ5FZlxjbuDZ2/wCznHtVL+wdf/6HC8/8Arf/AOIo/sHX/wDocLz/AMArf/4igDXi0uxguI54bdIpY0EYaPK5UDABx94DtnOKuVzn9g6//wBDhef+AVv/APEUf2Dr/wD0OF5/4BW//wARQBD46/489F/7DNp/6HVmx/5HvWf+vK0/9CmqtL4Uv72e0OpeJLu7gtrmO5EJtoUDOhyuSqg4zVmx/wCR71n/AK8rT/0KamI1NQLBbbbN5WbhAeSNwz93j1q5VPUBlbb9w02LhDwT8nP3uPSrlIYUUUUAcn47/wBV4e/7Dtn/AOhGusrk/Hf+q8Pf9h2z/wDQjXWUAFFFFAGZqWsrp15aWi2N5dz3Icotuq4AUZOSzKB19ayx4m1GytJ7jV/Dl9BGk21GgaKX92SApIEmQeeQAcVX8dzxxrpkQtWuJnuVLrHH5jLAvMjbfpj39K5jw/Po7ahqbPPopthqL+S11fMjiL5cbAeMdcc+tAHRan8Q7PS9X1G1kjDxWkKMjDILyFypTJGBjr78+lXNK8Z22p2GpTRvatPaSTbIVmxvjT+InBxke1ZI0i1l8d6tbw+TGPslvco0wMiiTzWbdjcCefeqdlbahd+EfFULapAFa4vM+VbkOWBySDvPB5GMd+tAG3/wml0bXSZk0iNjqYYxKLwfJhN/zHb1xUtp43hm03TLqXTrgSahFJPFFFJGdsaYyWZyoHWuH03Thdavp1mYrq1eNbi/eNJjHsiMaqhwjYUsSfcgc1qafb2tp8MdF1B54vNig3xJdI9x5kjDAVE3jnIGBzj0oA34vG0ttazS6vo88Gxgw8ieGT9yzYRyBJnnIzgGuv6ivNY5p7GTTbTxcbe68jTTfNP5TLcROrLld+47uuOgzivSUYOisOhGRQAtFFFAHLeK/wDkN+Ff+wl/7SeuprlvFf8AyG/Cv/YS/wDaT11NAHJfEb/kVo/+wjZ/+lCV1tcl8Rv+RWj/AOwjZ/8ApQldbQAUUUUAFFFFABRRRQAU2T/VP/umnU2T/VP/ALpoA5b4af8AJN9C/wCvYfzNdXXKfDT/AJJvoX/XsP5muroYIK4/xOR/a8I89mIuNOPk4OE/fS/N6ZPT/gI9q7CuQ8UKw1OBzbhUN1p4E/PzkTS5X0+XIP8AwP6UAWPBX/HrrP8A2GLv/wBDrp65jwV/x66z/wBhi7/9Drp6GCCiiigDidZ8fNpfiVdJTT3lZd2UCsXlG0FSmBwMkg9elWdG8apfXV1FdQPEvmTG0ZImKyQxcMxYZ5zkcVxXiWFbvx5dedaJMLZ0IuFeT92HIBZ5Uf8AdbB0XAznOOaveEY7e01u+iguZIdOW3mGjTzJ8rqWzKwLHnDDv1HNAG7Z/EFdQ+yiGCwt/OtvPJvr4wgHeV2gmM7jxnNSjx4p06WQ2sRuPOuLeIwTedCzRR7927CnB6cCvOoWeXS4bdbqQLPYrYebLKqRq7mSTDfIx2gAHA55610clpfa34WS8tLuPbpJuklad/ND4i2YTaqcHJ5PI96ANjTviMlzLLPNbs+mwW8Hm3FrE0gFw+MpwTwMgfWm6z8QpbXWr2x021W4SytS87MpJSYjKqRkcDHPeubijtYG02S0QHQ5Y7OXV5YEysMqDKliOOTt3Y6Y5qz42jhk1fU9RjsY9QItMSeTcoVhjUE7nLRHaTu6Bs+lAHaeH/Fh1u0WVtMuYiLcTMQAQTgcKM5PtVWTxnNNrkVpp2lXlxBCxXUc27CSAlcpgZ5z+NY3gl7bTrhjLaLpPlQHzYrm5TfsAyG4iXevvvPvUum2dnNBrfiTUJpbMajM0toDdyW5aJEwrEKwyTjPPYigDq5Nck2QPDpty2+XY8cgEcoXu6qfvAZGcVRPjbTh4hGl4k2fZ/O87y5M7t23bt25989KwrSS7l8GeE/tFvLeX80iO1xKGd4VALM+7qG2jA9fesKx1HUJ5Z/EROuTuZvsscMSfvoLUHJLYj27ifmwccUAewA5GRRTITmCMgsw2jlxhjx396fQAVS1j/kCX/8A17Sf+gmrtUtY/wCQJf8A/XtJ/wCgmgDlLXJ+CtttIDf2MmCRnB8sVvfZfEuf+QvpmP8AsHv/APHqwrP/AJIva/8AYHj/APRYrt6bEjGFt4k/6Cmln/uHv/8AHqUQeI/+glpZ/wC3CT/49WxRSGeQabofxNXxHfzWuopa2bXMjD7U26NhnqsZ3EDHQZru/CyXKX+vreSxy3AvU3vFGUVj5EXQEnH510lYWhf8hrxH/wBfyf8AoiKgDdooooAKKKKACiiigAooooAKKKKACiiigAooooAK5fxIl1J4l8PLZTRQzk3G15YjIo+QZ+UEfzrqK57WP+Ru8OfW5/8ARYoAm+yeJv8AoL6Z/wCC9/8A47S/ZfEv/QV0z/wXv/8AHq2qKAMb7N4k/wCgppf/AIL3/wDj1L9n8Sf9BLS//ACT/wCPVsUUAY/keI/+gjpX/gBJ/wDHq5Xx9pnjO90a0i0y6hluBeIw+wxPAyja3LMZCNvTIx6V6FRQB5bNp/je08H3R8SarZzw/uv3Qj3Sg+avVxgenY16lXP+N/8AkUbz/ei/9GpUWt+JdRsNdi0jStBfVLhrb7S+LpIQibtv8XXmmB0tFcj/AMJF4w/6ER//AAawUf8ACReMP+hEf/wawUWC511Fcj/wkXjD/oRH/wDBrBR/wkXjD/oRH/8ABrBRYLnXUVyP/CReMP8AoRH/APBrBR/wkXjD/oRH/wDBrBRYLnXUVyP/AAkXjD/oRH/8GsFH/CReMP8AoRH/APBrBRYLnXUVyP8AwkXjD/oRH/8ABrBR/wAJF4w/6ER//BrBRYLnXUVyP/CReMP+hEf/AMGsFH/CReMP+hEf/wAGsFFguddRXI/8JF4w/wChEf8A8GsFH/CReMP+hEf/AMGsFFguddRXI/8ACReMP+hEf/wawUf8JF4w/wChEf8A8GsFFguddXP2P/I96z/15Wn/AKFNWa3i/XbO6sl1bwjJZW1zcx23njUIpdrOcD5V5PNaVj/yPes/9eVp/wChTUCNPUiAtrmZov8ASY+gPzc/d49au1T1BWZbbbB5uLhCevyjP3uPSrlIYUUUUAcn47/1Xh7/ALDtn/6Ea6yuT8d/6rw9/wBh2z/9CNdZQAUUUUAMMUZmExjTzQu0PjkD0z6U+iigCrcabYXZc3NlbTFwA3mxK24DpnI5xUdto2l2cwmtdNs4JQMB4oFVh+IFXqKAGmOMuXKKWK7SSOcen0qJLG0j8jZawL5AIhxGB5YPXb6fhU9FAFa50+yvXje6s7edozlGliVip9sjirNFFABRRRQBy3iv/kN+Ff8AsJf+0nrqa5bxX/yG/Cv/AGEv/aT11NAHJfEb/kVo/wDsI2f/AKUJXW1yXxG/5FaP/sI2f/pQldbQAUUUUAFFFFABRRRQAU2T/VP/ALpp1Nk/1T/7poA5b4af8k30L/r2H8zXV1ynw0/5JvoX/XsP5muroYIK47xP5f8AbEOJHMv2jTt0ZHyqvnS4IPqec/QV2Ncj4pSYajbuYVEJurAJLgZZhLJuXPoAVP8AwI0IDK0Pxhofh6bWbHVLt7e5/tW5k2G2lb5WbIOVUjkVr/8ACzPCP/QUf/wEm/8AiKs3PjzwzZ3c1rPqsazQuY5FEbnaw6jIGKi/4WJ4U/6C6f8AfmT/AOJpiI/+FmeEf+go/wD4CTf/ABFH/CzPCP8A0FH/APASb/4ipP8AhYnhT/oLp/35k/8AiaP+FieFP+gun/fmT/4mgCFfiR4PTds1IruOTizmGT6/cprfEXwY6hX1DcoGADZTEAf98VY/4WJ4U/6C6f8AfmT/AOJo/wCFieFP+gun/fmT/wCJoArr8RfBiY26gFwcjFlMMcY/uelL/wALI8HAMP7SOG5YfY5ufr8lT/8ACxPCn/QXT/vzJ/8AE0f8LE8Kf9BdP+/Mn/xNAFdPiL4Mji8pNQCx8/ItlMB+WygfEXwYsbRrfgI33lFlNg/UbKsf8LE8Kf8AQXT/AL8yf/E0f8LE8Kf9BdP+/Mn/AMTQBXf4i+DJQBJfh8AgbrKY4B/4BSS/ELwVOFE18sgX7oexlOPplKs/8LE8Kf8AQXT/AL8yf/E0f8LE8Kf9BdP+/Mn/AMTQBEPiX4RAAGqMAP8Ap0m/+Ipf+FmeEf8AoKP/AOAk3/xFSf8ACxPCn/QXT/vzJ/8AE0f8LE8Kf9BdP+/Mn/xNAEf/AAszwj/0FH/8BJv/AIij/hZnhH/oKP8A+Ak3/wARUn/CxPCn/QXT/vzJ/wDE0f8ACxPCn/QXT/vzJ/8AE0AR/wDCzPCP/QUf/wABJv8A4iqupfEbwrPpV5DFqbtJJA6qPsk3JKkD+Cr3/CxPCn/QXT/vzJ/8TQfiL4TAydXQAf8ATGT/AOJoAo2qMnwatldSrDR4wQRgj92K7asDxBdwX/ga+vLWUS289mZI5B0ZSuQfyrfoGFFFFIArC0L/AJDXiP8A6/k/9ERVu1haF/yGvEf/AF/J/wCiIqAMQ2H9ufEPW7S7vb9Le1tLVoY7e7eJVL+ZuOFIznaK1f8AhCtO/wCf3WP/AAZTf/FVV0j/AJKd4m/68rL/ANq1a8Z6+2g6TEYJ4Ybq5mWGKSbGxB1ZjnjhQfxxTEH/AAhWnf8AP7rH/gym/wDiqP8AhCtO/wCf3WP/AAZTf/FVz9146vjqmjiObSLWC58xpYbi8Cuq7Mr5vynyz6AZ9Kv654p1Wy1BLeyjtnX+zTes0cLXAJBxwQ6fL74P0pDsaP8AwhWnf8/usf8Agym/+Ko/4QrTv+f3WP8AwZTf/FVj6B4y1S91C0j1CCMQT6a18fLtWjbIxwuZG3Dk9hWbp3xA1e9trqGCCGe/kXzrNBBI33mGImACgbVIJfdgZ70BY6r/AIQrTv8An91j/wAGU3/xVH/CFad/z+6x/wCDKb/4qspfEmtrEWupLK3xfxQQyPaSxLcqQN6jJYqcnAbocVTuPFmuf20DDNGunxiaOUNp43LIvO3aZtzELk5GPpQFjof+EK07/n91j/wZTf8AxVH/AAhWnf8AP7rH/gym/wDiqytT8X3MOr+Hxa3VnHZ3tpJcSG9byEfhdvzEMVPPStjTPEEl/erD9p0ORcFmFrqPmuAO+3YOPxoCwz/hCtO/5/dY/wDBlN/8VR/whWnf8/usf+DKb/4qspvGH9o3WqtYa1pFrbQxeTaG5mTdLMDy+NwIT+EevWmav45ZvAjavpTR/a1lSCUCRGEMu4ArycNnnBHY5oCxsf8ACFad/wA/usf+DKb/AOKo/wCEK07/AJ/dY/8ABlN/8VWWvii5utY1Swu9Z0zRY7SSNFEoUzMGQMSGZ9uckjO0iuxtJEltInjuBcoVGJlIIf344/KgLHO+CPMSz1W3e4nmS31OeGNp5TIwQYwNx5qfWP8AkbvDn1uf/RYqHwZ93Xv+wxcf0qbWP+Ru8OfW5/8ARYpiOhooopDCiiigAooooA5/xv8A8ijef70X/o1Kr/8ANUz/ANgT/wBr1Y8b/wDIo3n+9F/6NSq//NUz/wBgT/2vTEbmqXr6fYPdKkLLHy5mnESqvcliMCuauPHXkafd3sdrY3UdrH5sqWupJI4XOM4ArV8Y2dxqHg7VrO0iMtxNbMkca4yxPbmuK8RafqSaNreo3tn9kiOjRWqq0yuxdXyeB9aQzrNQ8VS2MukQfYN9zfB5HgWZcxxquS2TgHsO3WsvQ/iDLq9/pVs2kvGL6GSRnEyEKVYLx83I9c4PoDWP4rtVs/EGn6qpDzHRLhRHKodF2IGHyng8n9Kr2Ooxf2poAheyke6uUWZcWT4BUngRqHXkdc8UAdO/xCtV3gWE7SYlEaKwzIyS+UFHpknOTwO9Wrfxzp9xol5qZguYYrVvKbzFUky5wEAQsc5wOncHpXnfiufTbzVdktzDdXEE6wsPMtRbhJW+YohyQ3qxJI71pXuqQX/w/vBb6kz28FzboPtEkTzIVmVd5ZONvHG4fjjigDpI/iCkkGmRiykbUZpfLvbVIpS9oAuXJXbuOMr2xzVu68eaXHdaattNFLbXSGaWd2KCKPO1TgjOWfAAx61zOiQXbarqWq6ZcwX0ceqyR3UzeWDLC0S/NvUAfKRnA4NUNK0+G8t/Cs92LEWlnaGU7pCJtzMQrkKpYKo5BJC5PUUAd1H4rmPii30CXToxcyxtK5ju1fykHdhgdeMDrVJviFaRJdma2VWjjVrcJMG+0OzsiouQDncp7e9YunTaZP4gbSm1DQPIs2iuILmFSs00jE5CyecTu4wTznPIrKazi0nW5Vhu7KaJIo0lju5IJDGDKwKb9qhXAZmxknjvQB32leKkvtGv5riKKDUtPRzd2glDbGAJGD3UjoaNH8UXepaNZ3zeH9QzcRLJ+6MRXkZ4JcHH1ArnvBpkvYNXijGk3U6rFatCkiqjqE+diUUnDE+mCRTdbtLPRtKuori10aykW1cwxxalIJc7Tt2IVGecYxQBv6x4ul0u5sUXR7yVJGH2rCjdbhjtQHB2klvfgcmm6f4ykvdZaybRr1IZZDHazYXEmz/WFssMbSe2c4OM1hz6fdXa6BatJKZV00C5RCDPvwNu7cCFX72Sf1rD8KWF1bR6C7FooHuGaSeaRPIZQ7DYpChg+cYB4Pb0oA6af4nWtqt1Jc2DQxReasbtMD5jpkBcY4yRW94e8SrrZkt5LSa3vIIo5J1JVowXGQFZSQf8K8lMk1k17d28kkcge6OZ42aLG8g7Sw2gjPXnHpXbfDm2i0zUdU0yxureeyRIpj5NwLgeYwIJ8wKvZfukHrxjpQBs+Ov+PPRf+wzaf+h1Zsf+R71n/rytP/QpqreOv+PPRf8AsM2n/odWbH/ke9Z/68rT/wBCmp9BGnqXl7bXzHdP9JjxtGcnPAPtV2ql+srLb+VEsmJ0LZGdq55P4VbpDCiiigDk/Hf+q8Pf9h2z/wDQjXWVyfjv/VeHv+w7Z/8AoRrrKACiiigAooooAKKKKACiiigAooooAKKKKAOW8V/8hvwr/wBhL/2k9dTXLeK/+Q34V/7CX/tJ66mgDkviN/yK0f8A2EbP/wBKErra5L4jf8itH/2EbP8A9KErraACiiigAooooAKKKKACmyf6p/8AdNOpsn+qf/dNAHLfDT/km+hf9ew/ma6uuU+Gn/JN9C/69h/M11dDBBXHeJ/I/tiLaZPtH2jTt4ONm3zptuO+c7s/h712Ncj4o87+0rctt8j7Vp+zG3du82XdnvjG3rx1x3oAn8Ff8eus/wDYYu//AEOunwPSuY8Ff8eus/8AYYu//Q66ehggwPSjA9KKKAMefxJYwX91ZtFdtNax+bLstnYBcEg5Awc4P5VBYeMNH1GUpC1woFv9qLy27ooi7PkjGDg/lXC6xdXVl4x16Sa+8hzG5IRmZfIEB2BkyATnPPqas+FdKvDrBsbm5Vlbw/AjxtDj5W3AKSD2z170Adc/jTRhd2sMbzzR3Cs32iKBmjTAyNxx37datf8ACTaW6QSQStPFLcfZmkiQlYnxn5/7o+vrXDPqF1pH9sWU2mLdWOm2UTXTC/bzA4OUCuFG3CjhQBjrnmtO6YeH7TTTp+qyF7nVolvPMZGZxKM4kyPvYA5GKAOg1Dxfomny2cbXsEpuZxADFMhEZIPzN83C8daS88XabY3NzFNHchLWHz55fK+VY84DDuwJ4+UGuX1DT7iPWNI0ya5h1CeLWROu2IeYlvtZv3mBjjPX0xVG70nUdV8f65G0BNo9oENu8rszx7iAVBdV5IJCkgAdMGgDvLfxLp096LRhcW8pha4H2mBogYwQC2WAHcVUtPG2j3tvaSQefLJdeYY4YovNcbDhshM47H8a5nwlBeXVzf39ytxG9r59ms9wPNVFUjghp2OeOQBjjrXGzT3EPg+zu5ldI4IpY2/dhGxM6shXBy+VBPHTBzQB66/i7TRpQ1GNLiSL7YtkyiIq6yFguCGx0JpbjxZp1ppsl3PHcRSRxvIbWSPZMVVgpIU44yRznvXB6naJb/DfUbu6Z4zFqf2tES52na0iMMhWxu2nIB5HtUWuRTm1e4lsYbRZdKuZFjiGdqtJGV3nnLkYJ5oA9dUh0VgOCM07A9KZD/qI/wDdH8qfQAYHpVLWB/xJL/8A69pP/QTV2qWsf8gS/wD+vaT/ANBNAHK2f/JF7X/sDx/+ixXb1xFn/wAkXtf+wPH/AOixXb02JBRRRSGFYWhf8hrxH/1/J/6IirdrC0L/AJDXiP8A6/k/9ERUAZ+kf8lO8Tf9eVl/7Vqx410261jSIrC3lmRZJlaVIrcSGVV52EswVQSByTjtWQut6ZofxM8QNql9BZrNZ2YiMzbQ+PMzj1xkfnW3/wAJ54U/6GDT/wDv8KYjl7i/1cQeIGkk16O4tmYWaQW+UUCJSM7VKn5s5wSKk8Q6Hd+ILLzPJuFljsg0t1OiMM+XkpEhUkknqeAOcZNdJ/wnnhT/AKGDT/8Av8KP+E88Kf8AQwaf/wB/hSGcl4U0G70LT7S6ls7idZrPcJoEjRo8x5McqbQxGRwQSScZFYWi+FL651RrOSOUFIlkZVllgH3YmALkOOoxgDqD0GAPSv8AhPPCn/Qwaf8A9/hR/wAJ54U/6GDT/wDv8KAOKtbHWI/h/YIbOeaddSikjhMpZsLKxOQUXYOM5yfXjpTJrbXptWtb2K2GpabaSPI1w9oxI3qV2BWcPMi5PP1613H/AAnnhT/oYNP/AO/wo/4Tzwp/0MGn/wDf4UASrZ3s1pFPbas0MHlKVihs0CgY/hVgSPoaw7O0ur7xhbX9zFdS2drYTRyTXdqIdxdh8oXAzwD2rX/4Tzwp/wBDBp//AH+FH/CeeFP+hg0//v8ACgDG0+SNdS1bxLdQNaWk8CWdgjxEMyICd20DIBPQegrn7nwkh+Elh5li8d5GUnkhjhw0rF8DeAMthWPWu5/4Tzwp/wBDBp//AH+FH/CeeFP+hg0//v8ACgDkpdKdLOW5hs5Uin8Q25ij2MSIo8Jux1x8p/CvTq57/hPPCn/Qwaf/AN/hR/wnnhT/AKGDT/8Av8KAIfBn3de/7DFx/SptY/5G7w59bn/0WKqeA7iG8tNZubeRZYJdWneORTkMDjkGresf8jd4c+tz/wCixTEdDRRRSGFFFFABRRRQBz/jf/kUbz/ei/8ARqVlapq1honxJS51K5S2gk0jy0kkzhm87OM+uK1fG/8AyKN5/vRf+jUreZFb7yg/UUwOe/4T7wr/ANBu1/M/4VUufFfgW9mjmu73TJ5Y/uPLEGZe/BI4rq/Kj/55p/3yKPKj/wCeaf8AfIpAcxP4x8F3TBrjUtPmYKyAyJuIU9RyOh70reM/Bj+Vu1OwbySGiyudhAwCvHHHpXTeVH/zzT/vkUeVH/zzT/vkUAc9/wAJ54U/6DVr+v8AhUc/jXwdcxGKfVbGWMkEpIu4ZByOCPWul8qP/nmn/fIo8qP/AJ5p/wB8igDkp/E3gK5R0nutKlV38xhJCGDPjG45Xk471bTx14SjRUTWbRVUbQq5AA9OldF5Uf8AzzT/AL5FHlR/880/75FAHPf8J54T/wCg1afr/hR/wnvhT/oNWv6/4V0PlR/880/75FHlR/8APNP++RQBzw8e+FB01u1/M/4Uf8J74UPXWrX9f8K6Hyo/+eaf98ijyo/+eaf98igDnv8AhPfCn/QbtfzP+FMh8b+D7aIRQatZRRjoiDaB36AV0nlR/wDPNP8AvkUeVH/zzT/vkUAc3N438H3ELRT6tZSxt95HG4H6gihfG/g9JmmTVrJZXAVnAwzAdATjtXSeVH/zzT/vkUeVH/zzT/vkUAcF4m8T6Lrf9jWmmahFdXH9r2r+XHknaH5PToK6Cx/5HvWf+vK0/wDQpq3hGgOQig+oFYNj/wAj3rP/AF5Wn/oU1MRpan5W2180uP8ASY9uzH3s8Zz2q9VS/wDN22/lbf8Aj4Tdux93PPXv9Oat0hhRRRQByfjv/VeHv+w7Z/8AoRrrK5Px3/qvD3/Yds//AEI11lABRRRQAUUUUAFFFFABRRRQAUUUUAFFFFAHLeK/+Q34V/7CX/tJ66muW8V/8hvwr/2Ev/aT11NAHJfEb/kVo/8AsI2f/pQldbXJfEb/AJFaP/sI2f8A6UJXW0AFFFFABRRRQAUUUUAFNk/1T/7pp1Nk/wBU/wDumgDlvhp/yTfQv+vYfzNdXXKfDT/km+hf9ew/ma6uhggrjvE/k/2xFtWTz/tGnb2JG0r5020DvnO7P1FdjXMeIbHUNQup0spYnkthZ3UNs743MkshYH+7uAAB9V9qAE8FsotdZywH/E4u+p/266ben99fzrgrrw9pt5dzXVx4AuXnmcvI4uYhuY9TxJUP/CLaP/0T66/8Co//AI7TEeh70/vr+dG9P76/nXnn/CLaP/0T66/8Co//AI7R/wAIto//AET66/8AAqP/AOO0Adpe6RpWow3EV3bQypcFTMDxvK/dzj0pw02wGoTX6rtuZoBbs6yEfICSAOeOp5HNcT/wi2j/APRPrr/wKj/+O0f8Ito//RPrr/wKj/8AjtAHYJoOjppE+lLbR/ZLgMJl3HMhbqWbOST65zUMPhfQolIa1WfJZibmRpiSQFJJYnsAPYVyv/CLaP8A9E+uv/AqP/47R/wi2j/9E+uv/AqP/wCO0AdZ/wAI1oOMfYLfHpk/41LNomkz3Dzy26O7wrA2XONinKjGccE1x3/CLaP/ANE+uv8AwKj/APjtH/CLaP8A9E+uv/AqP/47QB1S+FvD8ccqRafbxCVWVzEdhIYYPIPf1qabQdIuHRprdHEcBt41ZyVjQjB2jOFJHGRz71x//CLaP/0T66/8Co//AI7R/wAIto//AET66/8AAqP/AOO0AdTa+F9BtYWiFlFKrMWJuGMpJKhTyxJ6AD6U0eFNEGny2IjlFtMwaRPtUnz4GApO7O0AAbelcx/wi2j/APRPrr/wKj/+O0f8Ito//RPrr/wKj/8AjtAHoQaNQAGUAcDml3p/fX8688/4RbR/+ifXX/gVH/8AHaP+EW0f/on11/4FR/8Ax2gD0Pen99fzqnq7qdFv8MP+PaTv/smuI/4RbR/+ifXX/gVH/wDHaP8AhFtH/wCifXX/AIFR/wDx2gC9Z/8AJF7X/sDx/wDosV29cfdpql5oS6Fp/h2TT7d0W38yeeIpDFwDgKxJIXgCuwoGFFFFIArC0L/kNeI/+v5P/REVbtc3jVdH1vU5oNKe/tL2RJ0aCZFdGCKjKwcjj5AQR60AdBJbwTNukhjcjjLKDTPsVp/z6w/9+xWT/beq/wDQr3//AH/g/wDi6P7b1X/oV7//AL/wf/F0Aa32K0/59Yf+/Yo+xWn/AD6w/wDfsVk/23qv/Qr3/wD3/g/+Lo/tvVf+hXv/APv/AAf/ABdAGt9itP8An1h/79ij7Faf8+sP/fsVk/23qv8A0K9//wB/4P8A4uj+29V/6Fe//wC/8H/xdAGt9itP+fWH/v2KPsVp/wA+sP8A37FZP9t6r/0K9/8A9/4P/i6P7b1X/oV7/wD7/wAH/wAXQBrfYrT/AJ9Yf+/Yo+xWn/PrD/37FZP9t6r/ANCvf/8Af+D/AOLo/tvVf+hXv/8Av/B/8XQBrfYrT/n1h/79ij7Faf8APrD/AN+xWT/beq/9Cvf/APf+D/4uj+29V/6Fe/8A+/8AB/8AF0Aa32K0/wCfWH/v2KPsVp/z6w/9+xWT/beq/wDQr3//AH/g/wDi6P7b1X/oV7//AL/wf/F0AbaRpEu2NFRfRRgVgax/yN3hz63P/osVJ/beq/8AQr3/AP3/AIP/AIuoIo9S1bxFp97c6W9ha2McpBmmRnkdwFAAQkAAZ5J9KAOkooooAKKKKACiiigDnvHHHg++Y9F8tmPoBIpJ/IV0AdSMhgR9aSWKOaJ4pUV43BVkYZDA9QR3rBHgfw0owukwqo6BWYAfgDQBv7l9R+dG5fUfnWD/AMIT4c/6Bcf/AH2/+NH/AAhPhz/oFx/99v8A40Ab25fUfnRuX1H51g/8IT4c/wCgXH/32/8AjR/whPhz/oFx/wDfb/40Ab25fUfnRuX1H51g/wDCE+HP+gXH/wB9v/jR/wAIT4c/6Bcf/fb/AONAG9uX1H50bl9R+dYP/CE+HP8AoFx/99v/AI0f8IT4c/6Bcf8A32/+NAG9uX1H50bl9R+dYP8AwhPhz/oFx/8Afb/40f8ACE+HP+gXH/32/wDjQBvbl9R+dG5fUfnWD/whPhz/AKBcf/fb/wCNH/CE+HP+gXH/AN9v/jQBvbl9R+dG5fUfnWD/AMIT4c/6Bcf/AH2/+NH/AAhPhz/oFx/99v8A40Ab25fUfnRuX1H51g/8IT4c/wCgXH/32/8AjR/whPhz/oFx/wDfb/40Ab25fUfnXP6cyyeOdbZCGC2lojEdmzKcfkQfxp3/AAhPhz/oFx/99v8A41p6bpNho9sbfTrSK2iZi7LGMbmPUk9z9aAG6n5W2181XP8ApMe3YRw2eM+1XqqX7SKtv5cojzcIGycblzyPxq3QAUUUUAcn47/1Xh7/ALDtn/6Ea6yuT8d/6rw9/wBh2z/9CNdZQAUUUUAFFFFABRRRQAUUUUAFFFFABRRRQBy3iv8A5DfhX/sJf+0nrqa5bxX/AMhvwr/2Ev8A2k9dTQByHxKkSLwiskjBES/s2ZmOAAJ0yTWt/wAJb4d/6Dmnf+BKf41qzQQ3MRiniSWNuqOoYH8DVT+w9J/6Bdl/4Dr/AIUAVf8AhLfDn/Qc07/wJX/Gj/hLfDn/AEHNO/8AAlf8atf2HpP/AEC7L/wHX/Cj+w9J/wCgXZf+A6/4UAVf+Et8Of8AQc07/wACV/xo/wCEt8Of9BzTv/Alf8atf2HpP/QLsv8AwHX/AAo/sPSf+gXZf+A6/wCFAFX/AIS3w5/0HNO/8CV/xo/4S3w5/wBBzTv/AAJX/GrX9h6T/wBAuy/8B1/wo/sPSf8AoF2X/gOv+FAFX/hLfDn/AEHNO/8AAlf8abJ4t8OmNh/bmndD/wAvC/41c/sPSf8AoF2X/gOv+FH9h6T/ANAuy/8AAdf8KAMP4af8k30L/r2H8zXV02ONIo1jjRURRhVUYAHsKdQAVky3NrY6xe3NwrQr9lt1adj8jfPLhQMdRkk/7wrWooAorrOnO9ui3SFrgZiHPz844/EVH/b+leS8v22Py42CM3PBOcDp7GtKigCimsafJPDAl0hkmUPGvPzA85/Q1H/b+lfZjcfbY/JD+Xv5xuxnHT0rSooAorrGnvcLbrdIZWTeF5yVxuz+XNR/2/pQtluftsfks5QPzgsBnFaVFAFH+2dONw9v9qTzUUuy85AAyT+VM/t7SxDFN9sj8uViqNz8xHUfqK0aKAKB1vTRNNEbtPMgBMi8/KBwaBremlLdhdptuGKxHn5yDg4/Gr9FAGedc0wGcfbEzB/revy84/nSrrOnM1uFukJuf9T1+fnHH41fooAzv7e0vZK/2yPbEQrnn5SeKemsae8tvEt0he4XdEOfnHPT8jV6igDN/wCEg0owNP8AbY/KVwhbnhiCcdPY1ImsafJcRQJdIZZU3ovPzLjOfyFXqKAM3+39K+zC5+2x+SX2b+cbsZx09KkGs6e1x9nF0hl2b9vOduM5/Lmr1FAGadf0oW6XBvY/KdiitzgkdR096f8A2zp3nyw/ak8yJS7rz8oHU1fooAzzrumCKGX7ZHsmYrGefmIOD/MUf25pvmTx/a03wAmUc/KAcH9a0KKAKA1rTiLci7T/AEkkQ9fnOccfjTf7e0vEx+2R/uf9Z1+XnH860aKAKK6zp7vbot0ha4GYhz8/OOPyqMa/pRiklF7HsjYKx54J6Dp7VpUUAUk1ewknghW5QyToHiXn5l55/Q1F/wAJBpRtzP8AbY/KD7C2D97GcdPStKigCiusae86QLdIZXTzFXnlcbs/lzUZ1/ShbLcm9j8lnKB+cFgM46VpUUAURrOnmd4BdJ5qIZGXnhQM5/KoZvEmjW9ol3PqMEVvIxVZJG2qSMcZP1FalcR8XP8Akm2pf70P/oxaAOhh8UaFcXM1tBq1pLPAjPJHHKGZVHUkD0yKm/tzTdkD/a023BIiPPzEHB/WvB/gmMePX/68ZP8A0JK+iKAM/wDtzTN06/bEzACZRz8uDg/rSrrWnM1uq3SE3P8Aqevz844/Gr9FAGcNe0spK4vI9sJxIefl5x6U9NY095beJbpC9wu6Ic/OOeR+Rq9RQBmjxBpRgaYXsflowVm54JzgdPY1Kur2DzxQLcoZZU8xF5+ZcZz+QNXaKAMz/hINJ+z/AGj7bH5W/ZuwcbsZx09KlGsaeZ/IF0nm7PM28/dxnP5c1eooAzT4g0oW6XBvY/KdiqtzgkdR096k/tnT/Plh+1J5kSF3Xn5VAyT+VXqKAM467piwwzG8jEcxKxtz8xBwf507+2tO8yeP7Wm+AFpRz8oBwf1NX6KAKH9t6bi3P2tMXGRF1+fnHH400a9pZ87F5H+4/wBZ1+XnH860aKAKK6zpzyW6LdIWuBmIc/OM44/Koxr+lNFJIL2MpGQHPPBPTtWlRQBSXVrB54IVuUMk6eZEvPzLzz+hqEeINJMBnF7H5QYIW56kZx09q06KAKQ1fT2nSAXSGV4/NVeeVxnP5c1CfEOki3Fwb2Pyi2wNzjOM46Vp0UAUf7Y0/wA9oftSeYsfmFeeFxnP5VG2v6UsEc5vYxFISqNzyR17e4rSooAo/wBsaf500P2pPMgUvIvPyqOppp1zTBHBIbxNk5IiPPzYOD+taFFAFAa3ppedftaboATKOflAODn8acNX08mAC7jzP/qufv8AOOPxq7RgelAFAa3prLKwvIiIv9Yc/d5xz+NPXVbFpYI1uoy867olz98eo/I1bwPQUYHoKAKA1zTGieUXsRjQgM2eAT0/lUo1OyaaOEXMZklTzEXPLLjOfyBq1gegowPSgCh/bul+R5322Lyt23dnjOM4qT+1bHzvJ+1R+Zs8zbnnbjOfy5q3gegowPSgDGvtX0uWG0k89ZUa6QIUbGGB69O2RW1SYHoKWgAooooAy9e0G08RWCWl486LHMs0clvKY3R16EMOQaxf+FfWn/Qf8Tf+DaX/ABrrqKAOR/4V9af9B/xN/wCDaX/Gj/hX1p/0H/E3/g2l/wAa66ii4WOR/wCFfWn/AEH/ABN/4Npf8aP+FfWn/Qf8Tf8Ag2l/xrrqKLhY5H/hX1p/0H/E3/g2l/xo/wCFfWn/AEH/ABN/4Npf8a66ii4WOR/4V9af9B/xN/4Npf8AGj/hX1p/0H/E3/g2l/xrrqKLhY5H/hX1p/0H/E3/AINpf8aP+FfWn/Qf8Tf+DaX/ABrrqKLhY5H/AIV9af8AQf8AE3/g2l/xo/4V9af9B/xN/wCDaX/GuuoouFjlrLwJp9pqdrfvqWs3clq5kiS8v3lQMQRnae+Ca6miigAooooAKKKKACiiigAooooAKKKKACiiigAooooAKKKKACiiigAooooAKKKKACiiigAooooAKKKKACiiigAooooAKKKKACiiigAooooAKKKKACiiigAooooAK4j4uf8AJN9S/wB+H/0YtdvXEfFz/km+pf78P/oxaAPLvgp/yPr/APXjL/6ElfRFfO/wU/5H1/8Arxl/9CSvoigAooooAKKKKACiiigAooooAKKKKACiiigAooooAKKKKACiiigAooooAKKKKACiiigAooooAKKKKACiiigAooooAKKKKACiiigAooooAKKKKACiiigAooooAKKKKACiiigAooooAKKKKACiiigAooooAKKKKACiiigAooooAKKKKACiiigAooooAKKKKACiiigAooooAKKKKACiiigAooooAKKKKACiiigAooooAKKKKACiiigAooooAKKKKACiiigAriPi5/yTfUv9+H/0YtdvXmnxe8RaSnhe/wBCa8Uam/kutvtbJXeDnOMdAe9AHBfBT/kfX/68Zf8A0JK+iK+Z/hZrmm+H/F7Xuq3S21t9kkj8xlJ+YlSBwD6GvpK0uob60hurdi8MyB0YqVyp6HB5oAmooooAKKKKACiiigAooooAKKKKACiiigAooooAKKKKACiiigAooooAKKKKACiiigAooooAKKKKACiiigAooooAKKKKACiiigAooooAKKKKACiiigAooooAKKKKACiiigAooooAKKKKACiiigAooooAKKKKACiiigAooooAKKKKACiiigAooooAKKKKACiiigAooooAKKKKACiiigAooooAKKKKACiiigAooooAKKKKACiiigAooooAKKKKACiiigArxv466NmLTNbRfuk2sp+vzL/Jv0r2Sue8c6N/b3gzU7EDMhiMkX++vzD9RQB8yaBpT634gsNMjBJuZ1Q8ZwufmP0Aya+uYokghSKNdsaKFUDsBwK8G+CGjfa/El3q0kfyWUWxCR0kfj8woP5175QAUUUUAFFFFABRRRQAUUUUAFFFFABRRRQAUUUUAFFFFABRRRQAUUUUAFFFFABRRRQAUUUUAFFFFABRRRQAUUUUAFFFFABRRRQAUUUUAFFFFABRRRQAUUUUAFFFFABRRRQAUUUUAFFFFABRRRQAUUUUAFFFFABRRRQAUUUUAFFFFABRRRQAUUUUAFFFFABRRRQAUUUUAFFFFABRRRQAUUUUAFFFFABRRRQAUUUUAFFFFAHIXl74pv8AxNqNhot5pdtb2SQ5+1WzyM5dSequMdKX7H8QP+gz4f8A/ACX/wCOVb0f/kdvE3+7af8AoDV0dMRyP2P4gf8AQZ8P/wDgBL/8co+x/ED/AKDPh/8A8AJf/jlddRSGcj9j+IH/AEGfD/8A4AS//HKPsfxA/wCgz4f/APACX/45XXUUAcj9j+IH/QZ8P/8AgBL/APHKPsfxA/6DPh//AMAJf/jlddRQByP2P4gf9Bnw/wD+AEv/AMco+x/ED/oM+H//AAAl/wDjlddRQB5z4f8ABvi7wzb3MOm6roSrcTtO5exkJyew/eDgdq2PsfxA/wCgz4f/APACX/45XXUUAcj9j+IH/QZ8P/8AgBL/APHKPsfxA/6DPh//AMAJf/jlddRQByP2P4gf9Bnw/wD+AEv/AMco+x/ED/oM+H//AAAl/wDjlddRQByP2P4gf9Bnw/8A+AEv/wAco+x/ED/oM+H/APwAl/8AjlddRQByP2P4gf8AQZ8P/wDgBL/8cqlq8vj7R9HvNRk1XQZEtYWlKLYygsAM4z5ld3WD42/5EjW/+vOT/wBBNMRsWkxuLOCZgAZI1cgdsjNTVV0z/kFWf/XBP/QRVqkMKKKKACiiigAooooAKKKKACiiigAooooAKKKKACiiigAooooAKKKKACiiigAooooAKKKKACiiigAooooAKKKKACiiigAooooAKKKKACiiigAooooAKKKKACiiigAooooAKKKKACiiigAooooAKKKKACiiigAooooAKKKKACiiigAooooAKKKKACiiigAooooAKKKKACiiigAooooA5zR/+R28Tf7tp/6A1dHXOaP/AMjt4m/3bT/0Bq6OgAooooAKKKKAOFtvHUlzrGoQQGxe3SRkgee4EKRqnyszvhuWc4UY5wead4c8YX1/4Xa+uZNHkuVidlH28IWYMQoZduEBx1yc8etZN7b6rpMupair3bHUNQhDTRWCqViDhdiqxZzhc87MHqDVi6+13w8Rabb/ANo3cDaVmFLuz8tzKSwwv7tSe1AGxf8AizUk+zLp2k/aZoo1uNSiDbzbxnHyqVOGk7geg96j8TeM206PS302WyeC+lRTNJvcqrEjKqowcY7tn2rD0/Sb7TtXdtUsri2huNNhSdNLgeRZZFJypdASDjGTxnPWpde0XUfEOk+HjNpUtnClxFJNa27EFCxIYnHI2rzn1agDXPjW4jkYLp8c1rHfxaeZ2uCkjs4X59nl4A+bpmq8njHUP7VvrY+VDHFfGzgxp0s/msFDY3K4GcZ4x2rKn0rU4Zrmyj0zUZov7ftp1un2sGjUICxJO49Dk4x71i6npdxNr/2hrWPN7qV1NAJNOMxLRqFRXwM7GOeDwOtAHY2njHUpNN1rUGthPY2VvvguI7Vod8gLB12u5ztIHes0/EDVTNZ20UFqzmyE0zqqzZkzg42ygAfiT7VR8M6fPaaZr2mXlhHb5TAtvsZaeQs2SSYwd0eThducDrVWKLXbbWGFrpUttaSWYhZraynhC4fcFXZGCucknA59aAPSvCurza94ZstTuI445p0LMsedowxHGSfStisfwvELfw7aQLC0IjUr5ZiePbz6MAT9SOetbFABRRRQAVg+Nv8AkSNb/wCvOT/0E1vVg+Nv+RI1v/rzk/8AQTQBqaZ/yCrP/rgn/oIq1VXTP+QVZ/8AXBP/AEEVaoAKKKKACiiigAooooAKKKKACiiigAooooAKKKKACiiigAooooAKKKKACiiigAooooAKKKKACiiigAooooAKKKKACiiigAooooAKKKKACiiigAooooAKKKKACiiigAooooAKKKKACiiigAooooAKKKKACiiigAooooAKKKKACiiigAooooAKKKKACiiigAooooAKKKKACiiigAooooA5zR/+R28Tf7tp/wCgNXR1yunXtraeN/EguLmGEstpjzJAufkb1rd/tjTP+gjaf9/1/wAaALtFUv7Y0z/oI2n/AH/X/Gj+2NM/6CNp/wB/1/xoAu0VS/tjTP8AoI2n/f8AX/Gj+2NM/wCgjaf9/wBf8aALtFUv7Y0z/oI2n/f9f8aP7Y0z/oI2n/f9f8aALtFUv7Y0z/oI2n/f9f8AGj+2NM/6CNp/3/X/ABoAu0VS/tjTP+gjaf8Af9f8aP7Y0z/oI2n/AH/X/GgC7RVL+2NM/wCgjaf9/wBf8aP7Y0z/AKCNp/3/AF/xoAu0VS/tjTP+gjaf9/1/xo/tjTP+gjaf9/1/xoAu0VS/tjTP+gjaf9/1/wAaP7Y0z/oI2n/f9f8AGgC7WD42/wCRI1v/AK85P/QTWj/bGmf9BG0/7/r/AI1h+MtU0+XwXrKR39q7tZyAKsykn5T70Ab+mf8AIKs/+uCf+girVVdN/wCQVZ/9cE/9BFWqACiiigAooooAKKKKACiiigAooooAKKKKACiiigAooooAKKKKACiiigAooooAKKKKACiiigAooooAKKKKACiiigAooooAKKKKACiiigAooooAKKKKACiiigAooooAKKKKACiiigAooooAKKKKACiiigAooooAKKKKACiiigAooooAKKKKACiiigAooooAKKKKACiiigAooooAKKKKAMy+8OaJqdybm+0myuZyApkmgVmwOgyRVb/hDPDH/Qv6Z/4Cp/hRRQAf8IZ4Y/6F/TP/AAFT/Cj/AIQzwx/0L+mf+Aqf4UUUAH/CGeGP+hf0z/wFT/Cj/hDPDH/Qv6Z/4Cp/hRRQAf8ACGeGP+hf0z/wFT/Cj/hDPDH/AEL+mf8AgKn+FFFAB/whnhj/AKF/TP8AwFT/AAo/4Qzwx/0L+mf+Aqf4UUUAH/CGeGP+hf0z/wABU/wo/wCEM8Mf9C/pn/gKn+FFFAB/whnhj/oX9M/8BU/wo/4Qzwx/0L+mf+Aqf4UUUAH/AAhnhj/oX9M/8BU/wo/4Qzwx/wBC/pn/AICp/hRRQAf8IZ4Y/wChf0z/AMBU/wAKP+EM8Mf9C/pn/gKn+FFFAB/whnhj/oX9M/8AAVP8KP8AhDPDH/Qv6Z/4Cp/hRRQBtqoVQqgBQMADtS0UUAFFFFABRRRQAUUUUAFFFFABRRRQAUUUUAFFFFABRRRQAUUUUAFFFFABRRRQAUUUUAFFFFABRRRQAUUUUAFFFFABRRRQAUUUUAFFFFABRRRQAUUUUAf/2Q==;strokeColor=none;strokeWidth=102;spacingTop=-3;spacingBottom=-3;spacingLeft=-3;spacingRight=-3;rounded=0;html=1;whiteSpace=wrap;fontColor=#2d16df;" vertex="1" parent="1">
          <mxGeometry x="-854.72" y="1920" width="1199.72" height="1160" as="geometry" />
        </mxCell>
      </root>
    </mxGraphModel>
  </diagram>
</mxfile>
